<?xml version="1.0" encoding="iso-8859-1"?>
<!-- Generator: Adobe Illustrator 21.0.0, SVG Export Plug-In . SVG Version: 6.00 Build 0)  -->
<svg version="1.1" id="Capa_1" xmlns="http://www.w3.org/2000/svg" xmlns:xlink="http://www.w3.org/1999/xlink" x="0px" y="0px"
	 viewBox="0 0 617.569 617.569" style="enable-background:new 0 0 617.569 617.569;" xml:space="preserve">
<g>
	<g>
		<g id="filled_outline_3_">
			<polygon style="fill:#C3C9D1;" points="326.735,617.558 349.965,617.558 263.704,452.879 277.918,452.879 277.918,432.294 
				226.456,432.294 226.456,380.832 205.871,391.124 205.871,432.294 154.409,432.294 154.409,452.879 169.107,452.879 
				82.846,617.558 106.086,617.558 192.347,452.879 206.705,452.879 206.705,617.558 227.29,617.558 227.29,452.879 
				240.474,452.879 			"/>
			<polygon style="fill:#A8B2BF;" points="226.456,411.709 205.871,411.709 205.871,391.124 226.456,380.832 			"/>
			<polygon style="fill:#D0D7DF;" points="107.146,452.879 66.439,380.626 298.966,247.03 339.673,319.283 			"/>
			<polygon style="fill:#B7BDC4;" points="66.439,380.626 30.673,401.18 51.021,437.306 96.967,434.815 			"/>
			<polygon style="fill:#576573;" points="10.315,365.053 30.673,401.18 66.439,380.626 46.091,344.499 			"/>
			
				<rect x="108.571" y="305.877" transform="matrix(0.8713 -0.4908 0.4908 0.8713 -144.9971 100.3787)" style="fill:#A8B2BF;" width="20.585" height="41.469"/>
			
				<rect x="77.733" y="298.262" transform="matrix(0.8672 -0.498 0.498 0.8672 -139.2226 95.1019)" style="fill:#A8B2BF;" width="61.89" height="20.585"/>
			<polygon style="fill:#576573;" points="248.78,370.591 195.116,401.416 154.409,329.164 208.063,298.338 			"/>
			<rect x="0.022" y="596.973" style="fill:#A8B2BF;" width="617.547" height="20.585"/>
			<path style="fill:#F5AE45;" d="M535.229,51.473L535.229,51.473c14.42-4.807,25.391-16.653,29.076-31.402l1.801-7.194l1.801,7.205
				c3.685,14.749,14.656,26.585,29.076,31.392l0,0c-14.42,4.807-25.391,16.653-29.076,31.402l-1.801,7.205l-1.801-7.205
				C560.621,68.127,549.649,56.28,535.229,51.473z"/>
			<path style="fill:#F5AE45;" d="M411.72,102.936L411.72,102.936c14.42-4.807,25.391-16.653,29.076-31.402l1.801-7.194l1.801,7.205
				c3.685,14.749,14.656,26.585,29.076,31.392l0,0c-14.42,4.807-25.391,16.653-29.076,31.402l-1.801,7.205l-1.801-7.205
				C437.112,119.589,426.14,107.742,411.72,102.936z"/>
			<path style="fill:#F5AE45;" d="M494.06,185.275L494.06,185.275c14.42-4.807,25.391-16.653,29.076-31.402l1.801-7.205l1.801,7.205
				c3.685,14.749,14.656,26.596,29.076,31.402l0,0c-14.42,4.807-25.391,16.653-29.076,31.402l-1.801,7.205l-1.801-7.205
				C519.451,201.928,508.479,190.082,494.06,185.275z"/>
			<rect x="463.182" y="0.011" style="fill:#F5AE45;" width="20.585" height="20.585"/>
			<rect x="596.984" y="123.52" style="fill:#F5AE45;" width="20.585" height="20.585"/>
			<polygon style="fill:#A8B2BF;" points="240.474,452.879 251.251,473.464 274.491,473.464 263.704,452.879 			"/>
			<polygon style="fill:#A8B2BF;" points="169.107,452.879 158.33,473.464 181.56,473.464 192.347,452.879 			"/>
			<rect x="206.705" y="452.879" style="fill:#A8B2BF;" width="20.585" height="20.585"/>
			<path d="M263.704,452.879h14.214v-20.585h-51.462v-36.096l2.058-1.194l26.832-15.439l0,0l89.472-51.359
				c4.899-2.82,6.618-9.057,3.839-13.977l-40.707-72.253c-2.789-4.951-9.068-6.7-14.018-3.911c-0.021,0.01-0.051,0.031-0.072,0.041
				l-116.305,66.798l-26.832,15.439l0,0l-17.816,10.241l-10.292-18.187l17.981-10.292l-10.292-17.847l-53.665,30.877l10.292,17.857
				l17.837-10.292l10.292,18.187l-44.762,25.731l-15.243-27.162c-2.779-4.961-9.047-6.731-14.008-3.963
				c-0.031,0.021-0.051,0.031-0.082,0.051L5.169,356.13c-4.899,2.82-6.618,9.057-3.839,13.977l20.348,36.126l20.358,36.126
				c1.822,3.232,5.249,5.239,8.965,5.239h0.556l39.564-2.151l7.04,12.495c1.348,2.388,3.602,4.148,6.248,4.868
				c0.885,0.247,1.801,0.371,2.717,0.371c1.801,0,3.582-0.473,5.146-1.369l42.137-24.218v15.284h14.698L93.684,596.973H0.022v20.585
				h617.547v-20.585h-278.39L263.704,452.879z M200.457,387.398l-30.61-54.313l26.235-15.037l9.572-5.506l30.61,54.313
				l-26.277,15.006L200.457,387.398z M254.112,356.572l-30.599-54.313l26.863-15.439l30.63,54.313L254.112,356.572z M295.096,261.13
				l30.599,54.303l-26.874,15.439l-30.599-54.303L295.096,261.13z M42.221,358.6l10.292,18.187l-17.919,10.292l-10.292-18.197
				L42.221,358.6z M56.857,426.684L44.65,405.07l3.911-2.244l14.018-8.059l17.302,30.713L56.857,426.684z M111.026,438.778
				l-30.61-54.303l71.584-41.17l30.599,54.313L111.026,438.778z M205.871,408.024v24.27h-42.199L205.871,408.024z M116.862,596.973
				l75.485-144.094h14.358v144.094H116.862z M227.29,596.973V452.879h13.185L316,596.973H227.29z"/>
			<path d="M599.135,41.181c-10.55-3.87-18.506-12.701-21.244-23.601l-1.492-5.98V0.011h-20.585V11.6l-1.492,5.98
				c-2.738,10.9-10.694,19.731-21.244,23.601h-18.434v20.585h18.434c10.55,3.87,18.506,12.701,21.244,23.601l1.492,5.98v11.589
				h20.585V91.346l1.492-5.98c2.738-10.9,10.694-19.731,21.244-23.601h18.434V41.181C617.569,41.181,599.135,41.181,599.135,41.181z
				 M566.107,62.311c-2.82-4.045-6.175-7.688-9.973-10.838c3.798-3.149,7.153-6.793,9.973-10.838
				c2.82,4.045,6.175,7.688,9.973,10.838C572.282,54.623,568.927,58.266,566.107,62.311z"/>
			<path d="M430.813,136.829l1.492,5.98v11.589h20.585v-11.589l1.492-5.98c2.738-10.9,10.694-19.731,21.244-23.601h18.434V92.643
				h-18.434c-10.55-3.87-18.506-12.701-21.244-23.601l-1.492-5.98V51.473h-20.585v11.589l-1.492,5.98
				c-2.738,10.9-10.694,19.731-21.244,23.601h-18.434v20.585h18.434C420.119,117.098,428.075,125.929,430.813,136.829z
				 M442.597,92.098c2.82,4.045,6.175,7.688,9.973,10.838c-3.798,3.149-7.153,6.793-9.973,10.838
				c-2.82-4.045-6.175-7.688-9.973-10.838C436.422,99.786,439.777,96.143,442.597,92.098z"/>
			<path d="M473.475,174.983v20.585h18.434c10.55,3.87,18.506,12.701,21.244,23.601l1.492,5.98v11.589h20.585v-11.589l1.492-5.98
				c2.738-10.9,10.694-19.731,21.244-23.601h18.434v-20.585h-18.434c-10.55-3.87-18.506-12.701-21.244-23.601l-1.492-5.98v-11.589
				h-20.585v11.589l-1.492,5.98c-2.738,10.9-10.694,19.731-21.244,23.601H473.475z M524.937,174.437
				c2.82,4.045,6.175,7.688,9.973,10.838c-3.798,3.149-7.153,6.793-9.973,10.838c-2.82-4.045-6.175-7.688-9.973-10.838
				C518.761,182.126,522.117,178.482,524.937,174.437z"/>
			<rect x="463.182" y="0.011" width="20.585" height="20.585"/>
			<rect x="596.984" y="123.52" width="20.585" height="20.585"/>
		</g>
	</g>
</g>
<g>
</g>
<g>
</g>
<g>
</g>
<g>
</g>
<g>
</g>
<g>
</g>
<g>
</g>
<g>
</g>
<g>
</g>
<g>
</g>
<g>
</g>
<g>
</g>
<g>
</g>
<g>
</g>
<g>
</g>
</svg>
