<?xml version="1.0" encoding="iso-8859-1"?>
<!-- Generator: Adobe Illustrator 21.0.0, SVG Export Plug-In . SVG Version: 6.00 Build 0)  -->
<svg version="1.1" id="Capa_1" xmlns="http://www.w3.org/2000/svg" xmlns:xlink="http://www.w3.org/1999/xlink" x="0px" y="0px"
	 viewBox="0 0 615.21 615.21" style="enable-background:new 0 0 615.21 615.21;" xml:space="preserve">
<g>
	<g>
		<g id="filled_outline_6_">
			<path style="fill:#E36295;" d="M113.34,206.33c5.692-27.45,12.495-57.38,36.26-74.229c20.976-14.821,46.429-14.821,70.38-20.698
				c51.153-12.608,90.079-83.431,146.266-68.105l10.611,2.892c34.706,9.469,90.625,14.337,125.136,4.189l7.863-1.966
				c22.139-5.537,43.609-13.473,64.019-23.673c9.273-5.599,19.175-10.066,29.508-13.308c-2.45,27.923-24.033,59.531-31.402,87.722
				c-9.809,34.325-10.416,70.616-1.781,105.251c9.541,34.994-0.165,66.016-20.585,95.123
				c-20.791,27.409-35.982,58.646-44.721,91.922c-8.038,35.303-13.133,67.024-41.54,92.797
				c-34.202,31.021-74.291,24.362-114.493,38.998c-22.921,8.347-40.984,28.51-64.112,37.31
				c-71.44,27.172-153.357-26.935-224.19,15.531c-15.871,10.807-32.709,20.111-50.309,27.79
				c12.845-32.833,29.972-61.261,36.281-97.14c9.85-56.032-11.126-109.512-3.901-164.741c3.283-25.114,21.738-41.54,37.526-59.151
				c16.097-18.66,26.771-41.365,30.877-65.666C111.838,213.596,112.579,209.983,113.34,206.33z"/>
			<path style="fill:#2A90DE;" d="M181.075,271.079c7.658-58.852,61.292-100.557,120.216-93.466
				c18.701,1.379,37.248-4.282,51.987-15.871c11.723-9.551,24.537-17.693,38.175-24.239c25.597-10.076,54.746-3.469,73.488,16.663
				c14.78,16.087,20.07,38.73,13.936,59.696c-10.961,34.346-16.756,70.133-17.188,106.177c-1.75,54.673-47.5,97.572-102.163,95.823
				c-1.698-0.051-3.397-0.154-5.084-0.298c-15.789-1.194-31.495,3.252-44.319,12.547l-37.197,27.11
				c-35.375,25.638-84.038,22.273-115.553-7.987c-30.569-29.282-34.614-76.71-9.438-110.726l15.861-21.614
				C173.273,302.039,179.232,286.94,181.075,271.079z"/>
			<rect x="491.701" y="256.227" style="fill:#69CCD7;" width="20.585" height="20.585"/>
			<rect x="203.512" y="19.501" style="fill:#69CCD7;" width="20.585" height="20.585"/>
			<rect x="38.833" y="60.671" style="fill:#69CCD7;" width="20.585" height="20.585"/>
			<rect x="193.22" y="400.322" style="fill:#69CCD7;" width="20.585" height="20.585"/>
			<rect x="69.711" y="390.029" style="fill:#69CCD7;" width="20.585" height="20.585"/>
			<rect x="28.541" y="225.35" style="fill:#69CCD7;" width="20.585" height="20.585"/>
			<rect x="131.465" y="492.953" style="fill:#69CCD7;" width="20.585" height="20.585"/>
			<rect x="471.116" y="534.123" style="fill:#69CCD7;" width="20.585" height="20.585"/>
			<rect x="491.701" y="101.841" style="fill:#69CCD7;" width="20.585" height="20.585"/>
			<rect x="594.625" y="143.01" style="fill:#69CCD7;" width="20.585" height="20.585"/>
			<rect x="368.191" y="575.293" style="fill:#69CCD7;" width="20.585" height="20.585"/>
			<rect x="532.87" y="431.199" style="fill:#69CCD7;" width="20.585" height="20.585"/>
			<path style="fill:#2379BA;" d="M257.033,280.013c14.132-30.105,43.897-49.785,77.132-50.999
				c24.589-1.307,53.922,3.036,57.957,32.617c2.964,21.758-9.716,44.258-21.233,61.755c-17.95,27.306-50.433,36.888-80.343,44.752
				c-11.219,3.829-23.518,2.82-33.965-2.769C229.161,347.542,245.629,302.348,257.033,280.013z"/>
			<path d="M13.483,570.332c-4.302,9.562-8.749,19.442-12.773,29.735c-2.069,5.29,0.535,11.26,5.836,13.339
				c2.244,0.875,4.724,0.937,7.009,0.175c13.401-5.146,26.163-11.836,38.01-19.947c4.786-3.005,9.5-5.959,14.327-8.718
				c35.385-21.233,74.167-16.19,115.203-10.838c35.56,4.632,72.325,9.438,107.35-3.901c12.135-5.156,23.59-11.816,34.078-19.803
				c9.181-7.091,19.226-12.968,29.9-17.497c13.267-4.415,26.904-7.668,40.738-9.706c25.988-4.58,52.872-9.325,77.193-31.33
				c28.551-25.906,35.457-56.917,42.775-89.75l1.883-8.399c8.502-31.958,23.148-61.95,43.125-88.299
				c24.321-34.758,31.536-68.723,21.995-103.717c-8.203-32.895-7.575-67.364,1.822-99.94c3.633-12.094,8.244-23.878,13.771-35.241
				c8.862-16.983,14.914-35.282,17.909-54.2c0.504-5.661-3.685-10.653-9.346-11.157c-1.04-0.093-2.079-0.021-3.098,0.196
				c-8.821,2.357-17.271,5.928-25.114,10.601c-2.285,1.225-4.56,2.439-6.814,3.561c-19.741,9.87-40.501,17.549-61.909,22.911
				l-8.234,2.058c-31.289,9.201-85.335,5.064-119.526-4.24l-10.612-2.892c-38.442-10.395-68.362,12.927-97.284,35.571
				c-18.321,14.337-35.622,27.893-54.19,32.462c-6.443,1.585-12.979,2.717-19.916,3.911c-19.154,1.884-37.619,8.172-53.943,18.382
				c-27.79,19.689-35.066,54.848-40.398,80.528l-0.134,0.659l-2.058,10.076c-3.705,22.551-13.565,43.64-28.489,60.952
				c-2.161,2.408-4.354,4.807-6.587,7.205c-14.214,15.346-30.239,32.658-33.512,57.545c-2.501,26.946-1.667,54.107,2.48,80.847
				c4.56,27.594,5.064,55.713,1.482,83.451C31.598,527.608,23.889,549.593,13.483,570.332z M55.404,419.105
				c-3.952-25.072-4.807-50.546-2.532-75.824c2.408-18.362,14.914-31.907,28.181-46.182c2.285-2.48,4.57-4.94,6.803-7.431
				c17.394-19.936,28.922-44.299,33.317-70.39l2.141-10.292l0.134-0.628c4.889-23.57,10.982-52.913,32.133-67.93
				c13.874-8.316,29.447-13.411,45.554-14.883c6.968-1.215,14.183-2.45,21.336-4.22c22.849-5.62,42.724-21.182,61.94-36.229
				c26.081-20.41,50.67-39.698,79.169-31.907l10.612,2.902c36.425,9.932,94.618,14.749,130.333,4.23l7.853-1.966
				c22.859-5.702,45.029-13.905,66.098-24.445c2.408-1.204,4.848-2.511,7.318-3.829l3.376-1.801
				c-3.551,10.128-7.627,20.06-12.217,29.766c-6.011,12.402-10.992,25.278-14.924,38.483c-10.313,36.054-10.92,74.198-1.76,110.561
				c7.946,29.128,1.894,56.608-19.041,86.518c-21.552,28.5-37.279,60.962-46.316,95.534l-1.914,8.481
				c-6.875,30.877-12.804,57.463-36.518,78.974c-19.875,18.022-41.664,21.871-66.901,26.318
				c-15.027,2.223-29.817,5.774-44.206,10.622c-12.382,5.095-24.033,11.795-34.655,19.936c-9.119,6.999-19.051,12.855-29.591,17.435
				c-30.208,11.486-62.846,7.205-97.367,2.717c-42.703-5.558-86.909-11.322-128.275,13.493c-4.868,2.779-9.829,5.887-14.852,9.047
				c-3.304,2.058-6.659,4.168-10.004,6.175l1.626-3.602c11.116-22.293,19.329-45.925,24.455-70.308
				C60.653,478.75,60.211,448.655,55.404,419.105z"/>
			<path d="M219.98,482.496c21.172,0.072,41.818-6.577,58.965-18.99l37.187-27.1c10.859-7.843,24.146-11.6,37.506-10.591
				c30.651,2.182,60.859-8.285,83.585-28.973c21.758-19.597,34.346-47.397,34.727-76.679c0.463-35.108,6.114-69.958,16.777-103.418
				c7.236-24.403,1.081-50.814-16.2-69.505c-21.573-23.302-55.24-30.97-84.779-19.319c-11.517,5.064-22.314,11.61-32.133,19.473
				c-2.717,1.997-5.434,3.983-8.234,5.918c-12.701,10.169-28.747,15.192-44.978,14.07c-64.544-7.647-123.211,38.082-131.548,102.533
				c-1.647,14.09-6.937,27.512-15.346,38.936l-15.871,21.614c-28.325,38.103-23.806,91.356,10.539,124.137
				C168.94,472.616,193.971,482.62,219.98,482.496z M156.219,342.684l15.871-21.614c10.55-14.317,17.168-31.145,19.206-48.807
				c6.392-49.043,48.457-85.561,97.912-84.995c3.674,0,7.349,0.196,11.003,0.587c21.192,1.719,42.25-4.601,59.007-17.682
				c2.861-2.059,5.712-4.117,8.543-6.175c8.409-6.772,17.641-12.444,27.491-16.869c21.604-8.594,46.275-3.016,62.084,14.029
				c12.413,13.37,16.859,32.287,11.723,49.785c-11.219,35.241-17.158,71.954-17.621,108.945
				c-0.34,23.59-10.498,45.976-28.047,61.755c-18.496,16.921-43.146,25.484-68.157,23.673c-18.228-1.4-36.363,3.736-51.143,14.492
				l-37.197,27.09c-31.361,22.54-74.332,19.597-102.317-7.03C137.661,414.227,134.069,372.542,156.219,342.684z"/>
			<rect x="491.701" y="256.227" width="20.585" height="20.585"/>
			<rect x="203.512" y="19.501" width="20.585" height="20.585"/>
			<rect x="38.833" y="60.671" width="20.585" height="20.585"/>
			<rect x="193.22" y="400.322" width="20.585" height="20.585"/>
			<rect x="69.711" y="390.029" width="20.585" height="20.585"/>
			<rect x="28.541" y="225.35" width="20.585" height="20.585"/>
			<rect x="131.465" y="492.953" width="20.585" height="20.585"/>
			<rect x="471.116" y="534.123" width="20.585" height="20.585"/>
			<rect x="491.701" y="101.841" width="20.585" height="20.585"/>
			<rect x="594.625" y="143.01" width="20.585" height="20.585"/>
			<rect x="368.191" y="575.293" width="20.585" height="20.585"/>
			<rect x="532.87" y="431.199" width="20.585" height="20.585"/>
			<path d="M250.858,373.983c7.225,4.518,15.614,6.824,24.136,6.608c6.124-0.062,12.207-0.906,18.115-2.511
				c34.48-9.088,67.014-19.669,86.323-49.054c12.413-18.897,26.235-43.784,22.829-68.784c-2.285-16.735-14.193-44.391-68.702-41.52
				c-36.888,1.441-69.937,23.251-85.757,56.608C239.155,292.385,213.805,349.806,250.858,373.983z M266.152,284.686
				c12.474-26.812,38.936-44.35,68.486-45.4c2.429-0.124,4.714-0.185,6.886-0.185c37.053,0,39.502,17.827,40.326,23.909
				c2.491,18.249-9.171,38.823-19.628,54.715c-15.325,23.323-42.734,32.123-74.363,40.449c-8.43,2.954-17.682,2.439-25.731-1.431
				C238.321,341.233,263.208,290.419,266.152,284.686L266.152,284.686z"/>
		</g>
	</g>
</g>
<g>
</g>
<g>
</g>
<g>
</g>
<g>
</g>
<g>
</g>
<g>
</g>
<g>
</g>
<g>
</g>
<g>
</g>
<g>
</g>
<g>
</g>
<g>
</g>
<g>
</g>
<g>
</g>
<g>
</g>
</svg>
