<?xml version="1.0" encoding="iso-8859-1"?>
<!-- Generator: Adobe Illustrator 21.0.0, SVG Export Plug-In . SVG Version: 6.00 Build 0)  -->
<svg version="1.1" id="Capa_1" xmlns="http://www.w3.org/2000/svg" xmlns:xlink="http://www.w3.org/1999/xlink" x="0px" y="0px"
	 viewBox="0 0 617.547 617.547" style="enable-background:new 0 0 617.547 617.547;" xml:space="preserve">
<g>
	<g>
		<g id="filled_outline_7_">
			<circle style="fill:#FABC5F;" cx="216.141" cy="313.92" r="205.849"/>
			<circle style="fill:#634129;" cx="401.405" cy="313.92" r="205.849"/>
			<rect x="20.585" y="138.948" style="fill:#FABC5F;" width="20.585" height="20.585"/>
			<rect x="164.679" y="5.146" style="fill:#FABC5F;" width="20.585" height="20.585"/>
			<rect x="432.283" y="36.024" style="fill:#FABC5F;" width="20.585" height="20.585"/>
			<rect x="401.405" y="571.231" style="fill:#FABC5F;" width="20.585" height="20.585"/>
			<rect x="133.802" y="591.815" style="fill:#FABC5F;" width="20.585" height="20.585"/>
			<rect x="51.462" y="530.061" style="fill:#FABC5F;" width="20.585" height="20.585"/>
			<path style="fill:#FABC5F;" d="M535.207,87.486L535.207,87.486c14.42-4.807,25.391-16.653,29.076-31.402l1.801-7.194l1.801,7.205
				c3.685,14.749,14.656,26.585,29.076,31.392l0,0c-14.42,4.807-25.391,16.653-29.076,31.402l-1.801,7.205l-1.801-7.205
				C560.599,104.139,549.627,92.292,535.207,87.486z"/>
			<path style="fill:#FABC5F;" d="M504.33,560.938L504.33,560.938c14.42-4.807,25.391-16.653,29.076-31.402l1.801-7.205l1.801,7.205
				c3.685,14.749,14.656,26.596,29.076,31.402l0,0c-14.42,4.807-25.391,16.653-29.076,31.402l-1.801,7.205l-1.801-7.205
				C529.721,577.591,518.749,565.745,504.33,560.938z"/>
			<path style="fill:#FABC5F;" d="M20.585,56.608L20.585,56.608c14.42-4.807,25.391-16.653,29.076-31.402l1.801-7.194l1.801,7.205
				C56.948,39.966,67.92,51.802,82.34,56.608l0,0c-14.42,4.807-25.391,16.653-29.076,31.402l-1.801,7.194L49.661,88
				C45.976,73.251,35.005,61.415,20.585,56.608z"/>
			<path d="M401.405,97.778c-32.071-0.01-63.731,7.215-92.632,21.12c-28.901-13.905-60.561-21.13-92.632-21.12
				C96.77,97.778,0,194.548,0,313.92s96.77,216.141,216.141,216.141c32.071,0.01,63.731-7.215,92.632-21.12
				c28.901,13.905,60.561,21.13,92.632,21.12c119.372,0,216.141-96.77,216.141-216.141S520.777,97.778,401.405,97.778
				L401.405,97.778z M216.141,509.476c-107.999,0-195.556-87.558-195.556-195.556s87.558-195.556,195.556-195.556
				c23.878-0.031,47.561,4.374,69.824,13.01c-1.513,0.947-2.944,1.997-4.426,2.985c-1.739,1.163-3.489,2.305-5.146,3.51
				c-2.326,1.647-4.58,3.366-6.824,5.084c-1.554,1.194-3.088,2.347-4.642,3.582c-2.388,1.935-4.683,3.963-6.978,5.99
				c-1.276,1.122-2.583,2.203-3.829,3.355c-2.851,2.645-5.599,5.393-8.234,8.172c-0.597,0.618-1.235,1.194-1.832,1.822
				c-3.242,3.427-6.371,6.968-9.376,10.601c-0.865,1.029-1.657,2.151-2.501,3.211c-2.059,2.625-4.117,5.259-6.124,7.977
				c-1.029,1.441-2.059,2.933-3.016,4.405c-1.657,2.419-3.304,4.827-4.858,7.297c-1.029,1.647-1.976,3.324-2.964,4.992
				c-1.41,2.378-2.8,4.776-4.117,7.205c-0.957,1.76-1.853,3.561-2.748,5.352c-1.215,2.419-2.408,4.848-3.53,7.308
				c-0.854,1.863-1.657,3.746-2.45,5.63c-1.029,2.47-2.058,4.951-2.995,7.462c-0.731,1.935-1.431,3.86-2.059,5.805
				c-0.885,2.563-1.698,5.146-2.491,7.73c-0.587,1.956-1.184,3.911-1.719,5.887c-0.731,2.666-1.379,5.362-2.058,8.069
				c-0.443,1.945-0.916,3.88-1.317,5.836c-0.576,2.851-1.029,5.723-1.503,8.594c-0.298,1.873-0.648,3.726-0.895,5.599
				c-0.432,3.211-0.731,6.443-1.029,9.685c-0.134,1.585-0.34,3.15-0.453,4.745c-0.401,4.858-0.587,9.747-0.587,14.656
				s0.185,9.798,0.504,14.646c0.113,1.595,0.319,3.16,0.453,4.745c0.288,3.242,0.587,6.474,1.029,9.685
				c0.247,1.873,0.597,3.726,0.895,5.599c0.463,2.872,0.926,5.743,1.503,8.594c0.401,1.956,0.875,3.891,1.317,5.836
				c0.628,2.707,1.276,5.404,2.058,8.069c0.535,1.976,1.132,3.932,1.719,5.887c0.793,2.594,1.606,5.146,2.491,7.73
				c0.679,1.945,1.379,3.87,2.058,5.805c0.947,2.511,1.945,4.992,2.995,7.462c0.793,1.884,1.595,3.767,2.45,5.63
				c1.122,2.46,2.316,4.889,3.53,7.308c0.895,1.791,1.791,3.592,2.748,5.352c1.307,2.439,2.697,4.837,4.117,7.205
				c1.029,1.667,1.945,3.345,2.964,4.992c1.554,2.47,3.201,4.879,4.858,7.297c1.029,1.472,1.966,2.964,3.016,4.405
				c1.956,2.717,4.035,5.352,6.124,7.977c0.844,1.029,1.637,2.161,2.501,3.211c3.005,3.623,6.134,7.153,9.376,10.601
				c0.597,0.628,1.235,1.204,1.832,1.822c2.686,2.779,5.434,5.527,8.234,8.172c1.245,1.153,2.553,2.233,3.829,3.355
				c2.295,2.058,4.59,4.055,6.978,5.99c1.513,1.235,3.088,2.388,4.642,3.582c2.244,1.719,4.498,3.438,6.824,5.084
				c1.709,1.204,3.458,2.347,5.146,3.51c1.482,1.029,2.913,2.059,4.426,2.985C263.641,505.081,239.999,509.497,216.141,509.476z
				 M401.405,509.476c-107.937,0.062-195.495-87.393-195.546-195.34c-0.041-73.879,41.571-141.459,107.556-174.673
				c27.244-13.895,57.401-21.13,87.99-21.1c107.999,0,195.556,87.558,195.556,195.556S509.404,509.476,401.405,509.476z"/>
			<rect x="20.585" y="138.948" width="20.585" height="20.585"/>
			<rect x="164.679" y="5.146" width="20.585" height="20.585"/>
			<rect x="432.283" y="36.024" width="20.585" height="20.585"/>
			<rect x="401.405" y="571.231" width="20.585" height="20.585"/>
			<rect x="133.802" y="591.815" width="20.585" height="20.585"/>
			<rect x="51.462" y="530.061" width="20.585" height="20.585"/>
			<path d="M0,46.316v20.585h18.434c10.55,3.87,18.506,12.701,21.244,23.601l1.492,5.98v11.589h20.585V96.481l1.492-5.98
				c2.738-10.9,10.694-19.731,21.244-23.601h18.434V46.316H84.491c-10.55-3.87-18.506-12.701-21.244-23.601l-1.492-5.98V5.146H41.17
				v11.589l-1.492,5.98c-2.738,10.9-10.694,19.731-21.244,23.601H0z M51.462,45.77c2.82,4.045,6.175,7.688,9.973,10.838
				c-3.798,3.149-7.153,6.793-9.973,10.838c-2.82-4.045-6.175-7.688-9.973-10.838C45.287,53.459,48.642,49.815,51.462,45.77z"/>
			<path d="M514.622,77.193v20.585h18.434c10.55,3.87,18.506,12.701,21.244,23.601l1.492,5.98v11.589h20.585v-11.589l1.492-5.98
				c2.738-10.9,10.694-19.731,21.244-23.601h18.434V77.193h-18.434c-10.55-3.87-18.506-12.701-21.244-23.601l-1.492-5.98V36.024
				h-20.585v11.589l-1.492,5.98c-2.738,10.9-10.694,19.731-21.244,23.601H514.622z M566.084,76.648
				c2.82,4.045,6.175,7.688,9.973,10.838c-3.798,3.149-7.153,6.793-9.973,10.838c-2.82-4.045-6.175-7.688-9.973-10.838
				C559.909,84.336,563.264,80.693,566.084,76.648z"/>
			<path d="M483.745,550.646v20.585h18.434c10.55,3.87,18.506,12.701,21.244,23.601l1.492,5.98V612.4H545.5v-11.589l1.492-5.98
				c2.738-10.9,10.694-19.731,21.244-23.601h18.434v-20.585h-18.434c-10.55-3.87-18.506-12.701-21.244-23.601l-1.492-5.98v-11.589
				h-20.585v11.589l-1.492,5.98c-2.738,10.9-10.694,19.731-21.244,23.601H483.745z M535.207,550.1
				c2.82,4.045,6.175,7.688,9.973,10.838c-3.798,3.149-7.153,6.793-9.973,10.838c-2.82-4.045-6.175-7.688-9.973-10.838
				C529.032,557.789,532.387,554.145,535.207,550.1z"/>
		</g>
	</g>
</g>
<g>
</g>
<g>
</g>
<g>
</g>
<g>
</g>
<g>
</g>
<g>
</g>
<g>
</g>
<g>
</g>
<g>
</g>
<g>
</g>
<g>
</g>
<g>
</g>
<g>
</g>
<g>
</g>
<g>
</g>
</svg>
