<?xml version="1.0" encoding="iso-8859-1"?>
<!-- Generator: Adobe Illustrator 21.0.0, SVG Export Plug-In . SVG Version: 6.00 Build 0)  -->
<svg version="1.1" id="Capa_1" xmlns="http://www.w3.org/2000/svg" xmlns:xlink="http://www.w3.org/1999/xlink" x="0px" y="0px"
	 viewBox="0 0 617.547 617.547" style="enable-background:new 0 0 617.547 617.547;" xml:space="preserve">
<g>
	<g>
		<g id="filled_outline_8_">
			<path style="fill:#F06529;" d="M356.335,333.253L356.335,333.253c-8.522-8.532-8.522-22.345,0-30.877L600.863,57.847
				c4.096-4.096,6.392-9.644,6.392-15.439V32.116c0-12.052-9.768-21.82-21.83-21.83h-10.292c-5.795,0-11.342,2.295-15.439,6.392
				L437.429,138.942c-8.532,8.522-22.345,8.522-30.877,0l0,0c-8.522-8.532-8.522-22.345,0-30.877l60.509-60.509
				c8.522-8.522,8.532-22.345,0-30.877c-4.086-4.086-9.644-6.392-15.439-6.392l0,0c-5.795,0-11.342,2.295-15.439,6.392
				L46.717,406.144c-20.688,20.122-33.481,46.975-36.085,75.711c-4.94,64.132,43.053,120.113,107.175,125.053
				c5.949,0.453,11.929,0.453,17.878,0c28.736-2.604,55.589-15.397,75.711-36.085l389.466-389.466
				c4.096-4.096,6.392-9.644,6.392-15.439l0,0c0-12.052-9.768-21.83-21.83-21.83c-5.795,0-11.353,2.295-15.439,6.392
				L387.212,333.253C378.69,341.775,364.867,341.775,356.335,333.253z"/>
			<circle style="fill:#FABC5F;" cx="128.656" cy="488.885" r="77.193"/>
			<path style="fill:#D44A0F;" d="M154.387,380.814c-5.681,0-10.292-4.611-10.292-10.292c0-2.727,1.081-5.342,3.016-7.277
				l144.094-144.094c4.086-3.952,10.601-3.839,14.553,0.257c3.849,3.993,3.849,10.313,0,14.296L161.663,377.798
				C159.739,379.733,157.124,380.814,154.387,380.814z"/>
			<path style="fill:#D44A0F;" d="M329.358,205.842c-5.681,0-10.292-4.611-10.292-10.292c0-2.727,1.081-5.342,3.016-7.277
				l20.585-20.585c4.086-3.952,10.601-3.839,14.554,0.257c3.849,3.993,3.849,10.313,0,14.296l-20.585,20.585
				C334.71,204.762,332.096,205.842,329.358,205.842z"/>
			<path style="fill:#D44A0F;" d="M226.434,401.399c-5.681,0-10.292-4.611-10.292-10.292c0-2.728,1.081-5.342,3.016-7.277
				l51.462-51.462c4.086-3.952,10.601-3.839,14.553,0.257c3.849,3.993,3.849,10.313,0,14.296l-51.462,51.462
				C231.786,400.318,229.172,401.399,226.434,401.399z"/>
			<path style="fill:#D44A0F;" d="M247.019,463.153c-5.681,0-10.292-4.611-10.292-10.292c0-2.728,1.081-5.342,3.016-7.277
				l41.17-41.17c4.086-3.952,10.601-3.839,14.553,0.257c3.849,3.993,3.849,10.313,0,14.296l-41.17,41.17
				C252.371,462.073,249.756,463.153,247.019,463.153z"/>
			<path d="M128.656,576.37c-48.313,0-87.486-39.163-87.486-87.486s39.173-87.486,87.486-87.486s87.486,39.173,87.486,87.486
				C216.09,537.177,176.958,576.319,128.656,576.37z M128.656,421.984c-36.94,0-66.901,29.951-66.901,66.901
				s29.951,66.901,66.901,66.901s66.901-29.951,66.901-66.901C195.515,451.955,165.595,422.035,128.656,421.984z"/>
			<path d="M126.896,617.54C56.917,617.643,0.103,561.004,0,491.025c0-3.314,0.124-6.628,0.371-9.932
				c2.779-31.207,16.663-60.375,39.111-82.216L428.948,9.411c12.547-12.546,32.884-12.536,45.431,0.01
				c2.985,2.985,5.342,6.525,6.958,10.416c5.115,11.98,2.357,25.875-6.958,34.994l-60.509,60.509
				c-4.498,4.508-4.498,11.816,0,16.324c4.57,4.364,11.754,4.364,16.324,0L550.275,11.552c15.387-15.387,40.336-15.387,55.723,0
				c15.387,15.387,15.387,40.336,0,55.723L363.611,309.662c-4.508,4.508-4.508,11.816,0,16.324s11.816,4.508,16.324,0
				l182.773-182.773c12.547-12.546,32.884-12.546,45.431,0c6.021,6.021,9.407,14.193,9.407,22.715
				c0.021,8.522-3.366,16.705-9.407,22.715L218.673,578.11c-21.851,22.458-51.02,36.332-82.226,39.111
				C133.256,617.417,130.066,617.54,126.896,617.54z M451.622,20.578c-3.057,0-5.99,1.215-8.162,3.376L53.994,413.42
				c-18.948,18.372-30.692,42.919-33.1,69.196c-4.508,58.461,39.225,109.522,97.696,114.03c5.434,0.422,10.889,0.422,16.324,0
				c26.287-2.408,50.834-14.152,69.206-33.101L593.586,174.08c2.172-2.161,3.386-5.105,3.376-8.162
				c0-6.371-5.156-11.538-11.528-11.548c-3.067,0-6,1.215-8.172,3.386L394.489,340.529c-12.557,12.516-32.874,12.516-45.431,0l0,0
				c-12.526-12.557-12.526-32.874,0-45.431L591.445,52.711c7.503-7.194,7.76-19.113,0.576-26.616s-19.113-7.761-26.616-0.576
				c-0.196,0.185-0.381,0.381-0.576,0.576L444.706,146.218c-12.711,12.145-32.72,12.145-45.431,0
				c-12.547-12.526-12.557-32.853-0.031-45.4c0.01-0.01,0.021-0.021,0.031-0.031l60.509-60.509
				c4.508-4.508,4.508-11.805,0.01-16.314C457.633,21.793,454.689,20.578,451.622,20.578z"/>
			<path d="M154.387,380.814c-5.681,0-10.292-4.611-10.292-10.292c0-2.727,1.081-5.342,3.016-7.277l144.094-144.094
				c4.086-3.952,10.601-3.839,14.553,0.257c3.849,3.993,3.849,10.313,0,14.296L161.663,377.798
				C159.739,379.733,157.124,380.814,154.387,380.814z"/>
			<path d="M329.358,205.842c-5.681,0-10.292-4.611-10.292-10.292c0-2.727,1.081-5.342,3.016-7.277l20.585-20.585
				c4.086-3.952,10.601-3.839,14.554,0.257c3.849,3.993,3.849,10.313,0,14.296l-20.585,20.585
				C334.71,204.762,332.096,205.842,329.358,205.842z"/>
			<path d="M226.434,401.399c-5.681,0-10.292-4.611-10.292-10.292c0-2.728,1.081-5.342,3.016-7.277l51.462-51.462
				c4.086-3.952,10.601-3.839,14.553,0.257c3.849,3.993,3.849,10.313,0,14.296l-51.462,51.462
				C231.786,400.318,229.172,401.399,226.434,401.399z"/>
			<path d="M247.019,463.153c-5.681,0-10.292-4.611-10.292-10.292c0-2.728,1.081-5.342,3.016-7.277l41.17-41.17
				c4.086-3.952,10.601-3.839,14.553,0.257c3.849,3.993,3.849,10.313,0,14.296l-41.17,41.17
				C252.371,462.073,249.756,463.153,247.019,463.153z"/>
		</g>
	</g>
</g>
<g>
</g>
<g>
</g>
<g>
</g>
<g>
</g>
<g>
</g>
<g>
</g>
<g>
</g>
<g>
</g>
<g>
</g>
<g>
</g>
<g>
</g>
<g>
</g>
<g>
</g>
<g>
</g>
<g>
</g>
</svg>
