<?xml version="1.0" encoding="iso-8859-1"?>
<!-- Generator: Adobe Illustrator 21.0.0, SVG Export Plug-In . SVG Version: 6.00 Build 0)  -->
<svg version="1.1" id="Capa_1" xmlns="http://www.w3.org/2000/svg" xmlns:xlink="http://www.w3.org/1999/xlink" x="0px" y="0px"
	 viewBox="0 0 617.71 617.71" style="enable-background:new 0 0 617.71 617.71;" xml:space="preserve">
<g>
	<g>
		<g id="filled_outline_10_">
			<circle style="fill:#996E51;" cx="308.946" cy="308.895" r="298.481"/>
			<path style="fill:#AD7F5C;" d="M572.432,357.723c-29.581-51.123-94.999-68.599-146.132-39.019
				c-3.86,2.233-7.586,4.714-11.136,7.411l-24.702,18.743l-25.824-30.486c-37.403-44.165-103.521-49.651-147.686-12.248
				c-3.499,2.964-6.803,6.155-9.881,9.551l0,0c-28.006,30.918-35.015,75.505-17.827,113.526l2.182,4.837
				c10.57,23.405,25.186,44.762,43.167,63.093l109.923,112.033c108.801-13.092,201.701-84.717,242.027-186.612
				C588.015,397.318,583.095,376.136,572.432,357.723z"/>
			<path style="fill:#A3724D;" d="M404.665,591.598c31.598-10.694,61.168-26.616,87.486-47.119l0.093-0.072
				c15.634-12.176,30.013-25.875,42.94-40.892l0,0c21.758-25.247,39.122-53.963,51.39-84.954
				c3.376-48.148-26.03-92.55-71.677-108.225c-28.469,51.473-69.155,95.154-118.466,127.215
				c-48.189,30.023-101.782,50.32-157.763,59.758l105.848,107.885l0,0c20.348-2.419,40.398-6.937,59.82-13.483L404.665,591.598z"/>
			<path d="M308.946,617.668c127.173-0.154,241.275-78.151,287.602-196.586h0.175c0-0.165,0-0.34,0-0.515
				c61.683-158.987-17.209-337.87-176.196-399.542S82.656,38.235,20.984,197.222s17.209,337.87,176.196,399.542
				C232.823,610.598,270.72,617.679,308.946,617.668z M348.273,594.335l-106.331-108.41c-17.158-17.456-31.093-37.804-41.17-60.108
				l-2.192-4.848c-21.501-47.551-0.371-103.532,47.181-125.033c38.453-17.384,83.77-7.164,111.045,25.052l32.133,37.938
				l32.452-24.65c42.323-32.329,102.842-24.228,135.171,18.094c13.987,18.31,20.955,41.036,19.638,64.04
				C537.5,512.202,450.601,580.039,348.273,594.335z M308.946,20.707c159.049-0.124,288.075,128.707,288.199,287.746
				c0.021,21.264-2.326,42.467-6.978,63.227c-21.851-60.9-88.927-92.57-149.837-70.719c-11.239,4.035-21.799,9.757-31.31,16.983
				l-16.9,12.845l-19.556-23.034c-21.419-25.299-52.708-40.13-85.849-40.696c-33.183-0.762-65.038,13.02-87.208,37.722
				c-30.805,33.934-38.525,82.926-19.648,124.693l2.192,4.858c11.064,24.486,26.369,46.831,45.194,66.005l94.577,96.389
				c-4.271,0.196-8.563,0.329-12.876,0.329C149.794,595.406,22.116,465.052,23.763,305.9
				C25.389,149.064,152.12,22.333,308.946,20.707z"/>
		</g>
	</g>
</g>
<g>
</g>
<g>
</g>
<g>
</g>
<g>
</g>
<g>
</g>
<g>
</g>
<g>
</g>
<g>
</g>
<g>
</g>
<g>
</g>
<g>
</g>
<g>
</g>
<g>
</g>
<g>
</g>
<g>
</g>
</svg>
