<?xml version="1.0" encoding="iso-8859-1"?>
<!-- Generator: Adobe Illustrator 21.0.0, SVG Export Plug-In . SVG Version: 6.00 Build 0)  -->
<svg version="1.1" id="Capa_1" xmlns="http://www.w3.org/2000/svg" xmlns:xlink="http://www.w3.org/1999/xlink" x="0px" y="0px"
	 viewBox="0 0 617.547 617.547" style="enable-background:new 0 0 617.547 617.547;" xml:space="preserve">
<g>
	<g>
		<g id="filled_outline_12_">
			<polygon style="fill:#F09E26;" points="442.575,358.728 174.972,358.728 174.972,224.926 216.141,173.464 401.405,173.464 
				442.575,224.926 			"/>
			<rect x="174.972" y="358.728" style="fill:#F09E26;" width="267.604" height="92.632"/>
			<rect x="298.481" y="122.002" style="fill:#E38800;" width="20.585" height="51.462"/>
			<circle style="fill:#F09E26;" cx="308.773" cy="101.417" r="30.877"/>
			
				<rect x="325.096" y="60.246" transform="matrix(0.7071 -0.7071 0.7071 0.7071 49.6029 260.8284)" style="fill:#F09E26;" width="29.107" height="20.585"/>
			<circle style="fill:#F09E26;" cx="144.094" cy="245.511" r="30.877"/>
			<polygon style="fill:#FABC5F;" points="442.575,255.804 360.236,287.751 360.236,318.629 442.575,358.728 473.452,338.143 
				473.452,276.388 			"/>
			<path style="fill:#F5AE45;" d="M421.877,263.842l-61.641,23.909v30.877l38.864,18.918c14.893-20.853,22.901-45.832,22.89-71.46
				C421.99,265.334,421.887,264.593,421.877,263.842z"/>
			<circle style="fill:#FABC5F;" cx="308.773" cy="266.096" r="92.632"/>
			<path style="fill:#808B96;" d="M225.888,224.926c-11.25,22.407-12.835,48.447-4.364,72.047h174.498
				c8.471-23.601,6.886-49.64-4.364-72.047H225.888z"/>
			<path style="fill:#576573;" d="M217.582,282.132c0.906,5.043,2.223,10.015,3.942,14.842h174.498
				c7.946-22.016,7.061-46.254-2.47-67.632L217.582,282.132z"/>
			<polygon style="fill:#F09E26;" points="269.888,245.511 261.881,317.558 355.666,317.558 347.658,245.511 			"/>
			<polygon style="fill:#F5AE45;" points="257.311,358.728 360.236,358.728 355.666,317.558 261.881,317.558 			"/>
			<polygon style="fill:#F5AE45;" points="339.651,173.464 277.896,173.464 269.888,245.511 347.658,245.511 			"/>
			<path d="M524.266,385.972c-0.988-2.625-3.005-4.735-5.589-5.836l-54.55-23.395l15.068-10.045c2.851-1.914,4.56-5.126,4.549-8.563
				v-61.755c0-3.438-1.719-6.649-4.58-8.563l-26.297-17.518v-25.371c0-2.336-0.793-4.611-2.254-6.433l-41.17-51.462
				c-1.956-2.439-4.91-3.86-8.038-3.86h-82.34v-22.046c18.125-4.683,30.805-20.997,30.877-39.708
				c-0.031-7.328-2.048-14.502-5.836-20.78l13.113-13.113L342.666,52.97l-13.113,13.113c-6.278-3.788-13.452-5.805-20.78-5.846
				c-22.695-0.031-41.108,18.341-41.139,41.036c-0.021,18.763,12.67,35.159,30.846,39.842v22.046h-82.34
				c-3.129,0-6.083,1.42-8.038,3.86l-37.681,47.098c-7.339-6.278-16.674-9.747-26.328-9.788c-22.736,0-41.17,18.434-41.17,41.17
				s18.434,41.17,41.17,41.17c7.246-0.041,14.358-2.017,20.585-5.723v71.018l-65.81,28.201c-2.583,1.101-4.601,3.211-5.589,5.836
				L34.037,543.992H0v20.585h82.34v-20.585H56.022l16.694-44.494l104.057-37.845h66.52l55.188,45.997v36.343h-30.877v20.585h82.34
				v-20.585h-30.877v-36.343l55.188-45.997h66.52l104.057,37.845l16.694,44.494h-26.318v20.585h82.34v-20.585h-34.037
				L524.266,385.972z M82.216,474.137l25.186-67.148l47.5,40.717L82.216,474.137z M164.679,428.984l-42.508-36.435l42.508-18.218
				V428.984z M144.094,266.096c-11.373,0-20.585-9.212-20.585-20.585c0-11.373,9.212-20.585,20.585-20.585
				c11.373,0,20.585,9.212,20.585,20.585C164.679,256.884,155.467,266.096,144.094,266.096z M396.465,183.757l35.818,44.782v20.132
				l-21.151,7.925c-0.062-0.69,0-1.41-0.124-2.059l-0.381-2.491c-0.422-3.088-0.947-6.114-1.637-9.078l-0.494-1.925
				c-0.834-3.273-1.791-6.484-2.851-9.428l-0.36-1.029c-0.638-1.75-1.328-3.469-2.059-5.146c-0.731-1.678-1.513-3.376-2.347-5.074
				l0,0c-7.164-14.43-17.621-26.966-30.527-36.61C370.353,183.756,396.465,183.756,396.465,183.757z M380.82,339.347l18.156,9.088
				h-28.654C374.017,345.636,377.527,342.6,380.82,339.347z M366.802,324.392l-0.885-7.966l0,0l-1.029-9.16h14.976
				c-0.134,0.226-0.216,0.463-0.35,0.69c-0.813,1.359-1.76,2.625-2.645,3.942c-1.462,2.161-2.975,4.282-4.642,6.32
				s-3.499,4.24-5.445,6.175H366.802z M390.907,270.666v0.103c-0.257,4.343-0.854,8.656-1.791,12.907
				c-0.082,0.381-0.154,0.772-0.247,1.153c-0.124,0.535-0.35,1.029-0.484,1.554l-25.731,0.298l-5.723-51.462h28.119
				c0.134,0.35,0.278,0.69,0.412,1.029c0.268,0.7,0.546,1.379,0.823,2.141c0.895,2.501,1.667,5.043,2.316,7.627
				c0,0.062,0.391,1.513,0.401,1.564c0.556,2.388,0.957,4.827,1.297,7.205c0,0.124,0.185,1.235,0.206,1.338l0.113,0.71l0,0
				c0.34,3.077,0.504,6.165,0.494,9.263c0,1.554-0.134,3.088-0.226,4.57H390.907z M372.947,214.634h-18.362l-2.059-18.187
				C360.308,201.315,367.203,207.46,372.947,214.634z M288.188,101.417c0-11.373,9.212-20.585,20.585-20.585
				c11.373,0,20.585,9.212,20.585,20.585s-9.212,20.585-20.585,20.585C297.4,122.002,288.188,112.78,288.188,101.417z
				 M286.768,186.834c14.389-4.086,29.622-4.086,44.01,0l5.383,48.374h-54.776L286.768,186.834z M279.1,255.804h59.346l5.712,51.462
				h-70.771L279.1,255.804z M264.989,196.447l-2.028,18.187H244.6C250.333,207.47,257.218,201.315,264.989,196.447z
				 M229.141,286.681l-0.093-0.381c-0.473-1.811-0.885-3.654-1.225-5.486l-0.309-1.986l-0.226-1.564
				c-0.175-1.184-0.35-2.367-0.463-3.52c-0.237-2.501-0.391-5.074-0.391-7.647c0.01-3.335,0.237-6.669,0.669-9.973
				c0-0.093,0.185-1.173,0.196-1.266c0.35-2.439,0.751-4.879,1.307-7.266l0.401-1.523c0.7-2.83,1.564-5.62,2.573-8.357l0.062-0.165
				c0.288-0.782,0.618-1.554,0.926-2.326h28.109l-5.723,51.462H229.141z M252.669,307.266l-1.904,17.127
				c-5.115-5.115-9.551-10.869-13.185-17.127H252.669z M185.264,228.539l35.818-44.782h26.112
				c-12.866,9.613-23.302,22.118-30.455,36.497l-0.062,0.082c-0.473,0.957-0.895,1.945-1.338,2.923
				c-0.36,0.782-0.731,1.534-1.081,2.357l-0.175,0.34c-0.648,1.513-1.256,3.088-1.822,4.611v0.113
				c-0.093,0.237-0.175,0.422-0.268,0.669c-1.132,3.088-2.059,6.35-3.088,10.21l-0.34,1.338c-0.69,2.964-1.215,6.011-1.76,9.788
				l-0.257,1.781c-0.453,3.86-0.69,7.74-0.7,11.63c0,3.222,0.185,6.392,0.484,9.593c0.154,1.554,0.371,3.088,0.597,4.611
				l0.216,1.451c0.134,0.926,0.268,1.863,0.432,2.789c0.432,2.336,0.947,4.632,1.513,6.824l0.371,1.41
				c0.69,2.573,1.472,5.105,2.347,7.606l0,0c6.834,19.144,19.144,35.859,35.416,48.055h-61.961V228.539z M241.512,441.068h-56.248
				V369.02h104.283L241.512,441.068z M298.481,480.848l-23.034-19.195h23.034V480.848z M298.481,441.068h-32.236l32.236-48.375
				V441.068z M269.909,338.606l1.184-10.766h75.361l1.184,10.766C323.327,351.492,294.22,351.492,269.909,338.606z M319.066,480.848
				v-19.195H342.1L319.066,480.848z M319.066,441.068v-48.375l32.236,48.375H319.066z M432.283,441.068h-56.248L328,369.02h104.283
				V441.068z M394.386,323.116c0.556-0.844,1.029-1.75,1.523-2.604c1.204-1.925,2.378-3.87,3.458-5.867
				c0.741-1.389,1.441-2.8,2.12-4.22c0.916-1.914,1.75-3.849,2.553-5.815c0.494-1.225,1.029-2.429,1.472-3.664
				c0.062-0.185,0.154-0.35,0.216-0.535l0,0c0.875-2.501,1.657-5.033,2.378-7.688l0.319-1.245l0.062-0.298
				c0.154-0.607,0.268-1.225,0.412-1.832c0.371-1.585,0.751-3.17,1.029-4.786c0.165-0.916,0.298-1.853,0.432-2.779h-0.124
				c0.072-0.484,0.185-0.947,0.257-1.431h0.175c0.082-0.525,0.134-1.029,0.206-1.595l30.435-11.414l21.851,14.554v50.742
				l-21.326,14.214L394.386,323.116z M452.867,374.321l42.508,18.218l-42.508,36.446V374.321z M462.645,447.706l47.5-40.717
				l25.186,67.148L462.645,447.706z"/>
		</g>
	</g>
</g>
<g>
</g>
<g>
</g>
<g>
</g>
<g>
</g>
<g>
</g>
<g>
</g>
<g>
</g>
<g>
</g>
<g>
</g>
<g>
</g>
<g>
</g>
<g>
</g>
<g>
</g>
<g>
</g>
<g>
</g>
</svg>
