<?xml version="1.0" encoding="iso-8859-1"?>
<!-- Generator: Adobe Illustrator 21.0.0, SVG Export Plug-In . SVG Version: 6.00 Build 0)  -->
<svg version="1.1" id="Capa_1" xmlns="http://www.w3.org/2000/svg" xmlns:xlink="http://www.w3.org/1999/xlink" x="0px" y="0px"
	 viewBox="0 0 617.867 617.867" style="enable-background:new 0 0 617.867 617.867;" xml:space="preserve">
<g>
	<g>
		<g id="filled_outline_13_">
			<path style="fill:#F06529;" d="M319.226,0h-20.585c-85.263,0-154.387,69.124-154.387,154.387l0,0
				c0,5.681,4.611,10.292,10.292,10.292H463.32c5.681,0,10.292-4.611,10.292-10.292l0,0C473.613,69.124,404.489,0,319.226,0z"/>
			<path style="fill:#D0D7DF;" d="M370.688,421.99H247.179l-66.592,171.246c-2.059,5.301,0.566,11.26,5.867,13.318
				c1.184,0.463,2.45,0.7,3.726,0.7h237.508c5.681,0,10.292-4.611,10.292-10.292c0-1.276-0.237-2.532-0.7-3.726L370.688,421.99z"/>
			<polygon style="fill:#2A90DE;" points="360.396,524.915 257.472,524.915 278.056,463.16 339.811,463.16 			"/>
			<polygon style="fill:#C3C9D1;" points="370.688,421.99 247.179,421.99 257.472,380.82 360.396,380.82 			"/>
			<polygon style="fill:#2379BA;" points="343.671,474.739 293.495,524.915 360.396,524.915 			"/>
			<path d="M249.114,530.936c1.935,2.686,5.043,4.271,8.357,4.271h102.924c5.681,0,10.292-4.611,10.282-10.303
				c0-1.101-0.175-2.203-0.525-3.242l-20.585-61.755c-1.4-4.199-5.331-7.04-9.757-7.04h-61.755c-4.426,0-8.357,2.841-9.757,7.04
				l-20.585,61.755C246.664,524.801,247.179,528.249,249.114,530.936z M285.477,473.452h46.913l13.72,41.17h-74.353L285.477,473.452
				z"/>
			<rect x="257.472" y="555.792" width="20.585" height="20.585"/>
			<rect x="339.811" y="555.792" width="20.585" height="20.585"/>
			<rect x="298.641" y="555.792" width="20.585" height="20.585"/>
			<path d="M319.226,0h-20.585C213.42,0.093,144.347,69.165,144.255,154.387c0.051,2.048,0.731,4.035,1.945,5.692l-0.154,0.103
				L289.46,370.528h-31.989c-4.724,0-8.841,3.222-9.984,7.802l-10.128,40.573l-71.821,184.626
				c-2.058,5.301,0.566,11.26,5.867,13.318c1.184,0.463,2.45,0.7,3.726,0.7l0,0c96.574-0.247,239.69-0.484,263.487-0.144
				c0.7,0.329,1.462,0.484,2.233,0.463c1.256-0.052,2.511-0.216,3.736-0.494c5.589-1.05,9.263-6.422,8.224-12.011
				c-0.165-0.865-0.432-1.708-0.813-2.501c-2.995-7.205-52.327-134.43-71.543-184.039l-10.117-40.49
				c-1.142-4.57-5.239-7.781-9.943-7.802h-31.989l143.415-210.347l-0.154-0.103c1.215-1.657,1.894-3.644,1.945-5.692
				C473.51,69.165,404.448,0.093,319.226,0z M437.775,92.632h-60.622c-2.769-10.663-6.628-21.007-11.497-30.877h49.857
				C424.353,70.936,431.856,81.331,437.775,92.632z M390.429,41.17h-36.847c-4.693-6.762-9.901-13.154-15.572-19.113
				C356.629,24.64,374.497,31.155,390.429,41.17L390.429,41.17z M360.396,113.217c1.451,10.231,1.77,20.585,0.957,30.877H256.545
				c-0.823-10.292-0.515-20.647,0.926-30.877H360.396z M262.041,92.632c3.263-10.797,7.812-21.161,13.545-30.877h66.757
				c5.733,9.716,10.282,20.081,13.545,30.877H262.041z M308.934,23.251c6.731,5.383,12.958,11.383,18.588,17.919h-37.176
				C295.976,34.634,302.192,28.634,308.934,23.251z M279.868,22.057c-5.681,5.959-10.889,12.351-15.572,19.113h-36.847
				C243.371,31.155,261.239,24.64,279.868,22.057z M202.355,61.755h49.857c-4.879,9.87-8.728,20.214-11.497,30.877h-60.622
				C186.001,81.331,193.504,70.936,202.355,61.755z M171.478,113.217h65.295c-1.276,10.241-1.564,20.585-0.865,30.877h-70.678
				C166.075,133.586,168.164,123.221,171.478,113.217z M174.02,164.679h65.295l43.537,159.605L174.02,164.679z M265.51,391.113
				h12.546v20.585h-17.693L265.51,391.113z M339.811,391.113h12.547l5.146,20.585h-17.693V391.113z M363.638,432.283l58.142,149.786
				c2.295,5.877,4.22,10.817,5.867,14.976c-13.442-0.319-35.581-0.453-72.449-0.453c-37.557,0-90.45,0.144-165.008,0.329
				l64.029-164.679L363.638,432.283z M298.641,411.698v-20.585h20.585v20.585H298.641z M308.934,341.709l-48.282-177.03h96.564
				L308.934,341.709z M335.015,324.294l43.537-159.615h65.295L335.015,324.294z M382.01,144.094
				c0.7-10.292,0.412-20.636-0.865-30.877h65.295c3.304,10.004,5.404,20.369,6.247,30.877H382.01z"/>
		</g>
	</g>
</g>
<g>
</g>
<g>
</g>
<g>
</g>
<g>
</g>
<g>
</g>
<g>
</g>
<g>
</g>
<g>
</g>
<g>
</g>
<g>
</g>
<g>
</g>
<g>
</g>
<g>
</g>
<g>
</g>
<g>
</g>
</svg>
