<?xml version="1.0" encoding="iso-8859-1"?>
<!-- Generator: Adobe Illustrator 21.0.0, SVG Export Plug-In . SVG Version: 6.00 Build 0)  -->
<svg version="1.1" id="Capa_1" xmlns="http://www.w3.org/2000/svg" xmlns:xlink="http://www.w3.org/1999/xlink" x="0px" y="0px"
	 viewBox="0 0 617.543 617.543" style="enable-background:new 0 0 617.543 617.543;" xml:space="preserve">
<g>
	<g>
		<g id="filled_outline_15_">
			<rect x="504.326" y="344.55" style="fill:#A8B2BF;" width="82.34" height="102.924"/>
			<rect x="370.525" y="385.719" style="fill:#A8B2BF;" width="82.34" height="61.755"/>
			<path style="fill:#D0D7DF;" d="M481.148,274.201L481.148,274.201c-8.779-5.846-20.636-3.469-26.482,5.321
				c-0.432,0.648-0.823,1.328-1.184,2.028l-31.495,63h-51.462c-11.373,0-20.585,9.212-20.585,20.585l0,0
				c0,11.373,9.212,20.585,20.585,20.585h61.436c12.629,0,23.981-7.688,28.664-19.412l27.656-69.103
				C491.646,288.816,488.672,279.213,481.148,274.201z"/>
			<rect x="41.166" y="426.889" style="fill:#A8B2BF;" width="92.632" height="41.17"/>
			<rect x="133.798" y="447.474" style="fill:#A8B2BF;" width="473.452" height="41.17"/>
			<polygon style="fill:#A8B2BF;" points="288.185,354.842 247.015,354.842 236.723,313.672 288.185,303.38 			"/>
			<polygon style="fill:#F09E26;" points="10.289,231.333 30.874,169.578 82.336,118.116 144.091,97.531 113.214,200.455 			"/>
			<path style="fill:#F09E26;" d="M535.204,97.531L535.204,97.531c14.42-4.807,25.391-16.653,29.076-31.402l1.801-7.194l1.801,7.205
				c3.685,14.749,14.656,26.585,29.076,31.392l0,0c-14.42,4.807-25.391,16.653-29.076,31.402l-1.801,7.205l-1.801-7.205
				C560.585,114.184,549.623,102.338,535.204,97.531z"/>
			<path style="fill:#F09E26;" d="M411.694,148.993L411.694,148.993c14.42-4.807,25.391-16.653,29.076-31.402l1.801-7.194
				l1.801,7.205c3.685,14.749,14.656,26.585,29.076,31.392l0,0c-14.42,4.807-25.391,16.653-29.076,31.402l-1.801,7.205l-1.801-7.205
				C437.076,165.646,426.114,153.8,411.694,148.993z"/>
			<rect x="463.157" y="46.069" style="fill:#F09E26;" width="20.585" height="20.585"/>
			<rect x="524.911" y="179.87" style="fill:#F09E26;" width="20.585" height="20.585"/>
			<rect x="370.525" y="426.889" style="fill:#808B96;" width="82.34" height="20.585"/>
			<circle style="fill:#576573;" cx="164.676" cy="488.644" r="72.047"/>
			<circle style="fill:#576573;" cx="494.034" cy="488.644" r="72.047"/>
			<path d="M164.676,447.474c-22.736,0-41.17,18.434-41.17,41.17s18.434,41.17,41.17,41.17s41.17-18.434,41.17-41.17
				S187.412,447.474,164.676,447.474z M144.091,488.644c0-11.373,9.212-20.585,20.585-20.585c1.781,0.021,3.551,0.288,5.259,0.772
				l-25.072,25.072C144.369,492.195,144.111,490.424,144.091,488.644z M164.676,509.229c-1.781-0.021-3.551-0.288-5.259-0.772
				l25.072-25.072c0.484,1.709,0.751,3.479,0.772,5.259C185.261,500.017,176.039,509.229,164.676,509.229z"/>
			<path d="M607.251,437.182h-10.292V344.55c0-5.681-4.611-10.292-10.292-10.292h-82.34c-5.681,0-10.292,4.611-10.292,10.292v61.755
				c-10.601,0.062-21.089,2.192-30.877,6.258v-26.843c-0.031-1.153-0.268-2.285-0.679-3.355c3.273-3.592,5.877-7.74,7.709-12.238
				l27.656-69.124c5.095-12.907,0.515-27.635-11.013-35.365l0,0c-13.504-8.996-31.742-5.342-40.737,8.152
				c-0.679,1.019-1.287,2.069-1.832,3.17l-28.634,57.298h-45.101c-17.013-0.031-30.836,13.73-30.867,30.744
				c-0.031,13.092,8.224,24.774,20.575,29.117v43.064h-41.17v-82.34c0-5.681-4.611-10.292-10.292-10.292h-10.292v-41.17
				c0-5.681-4.611-10.292-10.292-10.292c-0.69,0-1.379,0.072-2.059,0.206l-51.462,10.292c-5.579,1.112-9.191,6.536-8.069,12.114
				c0.031,0.154,0.062,0.309,0.103,0.463l10.292,41.17c1.142,4.601,5.29,7.822,10.025,7.802h51.462v72.047h-69.772
				c-11.075-13.823-26.307-23.714-43.444-28.201V344.55h20.585v-20.585h-61.755v20.585h20.585v61.755
				c-13.792,0.062-27.337,3.602-39.399,10.292h-1.77V225.301l23.601,23.601l14.554-14.554l-36.816-36.826l29.107-97.037
				c1.081-3.664,0.041-7.627-2.697-10.292c-2.748-2.697-6.772-3.602-10.416-2.367L79.084,108.41
				c-1.513,0.504-2.892,1.348-4.024,2.48l-18.454,18.403l-28.747-28.747L13.305,115.1l28.747,28.747l-18.454,18.454
				c-1.132,1.132-1.976,2.511-2.48,4.024L0.532,228.08c-1.801,5.393,1.122,11.219,6.515,13.02c1.04,0.35,2.131,0.525,3.242,0.525
				c0.998,0,1.997-0.144,2.954-0.432l89.678-26.904v202.308H82.336v-20.585H61.751v20.585H41.166
				c-5.681,0-10.292,4.611-10.292,10.292v41.17c0,5.681,4.611,10.292,10.292,10.292h41.921
				c-5.99,45.029,25.649,86.395,70.688,92.395c45.029,5.99,86.395-25.649,92.395-70.689c0.051-0.371,0.093-0.751,0.144-1.122
				h166.099c5.651,45.081,46.769,77.049,91.86,71.399c37.331-4.673,66.726-34.078,71.399-71.399h31.577
				c5.681,0,10.292-4.611,10.292-10.292v-41.17C617.543,441.793,612.932,437.182,607.251,437.182z M277.893,344.55h-22.839
				l-5.723-22.901l28.562-5.712V344.55z M26.325,215.771l10.889-32.689l42.765,16.602L26.325,215.771z M49.318,165.688
				l29.128-29.128l18.526,47.623L49.318,165.688z M95.84,124.456l32.689-10.889l-16.087,53.654L95.84,124.456z M100.163,437.593
				c-2.151,2.717-4.117,5.568-5.898,8.543c-0.412,0.69-0.793,1.369-1.184,2.059c-1.739,3.026-3.283,6.155-4.621,9.376l-0.093,0.196
				H51.459v-20.585h48.992C100.348,437.315,100.266,437.459,100.163,437.593z M164.676,550.398
				c-34.109,0-61.755-27.646-61.755-61.755s27.646-61.755,61.755-61.755s61.755,27.646,61.755,61.755
				C226.389,522.732,198.764,550.368,164.676,550.398z M514.619,354.842h20.585v62.681c-2.336-1.359-4.745-2.604-7.205-3.726
				c-0.741-0.34-1.503-0.638-2.254-0.947c-3.417-1.461-6.937-2.676-10.529-3.654c-0.206-0.062-0.391-0.154-0.597-0.206V354.842z
				 M370.525,354.842h51.462c3.921,0.021,7.513-2.182,9.263-5.692l31.495-63c2.213-4.333,7.513-6.062,11.847-3.849
				c0.288,0.144,0.576,0.319,0.854,0.494c3.438,2.326,4.807,6.731,3.283,10.591l-27.666,69.134
				c-3.108,7.822-10.684,12.938-19.103,12.907h-61.436c-5.681,0-10.292-4.611-10.292-10.292
				C360.232,359.453,364.833,354.842,370.525,354.842z M416.47,461.503c-0.494,1.4-1.029,2.789-1.4,4.22
				c-0.7,2.45-1.276,4.93-1.729,7.431c-0.257,1.328-0.587,2.645-0.772,4.004c-0.062,0.401-0.185,0.793-0.237,1.194H246.367
				c0-0.401-0.165-0.793-0.226-1.194c-0.185-1.359-0.515-2.676-0.772-4.004c-0.453-2.501-1.029-4.982-1.729-7.431
				c-0.412-1.431-0.906-2.82-1.4-4.22c-0.432-1.235-0.741-2.522-1.235-3.736h176.701
				C417.211,458.981,416.902,460.268,416.47,461.503z M380.817,437.182v-41.17h61.755v28.407c-2.357,1.883-4.601,3.901-6.731,6.031
				l0,0c-2.131,2.131-4.148,4.385-6.031,6.731C429.809,437.182,380.817,437.182,380.817,437.182z M494.034,550.398
				c-34.068,0.052-61.724-27.522-61.775-61.59c-0.021-12.68,3.87-25.062,11.136-35.447l0,0c4.189-5.98,9.387-11.188,15.367-15.377
				c10.334-7.246,22.654-11.116,35.272-11.095c2.954,0.021,5.898,0.247,8.821,0.7c16.89,2.45,32.02,11.764,41.818,25.731
				c19.504,27.975,12.649,66.469-15.336,85.983C518.983,546.518,506.652,550.398,494.034,550.398z M557.569,436.461
				c-0.597-0.72-1.163-1.451-1.781-2.151v-79.468h20.585v82.34h-18.125C558.043,436.924,557.775,436.718,557.569,436.461z
				 M596.958,478.351h-21.233c0-0.401-0.165-0.793-0.226-1.194c-0.185-1.359-0.515-2.676-0.772-4.004
				c-0.453-2.501-1.029-4.982-1.729-7.431c-0.412-1.431-0.906-2.82-1.4-4.22c-0.432-1.235-0.741-2.522-1.235-3.736h26.596V478.351z"
				/>
			<path d="M494.034,447.474c-22.736,0-41.17,18.434-41.17,41.17s18.434,41.17,41.17,41.17c22.736,0,41.17-18.434,41.17-41.17
				S516.77,447.474,494.034,447.474z M473.449,488.644c0-11.373,9.212-20.585,20.585-20.585c1.781,0.021,3.551,0.288,5.259,0.772
				l-25.072,25.072C473.727,492.195,473.47,490.424,473.449,488.644z M494.034,509.229c-1.781-0.021-3.551-0.288-5.259-0.772
				l25.072-25.072c0.484,1.709,0.751,3.479,0.772,5.259C514.619,500.017,505.397,509.229,494.034,509.229z"/>
			<rect x="463.157" y="46.069" width="20.585" height="20.585"/>
			<rect x="524.911" y="179.87" width="20.585" height="20.585"/>
			<path d="M391.109,138.701v20.585h18.434c10.55,3.87,18.506,12.701,21.244,23.601l1.492,5.98v11.589h20.585v-11.589l1.492-5.98
				c2.738-10.9,10.694-19.731,21.244-23.601h18.434v-20.585H475.6c-10.55-3.87-18.506-12.701-21.244-23.601l-1.492-5.98V97.531
				h-20.585v11.589l-1.492,5.98c-2.738,10.9-10.694,19.731-21.244,23.601C409.543,138.701,391.109,138.701,391.109,138.701z
				 M442.572,138.155c2.82,4.045,6.175,7.688,9.973,10.838c-3.798,3.149-7.153,6.793-9.973,10.838
				c-2.82-4.045-6.175-7.688-9.973-10.838C436.386,145.844,439.741,142.2,442.572,138.155z"/>
			<path d="M514.619,87.238v20.585h18.434c10.55,3.87,18.506,12.701,21.244,23.601l1.492,5.98v11.589h20.585v-11.589l1.492-5.98
				c2.738-10.9,10.694-19.731,21.244-23.601h18.434V87.238h-18.434c-10.55-3.87-18.506-12.701-21.244-23.601l-1.492-5.98V46.069
				h-20.585v11.589l-1.492,5.98c-2.738,10.9-10.694,19.731-21.244,23.601H514.619z M566.081,86.693
				c2.82,4.045,6.175,7.688,9.973,10.838c-3.798,3.149-7.153,6.793-9.973,10.838c-2.82-4.045-6.175-7.688-9.973-10.838
				C559.895,94.381,563.251,90.738,566.081,86.693z"/>
		</g>
	</g>
</g>
<g>
</g>
<g>
</g>
<g>
</g>
<g>
</g>
<g>
</g>
<g>
</g>
<g>
</g>
<g>
</g>
<g>
</g>
<g>
</g>
<g>
</g>
<g>
</g>
<g>
</g>
<g>
</g>
<g>
</g>
</svg>
