<?xml version="1.0" encoding="iso-8859-1"?>
<!-- Generator: Adobe Illustrator 21.0.0, SVG Export Plug-In . SVG Version: 6.00 Build 0)  -->
<svg version="1.1" id="Capa_1" xmlns="http://www.w3.org/2000/svg" xmlns:xlink="http://www.w3.org/1999/xlink" x="0px" y="0px"
	 viewBox="0 0 617.741 617.741" style="enable-background:new 0 0 617.741 617.741;" xml:space="preserve">
<g>
	<g>
		<g id="filled_outline_20_">
			<path style="fill:#808B96;" d="M118.46,391.218c-19.895,0-36.024-16.128-36.024-36.024c0-19.895,16.128-36.024,36.024-36.024
				s36.024,16.128,36.024,36.024C154.484,375.09,138.356,391.218,118.46,391.218z"/>
			<rect x="10.39" y="164.785" style="fill:#808B96;" width="82.34" height="41.17"/>
			<path style="fill:#808B96;" d="M132.87,334.065l-18.423-9.201l60.622-121.338V42.881L61.852,138.683v26.102H41.267v-30.877
				c0-3.026,1.338-5.898,3.644-7.853L178.712,12.837c4.343-3.674,10.838-3.129,14.502,1.204c1.575,1.853,2.439,4.21,2.439,6.649
				v185.264c0,1.595-0.371,3.17-1.081,4.601L132.87,334.065z"/>
			<path style="fill:#808B96;" d="M185.361,41.275c-11.373,0-20.585-9.212-20.585-20.585s9.212-20.585,20.585-20.585
				c11.373,0,20.585,9.212,20.585,20.585S196.724,41.275,185.361,41.275z"/>
			<path style="fill:#808B96;" d="M185.361,226.539c-11.373,0-20.585-9.212-20.585-20.585c0-11.373,9.212-20.585,20.585-20.585
				c11.373,0,20.585,9.212,20.585,20.585C205.946,217.328,196.724,226.539,185.361,226.539z"/>
			<path style="fill:#808B96;" d="M72.144,617.652c-39.791,0-72.047-32.256-72.047-72.047c0-39.791,32.257-72.047,72.047-72.047
				s72.047,32.257,72.047,72.047C144.14,585.385,111.914,617.611,72.144,617.652z M72.144,494.143
				c-28.417,0-51.462,23.045-51.462,51.462c0,28.417,23.045,51.462,51.462,51.462s51.462-23.045,51.462-51.462
				C123.565,517.198,100.551,494.184,72.144,494.143z"/>
			<rect x="61.852" y="483.85" style="fill:#808B96;" width="20.585" height="123.509"/>
			
				<rect x="10.379" y="535.332" transform="matrix(0.8661 -0.4999 0.4999 0.8661 -263.0938 109.1256)" style="fill:#808B96;" width="123.511" height="20.585"/>
			
				<rect x="61.825" y="483.868" transform="matrix(0.5 -0.866 0.866 0.5 -436.4609 335.2596)" style="fill:#808B96;" width="20.584" height="123.507"/>
			<path style="fill:#808B96;" d="M308.871,617.652c-39.791,0-72.047-32.256-72.047-72.047c0-39.791,32.257-72.047,72.047-72.047
				s72.047,32.257,72.047,72.047C380.866,585.385,348.641,617.611,308.871,617.652z M308.871,494.143
				c-28.417,0-51.462,23.045-51.462,51.462c0,28.417,23.045,51.462,51.462,51.462s51.462-23.045,51.462-51.462
				C360.292,517.198,337.278,494.184,308.871,494.143z"/>
			<rect x="298.578" y="483.85" style="fill:#808B96;" width="20.585" height="123.509"/>
			
				<rect x="247.114" y="535.336" transform="matrix(0.8661 -0.4999 0.4999 0.8661 -231.3941 227.4679)" style="fill:#808B96;" width="123.511" height="20.585"/>
			
				<rect x="298.561" y="483.874" transform="matrix(0.5 -0.866 0.866 0.5 -318.1001 540.2806)" style="fill:#808B96;" width="20.584" height="123.507"/>
			<path style="fill:#808B96;" d="M545.597,617.652c-39.791,0-72.047-32.256-72.047-72.047c0-39.791,32.257-72.047,72.047-72.047
				s72.047,32.257,72.047,72.047C617.592,585.385,585.367,617.611,545.597,617.652z M545.597,494.143
				c-28.417,0-51.462,23.045-51.462,51.462c0,28.417,23.045,51.462,51.462,51.462c28.417,0,51.462-23.045,51.462-51.462
				C597.018,517.198,574.004,494.184,545.597,494.143z"/>
			<rect x="535.304" y="483.85" style="fill:#808B96;" width="20.585" height="123.509"/>
			
				<rect x="483.833" y="535.345" transform="matrix(0.8661 -0.4999 0.4999 0.8661 -199.6991 345.8034)" style="fill:#808B96;" width="123.511" height="20.585"/>
			
				<rect x="535.296" y="483.875" transform="matrix(0.5 -0.866 0.866 0.5 -199.7364 745.2977)" style="fill:#808B96;" width="20.584" height="123.507"/>
			<rect x="144.191" y="339.756" style="fill:#D0D7DF;" width="329.358" height="113.217"/>
			<path style="fill:#808B96;" d="M319.163,483.85h-20.585v-34.541l-103.11-46.872L82.437,449.546v34.305H61.852v-41.17
				c0-4.158,2.501-7.905,6.33-9.5l123.509-51.462c2.645-1.122,5.63-1.07,8.234,0.134l113.217,51.462
				c3.664,1.678,6.021,5.332,6.021,9.366C319.163,442.681,319.163,483.85,319.163,483.85z"/>
			<path style="fill:#808B96;" d="M555.889,483.85h-20.585v-30.877H473.55v-20.585h72.047c5.681,0,10.292,4.611,10.292,10.292
				V483.85z"/>
			<polygon style="fill:#C3C9D1;" points="473.55,339.756 360.333,339.756 360.333,308.879 411.795,278.002 473.55,278.002 			"/>
			<polygon style="fill:#C3C9D1;" points="473.55,442.681 586.766,350.049 525.012,236.832 473.55,278.002 			"/>
			<rect x="226.531" y="133.907" style="fill:#D0D7DF;" width="144.094" height="61.755"/>
			<circle style="fill:#2A90DE;" cx="339.748" cy="164.785" r="30.877"/>
			<circle style="fill:#2379BA;" cx="339.748" cy="164.785" r="10.292"/>
			<rect x="277.993" y="195.662" style="fill:#C3C9D1;" width="41.17" height="144.094"/>
			<rect x="319.163" y="288.294" style="fill:#C3C9D1;" width="41.17" height="51.462"/>
			<path style="fill:#808B96;" d="M195.654,411.803c-11.373,0-20.585-9.212-20.585-20.585s9.212-20.585,20.585-20.585
				c11.373,0,20.585,9.212,20.585,20.585S207.016,411.803,195.654,411.803z"/>
			<path d="M555.889,474.381v-31.701c0-5.681-4.611-10.292-10.292-10.292h-43.228l90.903-74.373
				c3.829-3.129,4.889-8.553,2.522-12.896l-61.755-113.217c-2.738-4.982-8.996-6.803-13.977-4.066
				c-0.515,0.278-0.998,0.607-1.461,0.978l-48.663,38.895h-58.142c-1.863,0-3.695,0.504-5.301,1.472l-35.869,21.522v-2.408
				c0-5.681-4.611-10.292-10.292-10.292h-30.877v-72.047h41.17c5.681,0,10.292-4.611,10.292-10.292v-61.755
				c0-5.681-4.611-10.292-10.292-10.292H226.531c-5.681,0-10.292,4.611-10.292,10.292v61.755c0,5.681,4.611,10.292,10.292,10.292
				h41.17v123.509H144.191c-0.175,0-0.309,0.093-0.484,0.093c-1.884-1.822-3.952-3.448-6.175-4.827l49.157-98.324
				c11.281-0.648,19.885-10.323,19.237-21.594c-0.401-6.906-4.261-13.143-10.272-16.581V38.414
				c9.84-5.681,13.216-18.269,7.534-28.119S184.919-2.92,175.069,2.761c-6.402,3.695-10.334,10.539-10.292,17.929
				c0.01,1.225,0.134,2.439,0.371,3.633L44.911,126.054c-2.306,1.956-3.644,4.827-3.644,7.853v20.585H10.39
				c-5.681,0-10.292,4.611-10.292,10.292v41.17c0,5.681,4.611,10.292,10.292,10.292h82.34c5.681,0,10.292-4.611,10.292-10.292
				v-41.17c0-5.681-4.611-10.292-10.292-10.292H61.852v-15.809l113.217-95.802v145.35c-9.788,5.589-13.195,18.053-7.616,27.841
				c0.237,0.401,0.473,0.803,0.741,1.194l-51.009,102.039c-19.854,0.556-35.499,17.106-34.933,36.96
				c0.556,19.854,17.106,35.499,36.96,34.933c5.095-0.144,10.097-1.369,14.687-3.592v18.197l-65.717,27.378
				c-3.839,1.606-6.33,5.352-6.33,9.5v31.701c-39.379,5.681-66.695,42.22-61.014,81.599s42.22,66.695,81.598,61.014
				s66.695-42.22,61.014-81.599c-4.56-31.618-29.395-56.454-61.014-61.014v-24.836l51.462-21.449v14.584
				c0,5.681,4.611,10.292,10.292,10.292h154.387v21.408c-39.379,5.681-66.695,42.22-61.014,81.599s42.22,66.695,81.598,61.014
				s66.695-42.22,61.014-81.599c-4.56-31.618-29.395-56.454-61.014-61.014v-21.408h216.141v21.408
				c-39.379,5.681-66.695,42.22-61.014,81.599c5.681,39.379,42.22,66.695,81.599,61.014s66.695-42.22,61.014-81.599
				C612.343,503.787,587.497,478.951,555.889,474.381z M82.437,175.077v20.585H20.682v-20.585H82.437z M20.682,545.605
				c0.062-5.517,1.029-10.982,2.861-16.18l28.016,16.18l-28.016,16.18C21.711,556.587,20.744,551.122,20.682,545.605z
				 M61.852,596.038c-10.879-2.306-20.719-8.08-28.026-16.468l28.026-16.139V596.038z M61.852,527.789L33.826,511.64
				c7.308-8.388,17.147-14.162,28.026-16.468V527.789z M82.437,596.038v-32.607l28.026,16.139
				C103.155,587.958,93.316,593.743,82.437,596.038z M123.607,545.605c-0.062,5.517-1.029,10.982-2.861,16.18l-28.016-16.18
				l28.016-16.18C122.567,534.633,123.534,540.099,123.607,545.605z M110.463,511.64l-28.026,16.139v-32.606
				C93.316,497.478,103.155,503.262,110.463,511.64z M118.46,370.634c-8.522,0-15.439-6.917-15.439-15.439
				c0-8.522,6.917-15.439,15.439-15.439s15.439,6.917,15.439,15.439C133.899,363.717,126.982,370.634,118.46,370.634z
				 M257.408,545.605c0.062-5.517,1.029-10.982,2.861-16.18l28.016,16.18l-28.016,16.18
				C258.438,556.587,257.47,551.122,257.408,545.605z M298.578,596.038c-10.879-2.306-20.719-8.08-28.026-16.468l28.026-16.139
				V596.038z M298.578,527.789l-28.026-16.149c7.308-8.388,17.147-14.162,28.026-16.468V527.789z M350.04,298.586v30.877h-20.585
				v-30.877C329.455,298.586,350.04,298.586,350.04,298.586z M339.748,144.2c11.373,0,20.585,9.212,20.585,20.585
				c0,11.373-9.212,20.585-20.585,20.585c-11.373,0-20.585-9.212-20.585-20.585C319.163,153.412,328.375,144.2,339.748,144.2z
				 M236.823,185.37V144.2h67.477c-7.627,12.66-7.627,28.51,0,41.17H236.823z M308.871,205.954v123.509h-20.585V205.954
				C288.286,205.954,308.871,205.954,308.871,205.954z M154.484,432.388v-12.866l28.819-11.991
				c7.112,5.537,17.024,5.702,24.321,0.412l53.727,24.445H154.484z M319.163,596.038v-32.607l28.026,16.139
				C339.882,587.958,330.042,593.743,319.163,596.038z M360.333,545.605c-0.062,5.517-1.029,10.982-2.861,16.18l-28.016-16.18
				l28.016-16.18C359.293,534.633,360.261,540.099,360.333,545.605z M347.189,511.64l-28.026,16.139v-32.606
				C330.042,497.478,339.882,503.262,347.189,511.64z M463.257,432.388H311.094l-95.061-43.228
				c-1.05-11.26-11.023-19.535-22.283-18.485c-9.562,0.885-17.219,8.306-18.413,17.837l-20.852,8.707v-47.17h308.773
				C463.257,350.049,463.257,432.388,463.257,432.388z M463.257,329.464h-92.632v-14.759l44.021-26.41h48.611V329.464z
				 M483.842,339.756v-56.814l38.01-30.404l29.786,54.601l-67.796,52.738C483.842,359.878,483.842,339.756,483.842,339.756z
				 M483.842,385.969l77.79-60.509l12.022,22.026l-89.812,73.478V385.969z M494.134,545.605c0.062-5.517,1.029-10.982,2.861-16.18
				l28.016,16.18l-28.016,16.18C495.164,556.587,494.196,551.122,494.134,545.605z M535.304,596.038
				c-10.879-2.306-20.719-8.08-28.026-16.468l28.026-16.139V596.038z M535.304,527.789l-28.026-16.149
				c7.308-8.388,17.147-14.162,28.026-16.468V527.789z M555.889,495.172c10.879,2.306,20.719,8.08,28.026,16.468l-28.026,16.139
				V495.172z M555.889,596.038v-32.607l28.026,16.139C576.608,587.958,566.768,593.743,555.889,596.038z M594.198,561.795
				l-28.016-16.19l28.016-16.18C598.006,539.882,598.006,551.338,594.198,561.795L594.198,561.795z"/>
			<rect x="401.502" y="380.926" width="20.585" height="20.585"/>
			<rect x="360.333" y="380.926" width="20.585" height="20.585"/>
			<rect x="319.163" y="380.926" width="20.585" height="20.585"/>
		</g>
	</g>
</g>
<g>
</g>
<g>
</g>
<g>
</g>
<g>
</g>
<g>
</g>
<g>
</g>
<g>
</g>
<g>
</g>
<g>
</g>
<g>
</g>
<g>
</g>
<g>
</g>
<g>
</g>
<g>
</g>
<g>
</g>
</svg>
