<?xml version="1.0" encoding="iso-8859-1"?>
<!-- Generator: Adobe Illustrator 21.0.0, SVG Export Plug-In . SVG Version: 6.00 Build 0)  -->
<svg version="1.1" id="Capa_1" xmlns="http://www.w3.org/2000/svg" xmlns:xlink="http://www.w3.org/1999/xlink" x="0px" y="0px"
	 viewBox="0 0 617.547 617.547" style="enable-background:new 0 0 617.547 617.547;" xml:space="preserve">
<g>
	<g>
		<g id="filled_outline_24_">
			<polygon style="fill:#808B96;" points="418.13,563.511 411.698,607.254 473.452,607.254 466.587,563.511 			"/>
			<path style="fill:#F5AE45;" d="M442.575,133.802c-26.359,26.359-41.17,62.115-41.17,99.394v332.888h82.34V233.196
				C483.745,195.917,468.934,160.161,442.575,133.802z"/>
			<path style="fill:#F09E26;" d="M442.668,133.905c13.37,22.921,20.441,48.982,20.492,75.516v356.664h20.585V233.196
				C483.745,195.968,468.975,160.253,442.668,133.905z"/>
			<rect x="401.405" y="298.481" style="fill:#E38800;" width="82.34" height="20.585"/>
			<rect x="401.405" y="401.405" style="fill:#E38800;" width="82.34" height="20.585"/>
			<path style="fill:#E38800;" d="M402.568,216.141c-0.731,5.661-1.122,11.353-1.163,17.055v3.53h82.34v-3.53
				c-0.041-5.702-0.432-11.394-1.163-17.055H402.568z"/>
			<polygon style="fill:#576573;" points="470.221,586.669 466.587,563.511 418.13,563.511 414.724,586.669 			"/>
			<path style="fill:#F5AE45;" d="M174.972,133.802c-26.359,26.359-41.17,62.115-41.17,99.394v332.888h82.34V233.196
				C216.141,195.917,201.33,160.161,174.972,133.802z"/>
			<path style="fill:#F09E26;" d="M175.064,133.905c13.37,22.921,20.441,48.982,20.492,75.516v356.664h20.585V233.196
				C216.141,195.968,201.372,160.253,175.064,133.905z"/>
			<rect x="133.802" y="298.481" style="fill:#E38800;" width="82.34" height="20.585"/>
			<rect x="133.802" y="401.405" style="fill:#E38800;" width="82.34" height="20.585"/>
			<path style="fill:#E38800;" d="M134.965,216.141c-0.731,5.661-1.122,11.353-1.163,17.055v3.53h82.34v-3.53
				c-0.041-5.702-0.432-11.394-1.163-17.055H134.965z"/>
			<polygon style="fill:#808B96;" points="150.527,563.511 144.094,607.254 205.849,607.254 198.984,563.511 			"/>
			<polygon style="fill:#576573;" points="202.617,586.669 198.984,563.511 150.527,563.511 147.12,586.669 			"/>
			<path style="fill:#F06529;" d="M308.773,10.292c-57.874,38.576-92.632,103.532-92.632,173.088v351.827h185.264V183.38
				C401.405,113.824,366.648,48.879,308.773,10.292z"/>
			<path style="fill:#DE591F;" d="M308.773,10.292h-0.062c20.266,35.993,30.919,76.596,30.939,117.9v407.015h61.755V183.38
				C401.405,113.824,366.648,48.879,308.773,10.292z"/>
			<rect x="216.141" y="216.141" style="fill:#D45119;" width="185.264" height="20.585"/>
			<path style="fill:#D0D7DF;" d="M360.236,545.5H257.311V265.864c0-37.228,19.535-71.738,51.462-90.893l0,0
				c31.927,19.154,51.462,53.665,51.462,90.893V545.5z"/>
			<path style="fill:#B7BDC4;" d="M92.632,535.207h164.679V288.188l-61.755,144.094l-67.621,40.573
				C106.033,485.999,92.632,509.672,92.632,535.207z"/>
			<path style="fill:#B7BDC4;" d="M524.915,535.207H360.236V288.188l61.755,144.094l67.621,40.573
				C511.514,485.999,524.915,509.672,524.915,535.207z"/>
			<path style="fill:#B7BDC4;" d="M308.773,566.084h-51.462V545.5l0,0c0-22.736,18.434-41.17,41.17-41.17h10.292V566.084z"/>
			<path style="fill:#B7BDC4;" d="M308.773,566.084h51.462V545.5l0,0c0-22.736-18.434-41.17-41.17-41.17h-10.292V566.084z"/>
			<rect x="298.481" y="452.867" style="fill:#808B96;" width="20.585" height="113.217"/>
			<rect x="257.311" y="566.084" style="fill:#808B96;" width="51.462" height="41.17"/>
			<rect x="308.773" y="566.084" style="fill:#808B96;" width="51.462" height="41.17"/>
			<path style="fill:#808B96;" d="M320.795,273.316c-4.827-6.639-14.121-8.11-20.76-3.283c-1.256,0.916-2.367,2.028-3.283,3.283
				l-17.127-11.425c10.694-16.097,32.411-20.482,48.508-9.788c3.88,2.573,7.205,5.908,9.788,9.788L320.795,273.316z"/>
			<polygon style="fill:#808B96;" points="257.311,576.377 92.632,566.084 92.632,535.207 257.311,535.207 			"/>
			<polygon style="fill:#808B96;" points="360.236,576.377 524.915,566.084 524.915,535.207 360.236,535.207 			"/>
			<rect x="298.481" y="566.084" style="fill:#576573;" width="20.585" height="41.17"/>
			<polygon style="fill:#A8B2BF;" points="380.82,336.223 360.236,288.188 360.236,535.207 380.82,535.207 			"/>
			<polygon style="fill:#576573;" points="360.236,535.207 360.236,576.377 380.82,575.09 380.82,535.207 			"/>
			<path d="M494.902,464.035l-0.865-0.525V233.196c0.113-40.027-15.799-78.439-44.185-106.671c-4.086-3.86-10.467-3.86-14.554,0
				c-9.798,9.829-18.197,20.966-24.969,33.09C403.392,95.37,368.284,37.526,314.486,1.729c-3.458-2.306-7.966-2.306-11.425,0
				c-53.799,35.797-88.906,93.641-95.843,157.886c-6.772-12.124-15.171-23.261-24.969-33.09c-4.086-3.86-10.467-3.86-14.553,0
				c-28.387,28.232-44.299,66.644-44.185,106.671V463.52l-0.865,0.515c-24.949,15.048-40.233,42.034-40.305,71.172v30.877
				c-0.01,5.445,4.22,9.953,9.654,10.292l45.709,2.861l-3.798,26.575c-0.793,5.63,3.119,10.838,8.749,11.63
				c0.484,0.072,0.957,0.103,1.441,0.103h61.755c5.681,0,10.292-4.611,10.292-10.292c0-0.494-0.031-0.978-0.103-1.461l-3.088-21.882
				l34.068,2.131v21.213c0,5.681,4.611,10.292,10.292,10.292h102.924c5.681,0,10.292-4.611,10.292-10.292v-21.213l34.109-2.131
				l-3.088,21.882c-0.803,5.63,3.098,10.838,8.728,11.651c0.473,0.072,0.947,0.103,1.42,0.103h61.755
				c5.681,0,10.292-4.611,10.292-10.292c0-0.494-0.031-0.978-0.103-1.461l-3.798-26.575l45.709-2.841
				c5.434-0.34,9.665-4.848,9.654-10.292v-30.877C535.135,506.069,519.851,479.082,494.902,464.035z M513.758,524.915h-143.23
				V338.333l42.003,98.005c0.844,1.976,2.285,3.644,4.117,4.765l67.673,40.583C499.955,491.135,510.701,506.913,513.758,524.915z
				 M197.615,401.405h-53.521v-82.34h61.755v63.072L197.615,401.405z M205.849,236.726v61.755h-61.755v-61.755H205.849z
				 M473.452,401.405h-53.521l-8.234-19.267v-63.072h61.755V401.405z M473.452,298.481h-61.755v-61.755h61.755V298.481z
				 M391.113,334.113l-20.585-47.983v-20.266c-0.01-9.84-1.287-19.628-3.798-29.138h24.383V334.113z M349.943,288.188V504.33
				c-0.401-0.309-0.865-0.525-1.276-0.813c-0.834-0.587-1.709-1.101-2.583-1.637c-1.75-1.091-3.561-2.089-5.434-2.964
				c-1.029-0.463-1.986-0.895-3.005-1.297c-2.017-0.762-4.076-1.4-6.175-1.914c-0.967-0.237-1.894-0.535-2.882-0.72
				c-3.139-0.607-6.32-0.926-9.521-0.947v-41.17h-20.585v41.17c-3.201,0.021-6.402,0.35-9.541,0.967
				c-1.029,0.185-1.914,0.484-2.882,0.72c-2.1,0.504-4.158,1.142-6.175,1.914c-1.029,0.401-2.058,0.844-3.016,1.297
				c-1.863,0.885-3.685,1.863-5.434,2.954c-0.865,0.546-1.75,1.029-2.583,1.647c-0.412,0.288-0.875,0.504-1.276,0.813V265.864
				c0.103-31.351,15.459-60.695,41.17-78.645c25.711,17.95,41.067,47.294,41.17,78.645L349.943,288.188z M247.019,265.864v20.266
				l-20.585,48.025v-97.428h24.383C248.305,246.236,247.029,256.035,247.019,265.864z M267.604,545.5
				c0-17.055,13.823-30.877,30.877-30.877v41.17h-30.877V545.5z M319.066,545.5v-30.877c17.055,0,30.877,13.823,30.877,30.877
				v10.292h-30.877V545.5z M430.142,425.171l-1.359-3.18h44.669v29.169L430.142,425.171z M442.575,148.973
				c16.18,19.041,26.482,42.374,29.653,67.168h-59.305C416.093,191.357,426.395,168.014,442.575,148.973z M226.434,183.37
				c-0.072-63.669,30.589-123.468,82.34-160.562c51.75,37.094,82.412,96.893,82.34,160.562v32.771h-32.102
				c-9.737-20.719-25.361-38.113-44.937-49.99c-3.263-1.956-7.339-1.956-10.601,0c-19.576,11.877-35.2,29.272-44.937,49.99h-32.102
				V183.37z M174.972,148.973c16.18,19.041,26.482,42.374,29.653,67.168h-59.305C148.489,191.357,158.792,168.014,174.972,148.973z
				 M144.094,421.99h44.669l-1.359,3.18l-43.311,25.988V421.99z M133.236,481.686l67.621-40.583
				c1.832-1.122,3.273-2.789,4.117-4.765l42.045-98.005v186.581h-143.23C106.846,506.913,117.601,491.125,133.236,481.686z
				 M102.924,545.5h144.094v19.926l-144.094-9.006V545.5z M193.982,596.962h-38.02l2.347-16.468l33.625,2.058L193.982,596.962z
				 M267.604,576.377h30.877v20.585h-30.877V576.377z M349.943,596.962h-30.877v-20.585h30.877V596.962z M461.585,596.962h-38.02
				l2.059-14.409l33.625-2.058L461.585,596.962z M514.622,556.42l-144.094,9.006V545.5h144.094V556.42z"/>
			<path d="M279.625,261.891l17.127,11.425c4.827-6.639,14.121-8.11,20.76-3.283c1.256,0.916,2.367,2.028,3.283,3.283l17.127-11.425
				c-10.694-16.097-32.411-20.482-48.508-9.788C285.533,254.687,282.208,258.011,279.625,261.891z"/>
		</g>
	</g>
</g>
<g>
</g>
<g>
</g>
<g>
</g>
<g>
</g>
<g>
</g>
<g>
</g>
<g>
</g>
<g>
</g>
<g>
</g>
<g>
</g>
<g>
</g>
<g>
</g>
<g>
</g>
<g>
</g>
<g>
</g>
</svg>
