<?xml version="1.0" encoding="iso-8859-1"?>
<!-- Generator: Adobe Illustrator 21.0.0, SVG Export Plug-In . SVG Version: 6.00 Build 0)  -->
<svg version="1.1" id="Capa_1" xmlns="http://www.w3.org/2000/svg" xmlns:xlink="http://www.w3.org/1999/xlink" x="0px" y="0px"
	 viewBox="0 0 614.527 614.527" style="enable-background:new 0 0 614.527 614.527;" xml:space="preserve">
<g>
	<g>
		<g id="filled_outline_25_">
			
				<rect x="53.524" y="298.993" transform="matrix(0.7071 -0.7071 0.7071 0.7071 -177.2282 286.5663)" style="fill:#D0D7DF;" width="407.556" height="116.448"/>
			<polygon style="fill:#808B96;" points="102.919,542.484 72.042,511.607 144.089,439.56 174.966,439.56 174.966,470.437 			"/>
			<polygon style="fill:#808B96;" points="463.155,192.541 421.985,151.372 360.23,171.956 442.57,254.296 			"/>
			<polygon style="fill:#576573;" points="442.57,171.956 421.985,233.711 442.57,254.296 463.155,192.541 			"/>
			<polygon style="fill:#D0D7DF;" points="514.617,58.74 421.985,151.372 463.155,192.541 555.787,99.909 566.079,48.447 			"/>
			
				<rect x="529.062" y="29.372" transform="matrix(0.7071 -0.7071 0.7071 0.7071 140.3264 418.1071)" style="fill:#D0D7DF;" width="91.602" height="20.585"/>
			<polygon style="fill:#808B96;" points="72.042,460.145 10.287,398.39 30.872,377.805 123.504,408.683 			"/>
			<polygon style="fill:#808B96;" points="154.382,542.484 216.136,604.239 236.721,583.654 205.844,491.022 			"/>
			<polygon style="fill:#C3C9D1;" points="113.212,501.315 82.334,501.315 41.165,542.484 72.042,573.362 113.212,532.192 			"/>
			<polygon style="fill:#808B96;" points="82.334,470.437 51.457,470.437 10.287,511.607 41.165,542.484 82.334,501.315 			"/>
			
				<rect x="467.048" y="96.526" transform="matrix(0.7071 -0.7071 0.7071 0.7071 54.3514 382.4909)" style="fill:#808B96;" width="43.67" height="58.224"/>
			
				<rect x="41.16" y="479.474" transform="matrix(0.7071 -0.7071 0.7071 0.7071 -339.409 183.2126)" style="fill:#A8B2BF;" width="20.585" height="43.67"/>
			<polygon style="fill:#808B96;" points="144.089,532.192 113.212,532.192 72.042,573.362 102.919,604.239 144.089,563.069 			"/>
			
				<rect x="102.922" y="541.223" transform="matrix(0.7071 -0.7071 0.7071 0.7071 -364.9828 244.9709)" style="fill:#A8B2BF;" width="20.585" height="43.67"/>
			
				<rect x="72.036" y="510.349" transform="matrix(0.7071 -0.7071 0.7071 0.7071 -352.1979 214.0879)" style="fill:#B7BDC4;" width="20.585" height="43.67"/>
			<polygon style="fill:#576573;" points="205.844,491.022 154.382,542.484 169.82,557.923 213.563,514.18 			"/>
			
				<rect x="482.492" y="133.802" transform="matrix(0.7071 -0.7071 0.7071 0.7071 47.9563 397.9344)" style="fill:#576573;" width="43.67" height="14.553"/>
			<polygon style="fill:#808B96;" points="552.771,82.34 526.742,56.311 514.617,58.74 507.34,66.016 538.218,96.894 			"/>
			<polygon style="fill:#576573;" points="552.771,82.34 538.218,96.894 548.51,107.186 555.787,99.909 558.216,87.785 			"/>
			
				<rect x="81.829" y="367.324" transform="matrix(0.7071 -0.7071 0.7071 0.7071 -188.9521 314.8709)" style="fill:#C3C9D1;" width="407.556" height="36.394"/>
			<path d="M44.18,463.161l-41.17,41.17c-4.014,4.014-4.014,10.539,0,14.554l30.877,30.877l30.877,30.877l30.877,30.877
				c4.024,4.014,10.539,4.014,14.554,0l41.17-41.17c1.925-1.935,3.016-4.549,3.016-7.277v-6.031l54.478,54.478
				c4.014,4.014,10.539,4.014,14.554,0l20.585-20.585c2.758-2.758,3.726-6.834,2.491-10.529l-28.87-86.601l232.228-232.228
				c0.103-0.103,0.134-0.237,0.226-0.34c0.731-0.793,1.328-1.688,1.77-2.666c0.103-0.226,0.226-0.422,0.309-0.648
				c0.082-0.226,0.134-0.237,0.185-0.371l19.813-59.449l29.159-29.158l30.877-30.877l30.877-30.877
				c1.441-1.431,2.419-3.263,2.81-5.259l9.685-48.374l38.967-38.967L599.972,0.001l-38.967,38.967l-48.375,9.685
				c-1.997,0.391-3.829,1.369-5.259,2.81L476.494,82.34l-30.877,30.877l-29.189,29.158l-59.449,19.813
				c-0.134,0.051-0.247,0.134-0.371,0.185c-0.124,0.051-0.422,0.206-0.648,0.309c-0.978,0.443-1.873,1.04-2.666,1.77
				c-0.103,0.093-0.237,0.124-0.34,0.226L120.725,396.908l-86.601-28.819c-3.695-1.235-7.771-0.268-10.529,2.491L3.011,391.165
				c-4.014,4.014-4.014,10.539,0,14.554l54.478,54.426h-6.031C48.73,460.145,46.105,461.226,44.18,463.161z M41.165,527.931
				l-16.324-16.324l11.178-11.178l16.324,16.324L41.165,527.931z M72.042,558.808l-16.324-16.324l11.178-11.178l16.324,16.324
				L72.042,558.808z M81.449,516.753l5.146-5.146h16.324v16.324l-5.146,5.146L81.449,516.753z M102.919,589.686l-16.324-16.324
				l11.178-11.178l16.324,16.324L102.919,589.686z M133.797,558.808l-5.146,5.146l-16.324-16.324l5.146-5.146h16.324V558.808z
				 M112.327,485.876l36.024-36.024h16.324v16.324L128.65,502.2l-8.162-8.162l0,0L112.327,485.876z M224.947,580.875l-8.81,8.81
				l-47.201-47.201l32.411-32.411L224.947,580.875z M552.956,61.57l-3.489,17.497L535.49,65.059L552.956,61.57z M514.617,73.293
				l26.616,26.616l-16.324,16.324l-26.616-26.616L514.617,73.293z M483.74,104.17l26.616,26.616l-16.324,16.324l-26.616-26.616
				L483.74,104.17z M452.862,135.048l26.616,26.616l-16.324,16.324l-26.616-26.616L452.862,135.048z M419.206,163.146l32.174,32.174
				l-13.308,39.924l-58.79-58.79L419.206,163.146z M360.23,186.51l67.786,67.786L277.891,404.422l-67.786-67.786L360.23,186.51z
				 M130.781,415.959l64.77-64.77l67.786,67.786l-64.77,64.77l-44.185,44.185l-3.016-3.016l0,0l-8.162-8.162l39.039-39.039
				c1.925-1.935,3.016-4.549,3.016-7.277V439.56c0-5.681-4.611-10.292-10.292-10.292h-30.877c-2.727,0-5.352,1.081-7.277,3.016
				l-39.039,39.039l-8.162-8.162l0,0l-3.016-3.016L130.781,415.959z M24.841,398.39l8.81-8.81l70.802,23.601l-32.411,32.411
				L24.841,398.39z M72.042,480.73v16.324l-5.146,5.146l-16.324-16.324l5.146-5.146H72.042z"/>
		</g>
	</g>
</g>
<g>
</g>
<g>
</g>
<g>
</g>
<g>
</g>
<g>
</g>
<g>
</g>
<g>
</g>
<g>
</g>
<g>
</g>
<g>
</g>
<g>
</g>
<g>
</g>
<g>
</g>
<g>
</g>
<g>
</g>
</svg>
