<?xml version="1.0" encoding="iso-8859-1"?>
<!-- Generator: Adobe Illustrator 21.0.0, SVG Export Plug-In . SVG Version: 6.00 Build 0)  -->
<svg version="1.1" id="Capa_1" xmlns="http://www.w3.org/2000/svg" xmlns:xlink="http://www.w3.org/1999/xlink" x="0px" y="0px"
	 viewBox="0 0 617.823 617.823" style="enable-background:new 0 0 617.823 617.823;" xml:space="preserve">
<g>
	<g>
		<g id="filled_outline_28_">
			<circle style="fill:#8C6348;" cx="149.165" cy="149.188" r="25.731"/>
			<circle style="fill:#FABC5F;" cx="308.698" cy="308.721" r="51.462"/>
			<path style="fill:#D0D7DF;" d="M186.465,555.626c-33.615,1.492-66.407-10.694-90.893-33.78
				c-33.842-33.842-42.611-88.062-24.702-152.658c17.353-62.557,57.874-127.976,114.092-184.235S306.598,88.205,369.197,70.862
				c64.626-17.909,118.826-9.15,152.658,24.702s42.611,88.062,24.702,152.658c-17.353,62.557-57.874,127.976-114.092,184.235
				S310.828,529.206,248.23,546.548C228.139,552.333,207.369,555.39,186.465,555.626z M430.89,82.4
				c-19.031,0.237-37.948,3.047-56.228,8.337c-59.182,16.468-121.379,55.065-175.126,108.822S107.141,315.504,90.714,374.685
				c-15.85,57.144-8.954,104.242,19.412,132.608c28.366,28.366,75.454,35.252,132.608,19.412
				c59.182-16.468,121.379-55.065,175.126-108.822s92.395-115.944,108.822-175.126c15.85-57.144,8.954-104.242-19.412-132.608
				C486.592,90.984,459.05,80.97,430.89,82.4z"/>
			<path style="fill:#D0D7DF;" d="M193.669,494.324c-19.092,0.988-37.773-5.784-51.781-18.794
				c-44.885-44.885-6.783-153.357,86.755-246.864s201.979-131.63,246.864-86.755s6.783,153.357-86.755,246.864
				C321.769,455.769,247.128,494.324,193.669,494.324z M423.675,143.435c-46.892,0-118.528,37.835-180.478,99.785
				c-82.525,82.535-122.254,182.248-86.755,217.757s135.232-4.22,217.757-86.755s122.254-182.248,86.755-217.757
				C450.785,147.284,437.343,142.591,423.675,143.435z"/>
			<circle style="fill:#F06529;" cx="200.627" cy="540.301" r="25.731"/>
			<circle style="fill:#2A90DE;" cx="478.523" cy="200.65" r="25.731"/>
			<path d="M308.698,246.966c-34.109,0-61.755,27.646-61.755,61.755s27.646,61.755,61.755,61.755s61.755-27.646,61.755-61.755
				C370.411,274.632,342.786,246.997,308.698,246.966z M308.698,349.891c-22.736,0-41.17-18.434-41.17-41.17
				c0-22.736,18.434-41.17,41.17-41.17c22.736,0,41.17,18.434,41.17,41.17C349.868,331.457,331.434,349.891,308.698,349.891z"/>
			<path d="M184.787,185.212C128.57,241.429,88.038,306.837,70.695,369.446c-17.919,64.595-9.15,118.816,24.702,152.658
				c19.648,18.784,45.132,30.28,72.212,32.565c7.822,18.207,28.932,26.637,47.139,18.804c10.045-4.313,17.579-12.979,20.461-23.529
				c65.583-14.914,136.992-57.277,196.997-117.313c117.519-117.519,157.618-268.633,89.4-336.851S302.316,67.672,184.787,185.212z
				 M200.627,555.74c-8.522,0-15.439-6.917-15.439-15.439c0-8.522,6.917-15.439,15.439-15.439c8.522,0,15.439,6.917,15.439,15.439
				C216.066,548.823,209.149,555.74,200.627,555.74z M417.685,418.078c-56.135,56.135-122.254,96.039-183.092,110.829
				c-6.206-18.815-26.493-29.045-45.318-22.839c-12.454,4.107-21.676,14.687-24.043,27.584
				c-20.811-2.429-40.254-11.62-55.332-26.174c-28.315-28.366-35.21-75.464-19.401-132.608
				c16.416-59.192,55.054-121.389,108.801-175.136c109.491-109.491,247.533-149.611,307.744-89.4S527.176,308.577,417.685,418.078z"
				/>
			<path d="M490.308,166.767c-2.882-9.346-7.956-17.868-14.801-24.856c-44.885-44.875-153.357-6.793-246.864,86.755
				S97.003,430.645,141.888,475.53c14.008,13.01,32.689,19.782,51.781,18.794c53.459,0,128.1-38.555,195.083-105.549
				c49.116-49.095,84.655-104.561,98.807-153.357c19.175-4.899,30.744-24.414,25.834-43.589
				c-2.995-11.702-11.682-21.11-23.107-25.021L490.308,166.767z M374.199,374.222c-82.525,82.535-182.176,122.264-217.757,86.755
				s4.23-135.222,86.755-217.757s182.259-122.243,217.757-86.755c2.872,2.902,5.259,6.248,7.081,9.901
				c-18.938,5.661-29.704,25.608-24.043,44.556c3.273,10.951,11.579,19.679,22.355,23.487
				C452.236,278.42,418.631,329.789,374.199,374.222z M478.523,216.089c-8.522,0-15.439-6.917-15.439-15.439
				s6.917-15.439,15.439-15.439c8.522,0,15.439,6.917,15.439,15.439S487.045,216.089,478.523,216.089z"/>
			<path d="M166.405,117.755c-5.259-2.964-11.198-4.549-17.24-4.59c-19.895,0-36.024,16.128-36.024,36.024
				c0.041,6.052,1.626,11.98,4.601,17.25C-6.817,306.858-37.293,481.634,49.256,568.162c32.761,32.771,78.295,49.671,131.743,49.661
				c21.82-0.134,43.568-2.655,64.842-7.534c79.756-17.806,161.519-65.46,230.232-134.183s116.387-150.476,134.193-230.232
				c18.176-81.434,3.221-151.247-42.127-196.586C481.529-37.342,306.876-6.845,166.405,117.755z M149.165,133.749
				c8.522,0,15.439,6.917,15.439,15.439c0,8.522-6.917,15.439-15.439,15.439s-15.439-6.917-15.439-15.439
				C133.726,140.656,140.633,133.749,149.165,133.749z M590.176,241.388c-16.962,75.989-62.65,154.181-128.656,220.166
				S317.354,573.237,241.365,590.199c-74.311,16.581-137.363,3.602-177.555-36.59c-78.665-78.665-48.158-240.627,68.609-372.72
				c5.146,2.8,10.889,4.282,16.746,4.323c19.895,0,36.024-16.128,36.024-36.024c-0.041-5.856-1.523-11.61-4.323-16.756
				C313,15.623,474.859-14.884,553.586,63.833C593.799,104.025,606.767,167.076,590.176,241.388z"/>
		</g>
	</g>
</g>
<g>
</g>
<g>
</g>
<g>
</g>
<g>
</g>
<g>
</g>
<g>
</g>
<g>
</g>
<g>
</g>
<g>
</g>
<g>
</g>
<g>
</g>
<g>
</g>
<g>
</g>
<g>
</g>
<g>
</g>
</svg>
