<?xml version="1.0" encoding="iso-8859-1"?>
<!-- Generator: Adobe Illustrator 21.0.0, SVG Export Plug-In . SVG Version: 6.00 Build 0)  -->
<svg version="1.1" id="Capa_1" xmlns="http://www.w3.org/2000/svg" xmlns:xlink="http://www.w3.org/1999/xlink" x="0px" y="0px"
	 viewBox="0 0 617.557 617.557" style="enable-background:new 0 0 617.557 617.557;" xml:space="preserve">
<g>
	<g>
		<g id="filled_outline_29_">
			<path style="fill:#D0D7DF;" d="M555.154,380.826H61.755V216.147h358.002c28.438,0,56.392,7.421,81.084,21.532l80.158,45.801
				c16.242,9.284,26.256,26.544,26.256,45.246l0,0C607.254,357.503,583.931,380.826,555.154,380.826L555.154,380.826z"/>
			<path style="fill:#C3C9D1;" d="M602.983,349.32c-4.446-10.406-12.166-19.072-21.985-24.702l-80.158-45.801
				c-24.692-14.101-52.646-21.511-81.084-21.501H61.755v123.509h493.399C575.955,380.826,594.759,368.434,602.983,349.32z"/>
			<polygon style="fill:#808B96;" points="61.755,319.071 10.292,329.363 10.292,257.316 61.755,267.609 			"/>
			<path style="fill:#C3C9D1;" d="M154.387,216.147H61.755l-30.877-92.632h31.33c12.701,0,24.681,5.867,32.483,15.892
				L154.387,216.147z"/>
			<path style="fill:#D0D7DF;" d="M349.943,380.826H205.849l-20.585,113.217h26.112c9.685,0,19.01-3.633,26.153-10.169
				L349.943,380.826z"/>
			<rect x="216.141" y="277.901" style="fill:#576573;" width="82.34" height="20.585"/>
			<rect x="319.066" y="277.901" style="fill:#576573;" width="82.34" height="20.585"/>
			<path style="fill:#576573;" d="M580.998,283.48l-17.775-10.148L545.5,308.779H432.283l-20.585,30.877H205.849l-41.17-51.462
				H61.755v92.632h493.399c28.778,0.01,52.111-23.312,52.111-52.09C607.275,310.034,597.25,292.764,580.998,283.48z"/>
			<polygon style="fill:#B7BDC4;" points="54.89,195.562 61.755,216.147 154.387,216.147 138.372,195.562 			"/>
			<path style="fill:#576573;" d="M305.963,380.826l-78.727,72.171c-7.143,6.546-16.468,10.169-26.153,10.169h-10.21l-5.609,30.877
				h26.112c9.685,0,19.01-3.633,26.153-10.169l112.414-103.048H305.963z"/>
			<polygon style="fill:#576573;" points="41.17,263.492 41.17,323.188 61.755,319.071 61.755,267.609 			"/>
			<path d="M586.103,274.546l-80.158-45.801c-26.256-14.986-55.96-22.88-86.189-22.89H159.43l-56.608-72.768
				c-9.716-12.577-24.733-19.916-40.624-19.864h-31.32c-5.681,0-10.292,4.601-10.292,10.292c0,1.101,0.175,2.203,0.525,3.252
				l30.352,91.057v47.52l-39.111-7.822c-5.568-1.132-11.003,2.46-12.145,8.028C0.072,266.23,0,266.919,0,267.609v61.755
				c0,5.681,4.611,10.292,10.292,10.292c0.69,0,1.379-0.072,2.058-0.206l39.111-7.822v49.198c0,5.681,4.611,10.292,10.292,10.292
				h131.743L175.116,492.2c-1.019,5.589,2.686,10.951,8.285,11.97c0.618,0.113,1.235,0.165,1.863,0.165h26.112
				c12.258,0.01,24.084-4.58,33.111-12.876l109.46-100.341h201.207c34.459,0,62.393-27.923,62.403-62.383
				C617.557,306.339,605.556,285.662,586.103,274.546z M51.462,310.641l-30.877,6.175v-36.651l30.877,6.175V310.641z
				 M419.757,226.439c26.647,0.01,52.831,6.958,75.979,20.173l53.932,30.816l-10.529,21.058H432.283
				c-3.438,0-6.649,1.719-8.563,4.58l-17.528,26.297H210.789l-38.082-47.603c-1.956-2.439-4.909-3.849-8.028-3.86H72.047v-51.462
				H419.757z M45.112,133.807h17.085c9.521,0.031,18.506,4.426,24.383,11.919l46.769,60.128H69.176L45.112,133.807z
				 M230.551,476.278c-5.229,4.807-12.073,7.472-19.175,7.472h-13.761l16.838-92.632h109.1L230.551,476.278z M555.154,370.533
				H72.047v-72.047h87.692l38.082,47.603c1.956,2.439,4.909,3.86,8.028,3.86h205.849c3.438,0,6.649-1.719,8.563-4.58l17.528-26.297
				H545.5c3.921,0.021,7.513-2.182,9.263-5.692l12.855-25.731l8.327,4.755c20.05,11.456,27.028,37.001,15.573,57.051
				C584.065,362.505,570.181,370.554,555.154,370.533z"/>
			<rect x="216.141" y="277.901" width="82.34" height="20.585"/>
			<rect x="319.066" y="277.901" width="82.34" height="20.585"/>
		</g>
	</g>
</g>
<g>
</g>
<g>
</g>
<g>
</g>
<g>
</g>
<g>
</g>
<g>
</g>
<g>
</g>
<g>
</g>
<g>
</g>
<g>
</g>
<g>
</g>
<g>
</g>
<g>
</g>
<g>
</g>
<g>
</g>
</svg>
