<?xml version="1.0" encoding="iso-8859-1"?>
<!-- Generator: Adobe Illustrator 21.0.0, SVG Export Plug-In . SVG Version: 6.00 Build 0)  -->
<svg version="1.1" id="Capa_1" xmlns="http://www.w3.org/2000/svg" xmlns:xlink="http://www.w3.org/1999/xlink" x="0px" y="0px"
	 viewBox="0 0 617.547 617.547" style="enable-background:new 0 0 617.547 617.547;" xml:space="preserve">
<g>
	<g>
		<g id="filled_outline_32_">
			<circle style="fill:#F09E26;" cx="308.774" cy="308.774" r="174.972"/>
			<path d="M180.263,27.934l8.584,18.712c37.526-17.23,78.336-26.122,119.619-26.06V0.001
				C264.218-0.061,220.475,9.47,180.263,27.934z"/>
			<path d="M349.481,23.426c40.902,5.723,80.055,20.276,114.771,42.652l11.126-17.332C438.16,24.795,396.188,9.212,352.352,3.088
				L349.481,23.426z"/>
			<path d="M510.64,75.135l-13.462,15.583c31.186,27.028,56.269,60.386,73.581,97.85l18.712-8.584
				C570.933,139.834,544.059,104.098,510.64,75.135z"/>
			<path d="M48.941,141.882l17.312,11.136c22.396-34.686,51.905-64.225,86.57-86.642l-11.157-17.302
				C104.531,73.097,72.923,104.726,48.941,141.882z"/>
			<path d="M605.32,395.097l-19.761-5.753c-11.486,39.667-31.443,76.37-58.482,107.587l15.583,13.452
				C571.633,476.932,593.01,437.604,605.32,395.097z"/>
			<path d="M585.209,227.031c7.822,26.544,11.775,54.076,11.754,81.743c0,13.514-0.937,27.007-2.8,40.398l20.379,2.851
				c1.997-14.327,2.995-28.778,3.005-43.249c0.021-29.642-4.22-59.14-12.598-87.578L585.209,227.031z"/>
			<path d="M511.607,541.599l-13.524-15.521c-31.063,27.203-67.663,47.345-107.268,59.048l5.846,19.741
				C439.097,592.331,478.322,570.747,511.607,541.599z"/>
			<path d="M353.639,614.305l-2.954-20.369c-40.861,5.908-82.504,3.077-122.192-8.296l-5.723,19.782
				c27.954,8.069,56.907,12.155,86.004,12.125C323.791,617.537,338.777,616.456,353.639,614.305z"/>
			<path d="M20.586,308.774c-0.093-41.293,8.749-82.123,25.937-119.67L27.79,180.54C9.377,220.773-0.102,264.527,0.001,308.774
				v1.235h20.585V308.774z"/>
			<path d="M91.655,498.278l-15.49,13.555c29.138,33.265,65.017,59.964,105.261,78.305l8.502-18.753
				C152.35,554.269,118.858,529.341,91.655,498.278z"/>
			<path d="M3.294,353.958c6.35,43.794,22.16,85.674,46.316,122.748l17.291-11.208c-22.54-34.593-37.29-73.663-43.228-114.524
				L3.294,353.958z"/>
			<path d="M552.612,348.461c2.12-13.123,3.18-26.39,3.18-39.688c0.041-29.735-5.301-59.223-15.778-87.053l-19.257,7.205
				c9.603,25.525,14.492,52.574,14.451,79.849c0,12.197-0.978,24.372-2.913,36.415L552.612,348.461z"/>
			<path d="M264.517,65.707l3.685,20.266c38.967-7.009,79.077-3.777,116.418,9.387l6.896-19.401
				C350.788,61.601,307.024,58.07,264.517,65.707z"/>
			<path d="M94.558,185.686c-21.501,37.454-32.812,79.9-32.802,123.087c0,2.059,0.021,4.117,0.072,6.175l20.585-0.525
				c-0.072-1.914-0.072-3.777-0.072-5.651c-0.021-39.585,10.344-78.48,30.054-112.815L94.558,185.686z"/>
			<path d="M273.78,532.511c-39.122-6.103-75.938-22.386-106.784-47.211l-12.927,16.046c33.656,27.09,73.848,44.854,116.531,51.514
				L273.78,532.511z"/>
			<path d="M522.661,383.281c-13.071,37.382-35.694,70.689-65.614,96.615l13.493,15.562c32.637-28.284,57.308-64.606,71.563-105.374
				L522.661,383.281z"/>
			<path d="M425.223,503.002c-33.944,20.379-72.644,31.485-112.229,32.205l0.381,20.585c43.197-0.782,85.427-12.876,122.48-35.087
				L425.223,503.002z"/>
			<path d="M138.568,458.107c-26.133-29.745-44-65.82-51.812-104.633l-20.183,4.035c8.522,42.353,28.006,81.722,56.516,114.184
				L138.568,458.107z"/>
			<path d="M119.115,150.497l15.799,13.205c25.371-30.394,58.245-53.624,95.37-67.385l-7.133-19.319
				C182.661,92.015,146.802,117.355,119.115,150.497z"/>
			<path d="M430.565,93.816l-10.169,17.899c34.439,19.566,63.175,47.767,83.369,81.835l17.713-10.498
				C499.452,145.906,468.111,115.152,430.565,93.816z"/>
			<path d="M308.774,494.038c102.317,0,185.264-82.947,185.264-185.264S411.091,123.51,308.774,123.51
				S123.51,206.457,123.51,308.774C123.634,411.04,206.508,493.914,308.774,494.038z M308.774,144.095
				c90.954,0,164.679,73.725,164.679,164.679s-73.725,164.679-164.679,164.679s-164.679-73.725-164.679-164.679
				C144.208,217.871,217.871,144.208,308.774,144.095z"/>
		</g>
	</g>
</g>
<g>
</g>
<g>
</g>
<g>
</g>
<g>
</g>
<g>
</g>
<g>
</g>
<g>
</g>
<g>
</g>
<g>
</g>
<g>
</g>
<g>
</g>
<g>
</g>
<g>
</g>
<g>
</g>
<g>
</g>
</svg>
