<?xml version="1.0" encoding="UTF-8" standalone="no"?>
<!DOCTYPE svg PUBLIC "-//W3C//DTD SVG 1.1//EN" "http://www.w3.org/Graphics/SVG/1.1/DTD/svg11.dtd">
<svg width="100%" height="100%" viewBox="0 0 1280 640" version="1.1" xmlns="http://www.w3.org/2000/svg" xmlns:xlink="http://www.w3.org/1999/xlink" xml:space="preserve" xmlns:serif="http://www.serif.com/" style="fill-rule:evenodd;clip-rule:evenodd;stroke-linejoin:round;stroke-miterlimit:1.41421;">
    <g id="Artboard1" transform="matrix(1,0,0,0.888889,0,0)">
        <rect x="0" y="0" width="1280" height="720" style="fill:none;"/>
        <g transform="matrix(0.208059,0,0,0.234066,64,72)">
            <g transform="matrix(1,0,0,1,-307.605,-307.605)">
                <clipPath id="_clip1">
                    <rect x="0" y="0" width="615.21" height="615.21"/>
                </clipPath>
                <g clip-path="url(#_clip1)">
                    <g id="filled_outline_6_">
                        <path d="M113.34,206.33C119.032,178.88 125.835,148.95 149.6,132.101C170.576,117.28 196.029,117.28 219.98,111.403C271.133,98.795 310.059,27.972 366.246,43.298L376.857,46.19C411.563,55.659 467.482,60.527 501.993,50.379L509.856,48.413C531.995,42.876 553.465,34.94 573.875,24.74C583.148,19.141 593.05,14.674 603.383,11.432C600.933,39.355 579.35,70.963 571.981,99.154C562.172,133.479 561.565,169.77 570.2,204.405C579.741,239.399 570.035,270.421 549.615,299.528C528.824,326.937 513.633,358.174 504.894,391.45C496.856,426.753 491.761,458.474 463.354,484.247C429.152,515.268 389.063,508.609 348.861,523.245C325.94,531.592 307.877,551.755 284.749,560.555C213.309,587.727 131.392,533.62 60.559,576.086C44.688,586.893 27.85,596.197 10.25,603.876C23.095,571.043 40.222,542.615 46.531,506.736C56.381,450.704 35.405,397.224 42.63,341.995C45.913,316.881 64.368,300.455 80.156,282.844C96.253,264.184 106.927,241.479 111.033,217.178C111.838,213.596 112.579,209.983 113.34,206.33Z" style="fill:rgb(227,98,149);fill-rule:nonzero;"/>
                        <path d="M181.075,271.079C188.733,212.227 242.367,170.522 301.291,177.613C319.992,178.992 338.539,173.331 353.278,161.742C365.001,152.191 377.815,144.049 391.453,137.503C417.05,127.427 446.199,134.034 464.941,154.166C479.721,170.253 485.011,192.896 478.877,213.862C467.916,248.208 462.121,283.995 461.689,320.039C459.939,374.712 414.189,417.611 359.526,415.862C357.828,415.811 356.129,415.708 354.442,415.564C338.653,414.37 322.947,418.816 310.123,428.111L272.926,455.221C237.551,480.859 188.888,477.494 157.373,447.234C126.804,417.952 122.759,370.524 147.935,336.508L163.796,314.894C173.273,302.039 179.232,286.94 181.075,271.079Z" style="fill:rgb(42,144,222);fill-rule:nonzero;"/>
                        <path d="M257.033,280.013C271.165,249.908 300.93,230.228 334.165,229.014C358.754,227.707 388.087,232.05 392.122,261.631C395.086,283.389 382.406,305.889 370.889,323.386C352.939,350.692 320.456,360.274 290.546,368.138C279.327,371.967 267.028,370.958 256.581,365.369C229.161,347.542 245.629,302.348 257.033,280.013Z" style="fill:rgb(35,121,186);fill-rule:nonzero;"/>
                        <path d="M13.483,570.332C9.181,579.894 4.734,589.774 0.71,600.067C-1.359,605.357 1.245,611.327 6.546,613.406C8.79,614.281 11.27,614.343 13.555,613.581C26.956,608.435 39.718,601.745 51.565,593.634C56.351,590.629 61.065,587.675 65.892,584.916C101.277,563.683 140.059,568.726 181.095,574.078C216.655,578.71 253.42,583.516 288.445,570.177C300.58,565.021 312.035,558.361 322.523,550.374C331.704,543.283 341.749,537.406 352.423,532.877C365.69,528.462 379.327,525.209 393.161,523.171C419.149,518.591 446.033,513.846 470.354,491.841C498.905,465.935 505.811,434.924 513.129,402.091L515.012,393.692C523.514,361.734 538.16,331.742 558.137,305.393C582.458,270.635 589.673,236.67 580.132,201.676C571.929,168.781 572.557,134.312 581.954,101.736C585.587,89.642 590.198,77.858 595.725,66.495C604.587,49.512 610.639,31.213 613.634,12.295C614.138,6.634 609.949,1.642 604.288,1.138C603.248,1.045 602.209,1.117 601.19,1.334C592.369,3.691 583.919,7.262 576.076,11.935C573.791,13.16 571.516,14.374 569.262,15.496C549.521,25.366 528.761,33.045 507.353,38.407L499.119,40.465C467.83,49.666 413.784,45.529 379.593,36.225L368.981,33.333C330.539,22.938 300.619,46.26 271.697,68.904C253.376,83.241 236.075,96.797 217.507,101.366C211.064,102.951 204.528,104.083 197.591,105.277C178.437,107.161 159.972,113.449 143.648,123.659C115.858,143.348 108.582,178.507 103.25,204.187L103.116,204.846L101.058,214.922C97.353,237.473 87.493,258.562 72.569,275.874C70.408,278.282 68.215,280.681 65.982,283.079C51.768,298.425 35.743,315.737 32.47,340.624C29.969,367.57 30.803,394.731 34.95,421.471C39.51,449.065 40.014,477.184 36.432,504.922C31.598,527.608 23.889,549.593 13.483,570.332ZM55.404,419.105C51.452,394.033 50.597,368.559 52.872,343.281C55.28,324.919 67.786,311.374 81.053,297.099C83.338,294.619 85.623,292.159 87.856,289.668C105.25,269.732 116.778,245.369 121.173,219.278L123.314,208.986L123.448,208.358C128.337,184.788 134.43,155.445 155.581,140.428C169.455,132.112 185.028,127.017 201.135,125.545C208.103,124.33 215.318,123.095 222.471,121.325C245.32,115.705 265.195,100.143 284.411,85.096C310.492,64.686 335.081,45.398 363.58,53.189L374.192,56.091C410.617,66.023 468.81,70.84 504.525,60.321L512.378,58.355C535.237,52.653 557.407,44.45 578.476,33.91C580.884,32.706 583.324,31.399 585.794,30.081L589.17,28.28C585.619,38.408 581.543,48.34 576.953,58.046C570.942,70.448 565.961,83.324 562.029,96.529C551.716,132.583 551.109,170.727 560.269,207.09C568.215,236.218 562.163,263.698 541.228,293.608C519.676,322.108 503.949,354.57 494.912,389.142L492.998,397.623C486.123,428.5 480.194,455.086 456.48,476.597C436.605,494.619 414.816,498.468 389.579,502.915C374.552,505.138 359.762,508.689 345.373,513.537C332.991,518.632 321.34,525.332 310.718,533.473C301.599,540.472 291.667,546.328 281.127,550.908C250.919,562.394 218.281,558.113 183.76,553.625C141.057,548.067 96.851,542.303 55.485,567.118C50.617,569.897 45.656,573.005 40.633,576.165C37.329,578.223 33.974,580.333 30.629,582.34L32.255,578.738C43.371,556.445 51.584,532.813 56.71,508.43C60.653,478.75 60.211,448.655 55.404,419.105Z" style="fill-rule:nonzero;"/>
                        <path d="M219.98,482.496C241.152,482.568 261.798,475.919 278.945,463.506L316.132,436.406C326.991,428.563 340.278,424.806 353.638,425.815C384.289,427.997 414.497,417.53 437.223,396.842C458.981,377.245 471.569,349.445 471.95,320.163C472.413,285.055 478.064,250.205 488.727,216.745C495.963,192.342 489.808,165.931 472.527,147.24C450.954,123.938 417.287,116.27 387.748,127.921C376.231,132.985 365.434,139.531 355.615,147.394C352.898,149.391 350.181,151.377 347.381,153.312C334.68,163.481 318.634,168.504 302.403,167.382C237.859,159.735 179.192,205.464 170.855,269.915C169.208,284.005 163.918,297.427 155.509,308.851L139.638,330.465C111.313,368.568 115.832,421.821 150.177,454.602C168.94,472.616 193.971,482.62 219.98,482.496ZM156.219,342.684L172.09,321.07C182.64,306.753 189.258,289.925 191.296,272.263C197.688,223.22 239.753,186.702 289.208,187.268C292.882,187.268 296.557,187.464 300.211,187.855C321.403,189.574 342.461,183.254 359.218,170.173C362.079,168.114 364.93,166.056 367.761,163.998C376.17,157.226 385.402,151.554 395.252,147.129C416.856,138.535 441.527,144.113 457.336,161.158C469.749,174.528 474.195,193.445 469.059,210.943C457.84,246.184 451.901,282.897 451.438,319.888C451.098,343.478 440.94,365.864 423.391,381.643C404.895,398.564 380.245,407.127 355.234,405.316C337.006,403.916 318.871,409.052 304.091,419.808L266.894,446.898C235.533,469.438 192.562,466.495 164.577,439.868C137.661,414.227 134.069,372.542 156.219,342.684Z" style="fill-rule:nonzero;"/>
                        <rect x="491.701" y="256.227" width="20.585" height="20.585"/>
                        <rect x="203.512" y="19.501" width="20.585" height="20.585"/>
                        <rect x="38.833" y="60.671" width="20.585" height="20.585"/>
                        <rect x="193.22" y="400.322" width="20.585" height="20.585"/>
                        <rect x="69.711" y="390.029" width="20.585" height="20.585"/>
                        <rect x="28.541" y="225.35" width="20.585" height="20.585"/>
                        <rect x="131.465" y="492.953" width="20.585" height="20.585"/>
                        <rect x="471.116" y="534.123" width="20.585" height="20.585"/>
                        <rect x="491.701" y="101.841" width="20.585" height="20.585"/>
                        <rect x="594.625" y="143.01" width="20.585" height="20.585"/>
                        <rect x="368.191" y="575.293" width="20.585" height="20.585"/>
                        <rect x="532.87" y="431.199" width="20.585" height="20.585"/>
                        <path d="M250.858,373.983C258.083,378.501 266.472,380.807 274.994,380.591C281.118,380.529 287.201,379.685 293.109,378.08C327.589,368.992 360.123,358.411 379.432,329.026C391.845,310.129 405.667,285.242 402.261,260.242C399.976,243.507 388.068,215.851 333.559,218.722C296.671,220.163 263.622,241.973 247.802,275.33C239.155,292.385 213.805,349.806 250.858,373.983ZM266.152,284.686C278.626,257.874 305.088,240.336 334.638,239.286C337.067,239.162 339.352,239.101 341.524,239.101C378.577,239.101 381.026,256.928 381.85,263.01C384.341,281.259 372.679,301.833 362.222,317.725C346.897,341.048 319.488,349.848 287.859,358.174C279.429,361.128 270.177,360.613 262.128,356.743C238.321,341.233 263.208,290.419 266.152,284.686Z" style="fill-rule:nonzero;"/>
                    </g>
                </g>
            </g>
        </g>
        <g transform="matrix(0.209091,0,0,0.235227,448,648)">
            <g transform="matrix(1,0,0,1,-306.087,-306.087)">
                <g id="filled_outline_9_">
                    <path d="M497.372,130.323C409.433,50.114 252.052,63.113 146.554,159.317C89.328,211.541 56.495,279.954 56.495,347.03C55.857,398.225 77.059,447.268 114.802,481.861C155.282,517.082 207.496,535.845 261.13,534.466C337.016,533.354 409.825,504.299 465.62,452.857C522.867,400.633 555.699,332.219 555.699,265.143C556.327,213.949 535.114,164.916 497.372,130.323Z" style="fill:rgb(38,131,201);fill-rule:nonzero;"/>
                    <g transform="matrix(0.8491,-0.5283,0.5283,0.8491,-115.5,207.908)">
                        <ellipse cx="306.105" cy="306.088" rx="155.802" ry="126.21" style="fill:rgb(42,144,222);"/>
                    </g>
                    <g transform="matrix(0.8491,-0.5283,0.5283,0.8491,-115.5,207.908)">
                        <ellipse cx="306.105" cy="306.088" rx="71.916" ry="58.247" style="fill:rgb(105,204,215);"/>
                    </g>
                    <path d="M365.701,250.436C337.839,225.045 288.436,228.74 255.572,258.67C238.353,273.563 228.153,294.992 227.432,317.749C227.247,334.443 234.174,350.417 246.483,361.698C259.41,372.968 276.094,378.989 293.242,378.567C316.74,378.279 339.311,369.335 356.613,353.433C373.832,338.54 384.032,317.111 384.753,294.354C384.938,277.66 378.011,261.686 365.702,250.416L365.702,250.436L365.701,250.436ZM342.749,338.241C317.512,361.255 280.552,364.94 260.348,346.537C252.279,339.188 247.771,328.71 247.997,317.79C248.717,300.828 256.478,284.926 269.416,273.934C282.889,261.418 300.499,254.296 318.892,253.925C330.944,253.575 342.698,257.754 351.828,265.638C359.897,272.987 364.405,283.465 364.179,294.385C363.457,311.346 355.686,327.248 342.749,338.241Z" style="fill-rule:nonzero;"/>
                    <path d="M204.706,212.333C169.887,242.325 149.209,285.502 147.655,331.427C147.254,364.229 160.85,395.642 185.027,417.801C210.83,440.249 244.106,452.209 278.297,451.334C326.239,450.675 372.246,432.355 407.508,399.872C442.327,369.88 463.005,326.703 464.559,280.778C464.96,247.976 451.364,216.563 427.187,194.404C371.259,143.405 271.463,151.464 204.706,212.333ZM393.573,384.629C334.484,438.551 247.132,446.59 198.871,402.579C178.862,384.403 167.695,358.466 168.22,331.438C169.784,291.297 188.054,253.637 218.602,227.546C277.712,173.624 365.053,165.585 413.304,209.596C433.313,227.772 444.48,253.709 443.955,280.737C442.39,320.877 424.121,358.537 393.573,384.629Z" style="fill-rule:nonzero;"/>
                    <path d="M497.372,130.323C377.372,20.873 162.425,38.823 18.228,170.361L0.669,186.386L14.543,201.588L32.102,185.573C115.193,109.779 222.718,73.54 319.467,79.808C254.954,87.651 194.496,115.44 146.554,159.317C68.332,230.705 23.446,324.13 23.446,415.65C22.581,485.237 51.411,551.891 102.698,598.917L117.231,612.174L131.116,596.962L116.573,583.705C69.587,540.559 43.208,479.432 44.031,415.65C44.155,387.449 48.529,359.433 57.01,332.538C56.681,337.365 56.465,342.203 56.465,347.03C55.827,398.225 77.029,447.268 114.772,481.861C119.599,486.266 124.653,490.404 129.912,494.274C183.031,534.013 247.894,554.866 314.219,553.517C418.029,551.983 517.639,512.213 593.947,441.813L611.506,425.788L597.632,410.586L580.073,426.601C497.25,502.148 390.167,538.408 293.645,532.428C357.829,524.359 417.916,496.549 465.621,452.857C543.844,381.469 588.75,288.044 588.75,196.575C589.615,126.988 560.785,60.334 509.498,13.308L494.953,0L481.058,15.212L495.601,28.469C542.576,71.625 568.955,132.742 568.122,196.524C568.009,224.725 563.635,252.741 555.164,279.635C555.493,274.808 555.709,269.97 555.709,265.143C556.337,213.949 535.125,164.916 497.372,130.323ZM461.41,428.392C458.219,431.48 455.039,434.567 451.725,437.655C353.885,526.901 208.978,539.921 128.666,466.659C95.226,435.936 76.473,392.43 77.08,347.03C77.08,289.567 103.779,230.725 150.764,183.782C153.955,180.694 157.135,177.607 160.449,174.519C258.227,85.273 403.207,72.253 483.508,145.515C516.948,176.238 535.701,219.744 535.094,265.144C535.094,322.555 508.395,381.448 461.41,428.392Z" style="fill-rule:nonzero;"/>
                </g>
            </g>
        </g>
        <g transform="matrix(0.207311,0,0,0.233225,704,72)">
            <g transform="matrix(1,0,0,1,-308.715,-308.715)">
                <clipPath id="_clip2">
                    <rect x="0" y="0" width="617.43" height="617.43"/>
                </clipPath>
                <g clip-path="url(#_clip2)">
                    <g id="filled_outline_11_">
                        <path d="M502.951,82.372L114.247,82.372C87.168,105.602 64.452,133.484 47.171,164.712L570.027,164.712C552.757,133.484 530.041,105.602 502.951,82.372Z" style="fill:rgb(240,158,38);fill-rule:nonzero;"/>
                        <path d="M30.981,233.28C58.06,228.772 85.685,228.772 112.765,233.28L154.491,240.238C181.57,244.746 209.195,244.746 236.275,240.238L278,233.28C305.079,228.772 332.704,228.772 359.784,233.28L401.51,240.238C428.589,244.746 456.214,244.746 483.294,240.238L525.02,233.28C548.744,229.328 572.921,228.834 596.789,231.818L597.015,231.818C590.798,208.434 581.731,185.893 570.028,164.711L47.171,164.711C34.872,186.943 25.495,210.656 19.248,235.286L20.411,235.039L30.981,233.28Z" style="fill:rgb(250,188,95);fill-rule:nonzero;"/>
                        <path d="M308.599,10.325C237.272,10.243 168.282,35.809 114.247,82.372L502.951,82.372C448.916,35.809 379.936,10.232 308.599,10.325Z" style="fill:rgb(227,136,0);fill-rule:nonzero;"/>
                        <path d="M338.931,370.746C379.37,357.263 423.092,357.263 463.531,370.746C483.622,377.436 504.66,380.853 525.831,380.853L598.269,380.853C604.125,357.283 607.079,333.086 607.079,308.806L10.118,308.806C10.118,333.086 13.072,357.283 18.928,380.853L276.63,380.853C297.813,380.843 318.851,377.436 338.931,370.746Z" style="fill:rgb(250,188,95);fill-rule:nonzero;"/>
                        <path d="M525.832,380.853C504.66,380.853 483.623,377.436 463.532,370.746C423.093,357.263 379.371,357.263 338.932,370.746C318.841,377.436 297.803,380.853 276.632,380.853L18.929,380.853C31.424,431.101 56.815,477.211 92.571,514.655L276.631,514.655C297.803,514.655 318.84,518.072 338.931,524.762C379.37,538.245 423.092,538.245 463.531,524.762C483.22,518.216 503.826,514.83 524.575,514.706C560.362,477.252 585.764,431.121 598.269,380.853C598.27,380.853 525.832,380.853 525.832,380.853Z" style="fill:rgb(240,158,38);fill-rule:nonzero;"/>
                        <path d="M463.531,524.762C423.092,538.245 379.37,538.245 338.931,524.762C318.84,518.072 297.802,514.655 276.631,514.655L92.571,514.655C206.107,633.965 394.87,638.638 514.18,525.102C517.731,521.726 521.199,518.258 524.575,514.707C503.826,514.819 483.231,518.216 463.531,524.762Z" style="fill:rgb(250,188,95);fill-rule:nonzero;"/>
                        <path d="M597.014,231.86L596.788,231.86C572.92,228.875 548.743,229.369 525.019,233.322L483.293,240.28C456.214,244.788 428.589,244.788 401.509,240.28L359.783,233.322C332.704,228.814 305.079,228.814 277.999,233.322L236.273,240.28C209.194,244.788 181.569,244.788 154.489,240.28L112.763,233.322C85.684,228.814 58.059,228.814 30.979,233.322L20.409,235.041L19.267,235.288C13.184,259.321 10.107,284.012 10.117,308.807L607.08,308.807C607.09,282.828 603.704,256.953 597.014,231.86Z" style="fill:rgb(240,158,38);fill-rule:nonzero;"/>
                        <path d="M493.801,74.828C493.801,75.631 493.863,76.423 493.863,77.226C493.842,302.425 330.131,494.204 107.732,529.579C229.255,640.964 418.059,632.75 529.444,511.238C640.829,389.726 632.616,200.91 511.103,89.525C505.525,84.4 499.761,79.5 493.801,74.828Z" style="fill:rgb(230,148,30);fill-rule:nonzero;"/>
                        <path d="M308.599,0.033C198.357,0.115 96.503,58.957 41.366,154.419L40.995,154.419L40.995,155.067C-43.845,302.919 7.237,491.558 155.087,576.399C302.937,661.24 491.578,610.168 576.429,462.307C661.28,314.446 610.188,125.816 462.337,40.976C415.548,14.123 362.542,0.012 308.599,0.033ZM308.599,20.617C367.276,20.566 424.543,38.526 472.681,72.079L144.517,72.079C192.655,38.526 249.932,20.566 308.599,20.617ZM308.599,596.994C238.487,597.035 170.783,571.407 118.281,524.947L276.63,524.947C296.7,524.937 316.637,528.179 335.678,534.529C378.248,548.619 424.214,548.619 466.783,534.529C476.365,531.338 486.195,528.93 496.168,527.324C444.038,572.303 377.466,597.035 308.599,596.994ZM519.8,504.599C499.555,505.134 479.495,508.644 460.269,515.005C421.93,527.696 380.533,527.696 342.194,515.005C321.053,507.955 298.914,504.352 276.631,504.363L97.162,504.363C85.377,491.621 74.766,477.839 65.441,463.193L277.723,463.193C293.831,463.522 309.537,458.15 322.063,448.022L334.548,438.388C352.714,426.86 373.968,421.158 395.469,422.023C434.107,422.023 462.987,437.719 462.987,451.758C462.987,455.124 458.633,460.558 448.917,465.138C420.88,478.292 386.473,475.091 375.11,467.114C374.06,466.435 373.165,465.55 372.475,464.51C382.881,458.129 395.736,457.233 406.924,462.122L416.125,443.699C399.678,436.186 380.668,436.71 364.663,445.14C357.777,448.063 352.888,454.341 351.746,461.731C351.17,470.716 355.616,479.28 363.294,483.973C376.314,491.651 391.289,495.356 406.378,494.636C424.05,494.708 441.527,491.013 457.655,483.777C474.123,476.047 483.571,464.376 483.571,451.778C483.571,423.052 445.695,401.438 395.468,401.438C369.418,400.481 343.718,407.706 321.98,422.085L309.485,431.729C300.572,439.088 289.281,442.958 277.723,442.608L53.47,442.608C44.814,426.171 37.784,408.941 32.463,391.146L276.631,391.146C298.914,391.156 321.053,387.554 342.194,380.504C380.533,367.813 421.93,367.813 460.269,380.504C481.41,387.554 503.549,391.157 525.832,391.146L584.736,391.146C572.076,433.437 549.854,472.25 519.8,504.599ZM590.056,370.56L525.831,370.56C505.761,370.57 485.824,367.328 466.783,360.978C424.213,346.877 378.247,346.888 335.678,360.978C316.637,367.328 296.701,370.571 276.63,370.56L27.142,370.56C23.437,353.639 21.275,336.41 20.668,319.098L596.53,319.098C595.933,336.41 593.762,353.629 590.056,370.56ZM596.53,298.513L20.668,298.513C21.306,280.244 23.694,262.067 27.79,244.251L32.669,243.428C58.627,239.105 85.119,239.105 111.077,243.428L152.803,250.386C180.994,255.11 209.772,255.11 237.963,250.386L279.689,243.428C305.647,239.105 332.139,239.105 358.097,243.428L399.823,250.386C428.014,255.09 456.792,255.09 484.983,250.386L526.709,243.428C547.222,240.062 568.085,239.393 588.762,241.442C593.257,260.153 595.861,279.277 596.53,298.513ZM582.811,220.291C562.936,218.963 542.979,219.931 523.331,223.163L481.605,230.121C455.647,234.444 429.155,234.444 403.197,230.121L361.471,223.163C333.28,218.439 304.502,218.439 276.311,223.163L234.585,230.121C208.627,234.444 182.135,234.444 156.177,230.121L114.451,223.163C87.691,218.737 60.405,218.552 33.594,222.628C38.771,206.191 45.42,190.248 53.469,175.005L563.727,175.005C571.376,189.516 577.757,204.677 582.811,220.291ZM65.44,154.419C80.066,131.457 97.861,110.666 118.281,92.664L498.916,92.664C519.336,110.665 537.132,131.456 551.757,154.419L65.44,154.419Z" style="fill-rule:nonzero;"/>
                    </g>
                </g>
            </g>
        </g>
        <g transform="matrix(0.207256,0,0,0.233163,1088,648)">
            <g transform="matrix(1,0,0,1,-308.797,-308.797)">
                <clipPath id="_clip3">
                    <rect x="0" y="0" width="617.594" height="617.594"/>
                </clipPath>
                <g clip-path="url(#_clip3)">
                    <g id="filled_outline_16_">
                        <circle cx="308.797" cy="308.797" r="298.481" style="fill:rgb(240,71,41);"/>
                        <path d="M493.999,74.819C493.999,75.622 494.061,76.414 494.061,77.217C494.04,302.416 330.339,494.195 107.93,529.57C229.453,640.965 418.257,632.752 529.653,511.229C641.049,389.706 632.824,200.902 511.312,89.517C505.722,84.401 499.948,79.502 493.999,74.819Z" style="fill:rgb(221,56,26);fill-rule:nonzero;"/>
                        <path d="M407.862,463.184C373.753,463.184 346.107,435.538 346.107,401.429C346.107,367.32 373.753,339.674 407.862,339.674C441.971,339.674 469.617,367.32 469.617,401.429C469.586,435.528 441.961,463.153 407.862,463.184ZM407.862,360.259C385.126,360.259 366.692,378.693 366.692,401.429C366.692,424.165 385.126,442.599 407.862,442.599C430.598,442.599 449.032,424.165 449.032,401.429C449.032,378.693 430.598,360.259 407.862,360.259Z" style="fill:rgb(196,49,23);fill-rule:nonzero;"/>
                        <path d="M205.873,216.165C183.137,216.165 164.703,197.731 164.703,174.995C164.703,152.259 183.137,133.825 205.873,133.825C228.609,133.825 247.043,152.259 247.043,174.995C247.043,197.731 228.609,216.165 205.873,216.165ZM205.873,154.411C194.5,154.411 185.288,163.623 185.288,174.996C185.288,186.369 194.5,195.581 205.873,195.581C217.246,195.581 226.458,186.369 226.458,174.996C226.458,163.622 217.246,154.411 205.873,154.411Z" style="fill:rgb(196,49,23);fill-rule:nonzero;"/>
                        <path d="M308.797,20.609C393.916,20.599 474.66,58.29 529.313,123.533L365.405,123.533C343.317,123.502 321.528,118.366 301.757,108.506L283.869,99.562C237.913,77.052 184.135,77.052 138.179,99.562L120.27,108.506C111.604,112.705 102.495,115.875 93.098,117.975C147.689,56.066 226.252,20.598 308.797,20.609ZM294.151,596.615C284.754,596.142 275.48,595.195 266.361,593.836C249.101,588.752 236.75,578.171 236.75,566.108C236.75,549.372 260.32,535.231 288.212,535.231C316.104,535.231 339.674,549.373 339.674,566.108C339.674,581.629 319.336,594.762 294.151,596.615ZM348.907,594.135C356.06,586.539 360.105,576.545 360.26,566.109C360.26,537.29 328.611,514.647 288.213,514.647C247.815,514.647 216.166,537.29 216.166,566.109C216.197,571.935 217.514,577.688 220.036,582.937C148.442,559.573 88.766,509.233 53.669,442.6L261.072,442.6C289.325,443.135 316.24,454.776 335.98,475.001C375.915,514.143 439.81,514.143 479.745,475.001C499.486,454.787 526.401,443.146 554.653,442.6L563.916,442.6C520.749,524.703 440.767,581.075 348.938,594.136L348.907,594.136L348.907,594.135ZM582.247,399.607C581.815,400.883 581.393,402.16 580.95,403.425C578.809,409.6 576.504,415.652 573.941,421.663L573.787,422.013L554.653,422.013C521.007,422.538 488.925,436.289 465.335,460.291C433.418,491.601 382.306,491.601 350.389,460.291C326.799,436.289 294.717,422.538 261.071,422.013L43.808,422.013L43.654,421.653C41.091,415.652 38.786,409.559 36.645,403.425C36.202,402.159 35.78,400.883 35.348,399.607C33.29,393.432 31.365,387.153 29.728,380.844L261.071,380.844C294.717,380.319 326.799,366.568 350.389,342.566C382.306,311.256 433.418,311.256 465.335,342.566C488.925,366.568 521.007,380.319 554.653,380.844L587.867,380.844C586.23,387.154 584.315,393.401 582.247,399.607ZM596.985,308.797C596.964,326.057 595.39,343.277 592.292,360.259L554.653,360.259C526.4,359.713 499.485,348.073 479.745,327.858C439.81,288.716 375.915,288.716 335.98,327.858C316.239,348.083 289.324,359.723 261.072,360.259L25.302,360.259C22.204,343.276 20.629,326.057 20.609,308.797C20.609,301.87 20.938,295.015 21.422,288.212L181.171,288.212C226.159,288.15 269.799,272.845 304.968,244.788C336.463,219.654 375.543,205.934 415.838,205.872L417.897,205.872C458.213,205.923 497.314,219.643 528.829,244.788C548.662,260.484 571.296,272.269 595.534,279.504C596.512,289.242 596.996,299.019 596.985,308.797ZM592.23,256.995C573.951,250.377 556.865,240.826 541.663,228.711C506.504,200.664 462.874,185.359 417.896,185.287L415.837,185.287C370.849,185.349 327.209,200.654 292.04,228.711C260.545,253.845 221.465,267.565 181.17,267.627L23.593,267.627C30.108,222.351 47.369,179.297 73.933,142.059C93.18,140.175 111.974,135.04 129.512,126.878L147.421,117.934C187.572,98.275 234.557,98.275 274.708,117.934L292.596,126.878C315.208,138.169 340.126,144.066 365.405,144.118L545.09,144.118C568.743,177.918 584.83,216.423 592.23,256.995ZM308.797,0.024C198.555,0.106 96.701,58.948 41.564,154.411L41.193,154.411L41.193,155.059C-36.69,290.189 -1.325,462.196 123.533,555.651L123.533,555.816L123.749,555.816C233.374,638.156 384.22,638.156 493.845,555.816L494.061,555.816L494.061,555.651C630.456,453.396 658.133,259.939 555.888,123.543C497.571,45.753 406.019,-0.007 308.797,0.024Z" style="fill-rule:nonzero;"/>
                        <path d="M407.862,339.675C373.753,339.675 346.107,367.321 346.107,401.43C346.107,435.539 373.753,463.185 407.862,463.185C441.971,463.185 469.617,435.539 469.617,401.43C469.586,367.341 441.961,339.716 407.862,339.675ZM407.862,442.599C385.126,442.599 366.692,424.165 366.692,401.429C366.692,378.693 385.126,360.259 407.862,360.259C430.598,360.259 449.032,378.693 449.032,401.429C449.032,424.165 430.598,442.599 407.862,442.599Z" style="fill-rule:nonzero;"/>
                        <path d="M205.873,133.826C183.137,133.826 164.703,152.26 164.703,174.996C164.703,197.732 183.137,216.166 205.873,216.166C228.609,216.166 247.043,197.732 247.043,174.996C247.043,152.26 228.609,133.826 205.873,133.826ZM205.873,195.58C194.5,195.58 185.288,186.368 185.288,174.995C185.288,163.622 194.5,154.41 205.873,154.41C217.246,154.41 226.458,163.622 226.458,174.995C226.458,186.369 217.246,195.58 205.873,195.58Z" style="fill-rule:nonzero;"/>
                    </g>
                </g>
            </g>
        </g>
        <g transform="matrix(0.207272,0,0,0.233181,576,360)">
            <g transform="matrix(1,0,0,1,-308.774,-308.774)">
                <g id="filled_outline_17_">
                    <circle cx="308.773" cy="308.773" r="298.481" style="fill:rgb(195,201,209);"/>
                    <path d="M493.976,74.795C493.976,75.598 494.038,76.39 494.038,77.193C494.017,302.392 330.306,494.171 107.907,529.546C229.43,640.931 418.234,632.717 529.619,511.205C641.004,389.693 632.79,200.878 511.277,89.493C505.699,84.367 499.925,79.468 493.976,74.795Z" style="fill:rgb(183,189,196);fill-rule:nonzero;"/>
                    <path d="M165.924,266.358C148.869,266.358 135.047,252.535 135.047,235.481C135.047,218.427 148.87,204.604 165.924,204.604C182.978,204.604 196.801,218.427 196.801,235.481C196.801,252.535 182.979,266.358 165.924,266.358ZM165.924,225.188C160.243,225.188 155.632,229.799 155.632,235.48C155.632,241.161 160.243,245.772 165.924,245.772C171.605,245.772 176.216,241.161 176.216,235.48C176.216,229.799 171.606,225.188 165.924,225.188Z" style="fill:rgb(128,139,150);fill-rule:nonzero;"/>
                    <rect x="83.585" y="256.066" width="20.585" height="20.585" style="fill:rgb(128,139,150);"/>
                    <rect x="227.679" y="132.556" width="20.585" height="20.585" style="fill:rgb(128,139,150);"/>
                    <rect x="361.481" y="214.896" width="20.585" height="20.585" style="fill:rgb(128,139,150);"/>
                    <path d="M248.264,400.16C225.528,400.16 207.094,381.726 207.094,358.99C207.094,336.254 225.528,317.82 248.264,317.82C271,317.82 289.434,336.254 289.434,358.99C289.434,381.726 271,400.16 248.264,400.16ZM248.264,338.405C236.891,338.405 227.679,347.617 227.679,358.99C227.679,370.363 236.891,379.575 248.264,379.575C259.637,379.575 268.849,370.363 268.849,358.99C268.849,347.617 259.637,338.405 248.264,338.405Z" style="fill:rgb(128,139,150);fill-rule:nonzero;"/>
                    <rect x="526.16" y="420.745" width="20.585" height="20.585" style="fill:rgb(128,139,150);"/>
                    <rect x="474.698" y="163.434" width="20.585" height="20.585" style="fill:rgb(128,139,150);"/>
                    <rect x="392.358" y="533.962" width="20.585" height="20.585" style="fill:rgb(128,139,150);"/>
                    <rect x="155.632" y="482.499" width="20.585" height="20.585" style="fill:rgb(128,139,150);"/>
                    <rect x="402.651" y="379.575" width="20.585" height="20.585" style="fill:rgb(128,139,150);"/>
                    <path d="M308.773,0C138.238,0 0,138.238 0,308.773C0,479.308 138.238,617.546 308.773,617.546C479.308,617.546 617.546,479.308 617.546,308.773C617.351,138.32 479.226,0.196 308.773,0ZM263.487,24.177C257.023,30.919 250.735,37.804 244.621,44.844L214.083,80.044C189,108.976 160.912,135.15 130.292,158.133C90.501,187.971 54.879,223.006 24.383,262.303C44.618,139.782 140.883,43.908 263.487,24.177ZM20.585,308.773C20.585,306.498 20.709,304.265 20.76,302.001L25.381,295.445C57.864,249.253 97.428,208.464 142.612,174.591C174.416,150.743 203.584,123.571 229.624,93.528L260.12,58.328C271.442,45.298 283.453,32.72 295.866,20.915C300.148,20.719 304.45,20.586 308.773,20.586C352.938,20.545 396.516,30.724 436.101,50.331L416.648,63.011C360.204,99.724 312.087,147.841 275.374,204.285C240.226,258.34 194.146,304.42 140.09,339.568C104.56,362.86 72.253,390.732 44,422.463C28.52,386.564 20.554,347.874 20.585,308.773ZM596.962,308.773C596.777,467.863 467.864,596.776 308.774,596.961C303.494,596.961 298.245,596.796 293.037,596.518C324.511,553.218 362.285,514.858 405.101,482.714C436.905,458.856 466.073,431.684 492.113,401.64L522.62,366.44C539.397,347.1 557.522,328.976 576.861,312.209L596.612,295.082C596.828,299.623 596.962,304.183 596.962,308.773ZM567.958,182.897C581.307,210.306 590.19,239.67 594.265,269.878L563.388,296.638C543.318,314.053 524.503,332.867 507.088,352.948L476.54,388.158C451.468,417.09 423.38,443.264 392.76,466.247C345.847,501.416 304.76,543.749 271.031,591.712L269.292,594.192C241.204,590.322 213.836,582.304 188.105,570.386L233.639,505.091C276.414,443.563 331.17,391.298 394.633,351.435C460.947,309.781 518.101,255.067 562.606,190.626L567.958,182.897ZM545.685,178.903C502.755,241.059 447.629,293.839 383.651,334.01C317.862,375.344 261.089,429.524 216.728,493.316L169.558,561C120.216,533.632 79.931,492.483 53.624,442.575C81.99,409.536 114.874,380.666 151.299,356.808C207.763,320.105 255.901,271.978 292.625,215.534C327.774,161.499 373.843,115.419 427.888,80.281L456.614,61.549C497.948,86.374 532.438,121.111 556.986,162.621L545.685,178.903Z" style="fill-rule:nonzero;"/>
                    <path d="M165.924,266.358C182.979,266.358 196.801,252.535 196.801,235.481C196.801,218.427 182.978,204.604 165.924,204.604C148.87,204.604 135.047,218.427 135.047,235.481C135.047,252.535 148.87,266.358 165.924,266.358ZM165.924,225.188C171.605,225.188 176.216,229.799 176.216,235.48C176.216,241.161 171.605,245.772 165.924,245.772C160.243,245.772 155.632,241.161 155.632,235.48C155.632,229.799 160.243,225.188 165.924,225.188Z" style="fill-rule:nonzero;"/>
                    <rect x="83.585" y="256.066" width="20.585" height="20.585"/>
                    <rect x="227.679" y="132.556" width="20.585" height="20.585"/>
                    <rect x="361.481" y="214.896" width="20.585" height="20.585"/>
                    <path d="M248.264,317.82C225.528,317.82 207.094,336.254 207.094,358.99C207.094,381.726 225.528,400.16 248.264,400.16C271,400.16 289.434,381.726 289.434,358.99C289.434,336.254 271,317.82 248.264,317.82ZM248.264,379.575C236.891,379.575 227.679,370.363 227.679,358.99C227.679,347.617 236.891,338.405 248.264,338.405C259.637,338.405 268.849,347.617 268.849,358.99C268.849,370.363 259.637,379.575 248.264,379.575Z" style="fill-rule:nonzero;"/>
                    <rect x="526.16" y="420.745" width="20.585" height="20.585"/>
                    <rect x="474.698" y="163.434" width="20.585" height="20.585"/>
                    <rect x="392.358" y="533.962" width="20.585" height="20.585"/>
                    <rect x="155.632" y="482.499" width="20.585" height="20.585"/>
                    <rect x="402.651" y="379.575" width="20.585" height="20.585"/>
                </g>
            </g>
        </g>
        <g transform="matrix(0.207272,0,0,0.233181,960,216)">
            <g transform="matrix(1,0,0,1,-308.774,-308.774)">
                <g id="filled_outline_19_">
                    <path d="M347.761,292.799C346.474,287.179 343.675,282.023 339.651,277.896C330.408,269.271 317.244,266.286 305.192,270.084C296.804,272.379 289.156,276.856 283.043,283.042C272.38,293.18 267.254,307.837 269.292,322.411C270.301,328.916 273.306,334.937 277.896,339.651C287.139,348.276 300.303,351.261 312.355,347.463C320.743,345.168 328.391,340.691 334.504,334.505C345.836,323.831 350.859,308.063 347.761,292.799Z" style="fill:rgb(42,144,222);fill-rule:nonzero;"/>
                    <path d="M465.115,77.759C533.642,148.036 515.96,280.088 425.644,372.71C375.468,424.172 303.926,434.238 265.864,395.199C248.974,377.877 251.125,347.123 269.302,322.411C267.264,307.837 272.379,293.18 283.042,283.042C289.156,276.856 296.803,272.379 305.191,270.084C285.244,258.299 255.231,264.722 233.267,287.252C183.081,338.714 173.262,412.068 211.334,451.108C279.851,521.375 408.609,503.301 498.956,410.669C572.99,334.7 610.341,238.929 606.975,154.624C597.012,120.422 578.65,89.267 553.557,63.989C480.656,-8.871 363.651,-18.114 253.594,29.406C333.969,9.15 412.727,24.053 465.115,77.759Z" style="fill:rgb(227,98,149);fill-rule:nonzero;"/>
                    <path d="M118.59,206.878C208.916,114.246 337.696,96.131 406.212,166.398C444.294,205.437 434.465,278.802 384.279,330.254C362.315,352.784 332.302,359.207 312.355,347.422C300.303,351.23 287.139,348.256 277.896,339.651C273.306,334.937 270.3,328.916 269.292,322.411C251.116,347.113 248.964,377.877 265.854,395.199C303.936,434.238 375.458,424.172 425.634,372.71C515.95,280.078 533.633,148.036 465.105,77.759C412.727,24.053 333.969,9.15 253.596,29.406C203.914,51.154 158.792,82.093 120.597,120.597C18.598,222.595 -20.832,357.961 10.57,462.923C7.205,378.618 44.556,282.847 118.59,206.878Z" style="fill:rgb(42,144,222);fill-rule:nonzero;"/>
                    <path d="M152.431,539.787C83.904,469.51 101.586,337.458 191.903,244.836C242.079,193.374 313.621,183.308 351.683,222.347C361.224,232.886 365.3,247.265 362.717,261.242C360.906,272.996 355.708,283.957 347.752,292.799C350.85,308.052 345.838,323.831 334.506,334.504C328.392,340.69 320.745,345.167 312.357,347.462C332.304,359.247 362.317,352.824 384.281,330.294C434.467,278.832 444.286,205.478 406.214,166.438C337.697,96.171 208.939,114.296 118.592,206.877C44.556,282.847 7.205,378.618 10.57,462.923C20.533,497.125 38.895,528.28 63.988,553.558C136.848,626.418 253.894,635.661 363.951,588.141C283.577,608.397 204.82,593.493 152.431,539.787Z" style="fill:rgb(227,98,149);fill-rule:nonzero;"/>
                    <path d="M606.976,154.623C610.352,238.928 573.011,334.741 498.957,410.627C408.631,503.259 279.851,521.374 211.335,451.107C173.253,412.068 183.082,338.703 233.268,287.251C255.232,264.721 285.245,258.298 305.192,270.083C317.244,266.285 330.408,269.27 339.651,277.895C343.675,282.022 346.475,287.179 347.761,292.798C355.717,283.957 360.915,272.995 362.726,261.241C365.32,247.254 361.244,232.854 351.692,222.315C313.61,183.276 242.088,193.342 191.912,244.804C101.596,337.436 83.913,469.478 152.44,539.755C204.808,593.461 283.586,608.364 363.96,588.129C413.642,566.381 458.764,535.442 496.959,496.938C598.948,394.952 638.378,259.586 606.976,154.623Z" style="fill:rgb(42,144,222);fill-rule:nonzero;"/>
                    <path d="M88.988,138.948C155.889,70.328 240.452,30.98 320.99,30.98C372.061,29.385 421.537,48.909 457.756,84.954C522.3,151.145 504.587,277.011 418.274,365.526C394.323,391.463 361.161,406.963 325.899,408.693C306.24,409.341 287.189,401.859 273.212,388.026C263.465,375.603 261.705,358.682 268.694,344.52C269.373,345.302 269.878,346.198 270.619,346.939C278.853,354.998 289.979,359.413 301.496,359.208C304.471,359.157 307.424,358.848 310.348,358.292C334.371,370.067 367.708,362.059 391.658,337.501C445.632,282.159 455.471,202.207 413.591,159.267C383.064,128.719 341.307,112.117 298.141,113.352C232.897,113.352 164.782,144.837 111.241,199.747C-12.886,327.001 -36.497,509.867 58.585,607.367L65.481,614.438L80.22,600.029L73.324,592.958C-14.028,503.424 9.583,333.475 125.96,214.083C175.652,163.115 238.405,133.895 298.132,133.895C335.73,132.711 372.166,147.08 398.844,173.603C432.984,208.597 423.155,275.673 376.911,323.08C367.339,333.187 354.762,339.949 341.042,342.358C341.279,342.132 341.546,341.987 341.783,341.751C351.53,332.23 357.644,319.591 359.054,306.036C359.25,303.35 359.219,300.643 358.982,297.956C378.435,269.024 378.538,235.172 359.075,215.133C341.259,197.265 316.866,187.539 291.649,188.239C250.788,189.773 212.233,207.558 184.546,237.643C90.494,334.073 72.78,472.836 145.064,546.962C185.122,587.02 239.919,608.799 296.548,607.152C382.613,607.152 472.549,565.54 543.289,492.988L552.377,483.673L537.638,469.264L528.56,478.579C461.659,547.178 377.096,586.526 296.548,586.526C245.477,588.111 196.011,568.597 159.792,532.552C95.248,466.361 112.961,340.495 199.274,251.98C223.225,226.043 256.387,210.543 291.649,208.813C311.308,208.175 330.369,215.668 344.336,229.521C354.176,241.934 355.956,258.916 348.906,273.099C348.216,272.286 347.691,271.37 346.93,270.608C336.391,260.573 321.59,256.343 307.335,259.286C283.312,247.409 249.893,255.416 225.901,280.015C171.927,335.357 162.088,415.309 203.968,458.249C234.495,488.797 276.252,505.399 319.418,504.164C384.662,504.164 452.777,472.679 506.318,417.769C630.435,290.544 654.045,107.678 558.964,10.178L552.068,3.107L537.329,17.496L544.225,24.567C631.577,114.111 607.966,284.112 491.589,403.452C441.897,454.42 379.144,483.64 319.417,483.64C281.819,484.824 245.383,470.455 218.705,443.932C184.565,408.938 194.394,341.862 240.638,294.455C250.21,284.358 262.777,277.596 276.476,275.188C276.25,275.404 275.992,275.559 275.766,275.785C266.019,285.306 259.905,297.945 258.495,311.5C258.289,314.3 258.31,317.109 258.567,319.899C239.629,348.275 239.011,382.487 258.474,402.403C276.29,420.271 300.683,429.997 325.9,429.297C366.761,427.763 405.317,409.978 433.003,379.893C527.055,283.463 544.769,144.7 472.485,70.574C432.417,30.526 377.62,8.758 320.991,10.394C234.936,10.394 144.99,52.006 74.261,124.558L65.173,133.821L79.912,148.23L88.988,138.948ZM290.319,290.319C297.061,283.269 306.303,279.152 316.05,278.833C322.133,278.668 328.02,280.953 332.394,285.173C337.211,290.268 339.475,297.256 338.569,304.204C337.591,312.963 333.587,321.104 327.247,327.228C314.237,340.227 295.34,342.553 285.192,332.374C280.375,327.279 278.111,320.291 279.017,313.343C279.985,304.584 283.989,296.443 290.319,290.319Z" style="fill-rule:nonzero;"/>
                </g>
            </g>
        </g>
        <g transform="matrix(0.207196,0,0,0.233095,832,504)">
            <g transform="matrix(1,0,0,1,-308.887,-308.887)">
                <clipPath id="_clip4">
                    <rect x="0" y="0" width="617.774" height="617.774"/>
                </clipPath>
                <g clip-path="url(#_clip4)">
                    <g id="filled_outline_21_">
                        <circle cx="308.78" cy="308.859" r="298.481" style="fill:rgb(42,144,222);"/>
                        <path d="M493.983,74.881C493.983,75.684 494.045,76.476 494.045,77.279C494.024,302.478 330.313,494.257 107.914,529.632C229.437,641.017 418.241,632.803 529.626,511.291C641.011,389.779 632.797,200.964 511.285,89.579C505.706,84.463 499.932,79.564 493.983,74.881Z" style="fill:rgb(38,131,201);fill-rule:nonzero;"/>
                        <ellipse cx="195.564" cy="401.491" rx="72.047" ry="51.462" style="fill:rgb(35,121,186);"/>
                        <path d="M308.78,0.086C166.312,0.292 42.422,97.782 8.725,236.195L8.488,236.195L8.591,236.74C-9.513,311.731 1.222,390.787 38.666,458.233L38.666,458.326L38.759,458.326C121.304,607.546 309.193,661.592 458.413,579.046C607.633,496.5 661.678,308.612 579.133,159.392C524.726,61.048 421.174,0.034 308.78,0.086ZM308.78,20.671C375.794,20.609 440.719,44.014 492.284,86.81C442.314,81.581 391.84,84.185 342.683,94.54C279.611,107.9 214.439,107.9 151.367,94.54C141.754,92.482 132.007,90.886 122.239,89.445C174.227,45.023 240.387,20.63 308.78,20.671ZM308.78,597.048C263.771,597.079 219.39,586.498 179.239,566.171L438.32,566.171C398.16,586.498 353.789,597.078 308.78,597.048ZM472.863,545.585L144.698,545.585C115.21,525.103 89.788,499.341 69.697,469.586C77.447,473.209 84.93,477.388 92.073,482.102C123.949,503.397 161.434,514.75 199.763,514.708L201.657,514.708C240.182,514.708 277.831,503.242 309.81,481.772C338.011,462.937 371.122,452.799 405.036,452.624L558.805,451.842C537.437,489.059 508.083,521.079 472.863,545.585ZM569.612,431.205L404.933,432.039C366.789,432.265 329.561,443.721 297.892,464.975C269.413,484.006 235.911,494.154 201.658,494.123L199.764,494.123C165.5,494.154 131.988,484.016 103.499,464.975C87.865,454.611 70.81,446.572 52.86,441.117C40.869,418.062 32.08,393.473 26.738,368.041C54.178,363.626 80.351,353.374 103.499,337.997C131.988,318.966 165.501,308.818 199.764,308.859L201.658,308.859C236.117,308.859 269.804,319.121 298.407,338.337C329.953,359.416 367.006,370.758 404.944,370.943L589.93,371.88C585.36,392.341 578.557,412.237 569.633,431.206C569.632,431.206 569.612,431.206 569.612,431.205ZM596.969,308.859C596.969,323.063 595.909,337.256 593.82,351.305L405.077,350.358C370.968,350.152 337.672,339.901 309.357,320.88C277.481,299.585 239.996,288.232 201.657,288.274L199.763,288.274C161.434,288.233 123.949,299.585 92.073,320.88C71.334,334.662 47.877,343.832 23.289,347.764C18.966,316.598 19.841,284.929 25.883,254.041L124.69,236.389C198.456,223.143 274.126,224.913 347.192,241.597C423.541,259.043 502.639,260.772 579.678,246.671L589.693,244.849C594.499,265.847 596.948,287.317 596.969,308.859ZM576.013,226.417C501.712,240.024 425.414,238.356 351.772,221.528C276.02,204.226 197.56,202.384 121.087,216.135L31.018,232.212C44.028,185.278 68.719,142.4 102.787,107.591C117.608,109.248 132.512,111.615 147.127,114.682C179.97,121.629 213.452,125.129 247.025,125.149C280.599,125.128 314.08,121.629 346.923,114.682C403.223,102.815 461.241,101.559 518.004,110.987C548.655,143.305 571.401,182.293 584.452,224.883L576.013,226.417Z" style="fill-rule:nonzero;"/>
                        <path d="M195.564,339.737C150.164,339.737 113.224,367.434 113.224,401.492C113.224,435.55 150.164,463.247 195.564,463.247C240.964,463.247 277.904,435.55 277.904,401.492C277.904,367.434 240.964,339.737 195.564,339.737ZM195.564,442.661C162.093,442.661 133.809,423.805 133.809,401.491C133.809,379.177 162.093,360.321 195.564,360.321C229.035,360.321 257.319,379.177 257.319,401.491C257.318,423.805 229.035,442.661 195.564,442.661Z" style="fill-rule:nonzero;"/>
                    </g>
                </g>
            </g>
        </g>
        <g transform="matrix(0.207148,0,0,0.233041,320,216)">
            <g transform="matrix(1,0,0,1,-308.959,-308.959)">
                <clipPath id="_clip5">
                    <rect x="0" y="0" width="617.917" height="617.917"/>
                </clipPath>
                <g clip-path="url(#_clip5)">
                    <g id="filled_outline_27_">
                        <path d="M432.151,432.076C378.085,487.295 315.61,533.59 247.052,569.254C390.837,603.435 535.107,514.581 569.288,370.795C578.963,330.088 578.963,287.684 569.278,246.977C533.634,315.535 487.349,378.01 432.151,432.076Z" style="fill:rgb(227,136,0);fill-rule:nonzero;"/>
                        <path d="M161.778,396.176C222.092,362.098 270.878,310.8 301.868,248.84C318.593,215.39 340.609,184.842 367.05,158.39L442.761,82.699L446.312,79.375C442.843,77.317 439.426,75.155 435.865,73.2C431.182,70.678 426.406,68.321 421.569,66.088C420.653,65.656 419.727,65.254 418.811,64.832C414.303,62.774 409.754,60.89 405.122,59.109L404.01,58.749C376.117,48.168 346.64,42.343 316.823,41.54L315.948,42.569C272.802,87.31 234.504,136.477 201.702,189.267C159.801,256.652 108.998,318.067 50.681,371.876L49.261,373.132C51.814,383.579 54.994,393.861 58.782,403.927C58.926,404.298 59.08,404.668 59.214,405.039C60.995,409.66 62.919,414.22 64.937,418.718C65.349,419.634 65.76,420.56 66.193,421.476C68.426,426.313 70.783,431.099 73.305,435.772C75.538,439.889 77.988,443.893 80.427,447.897C95.783,436.153 111.747,425.233 128.246,415.157L161.778,396.176Z" style="fill:rgb(240,158,38);fill-rule:nonzero;"/>
                        <path d="M201.692,189.215C234.494,136.425 272.792,87.258 315.938,42.517L316.813,41.488C314.199,41.426 311.595,41.251 308.96,41.251C161.212,41.2 41.388,160.932 41.336,308.68C41.326,329.594 43.775,350.426 48.613,370.764C48.809,371.557 49.066,372.318 49.261,373.121L50.681,371.865C108.999,318.056 159.802,256.61 201.692,189.215Z" style="fill:rgb(245,174,69);fill-rule:nonzero;"/>
                        <path d="M486.711,201.597L436.185,235.953C374.07,278.183 322.906,334.606 286.945,400.55C265.321,440.217 238.128,476.57 206.19,508.528L172.698,539.055C175.786,540.897 178.873,542.832 182.044,544.551C244.725,522.71 323.308,470.373 396.858,396.824C470.408,323.275 522.745,244.651 544.585,181.97C541.374,176.021 537.946,170.216 534.293,164.545C519.235,177.894 503.343,190.265 486.711,201.597Z" style="fill:rgb(240,158,38);fill-rule:nonzero;"/>
                        <path d="M286.955,400.55C322.917,334.606 374.081,278.183 436.195,235.953L486.721,201.597C503.354,190.265 519.235,177.894 534.293,164.544C511.907,129.745 481.791,100.587 446.293,79.333L442.763,82.699L367.072,158.39C340.631,184.842 318.615,215.39 301.89,248.84C270.889,310.8 222.103,362.098 161.779,396.176L128.195,415.155C111.727,425.231 95.794,436.162 80.469,447.895C103.329,485.349 135.009,516.628 172.741,539.014L206.191,508.528C238.128,476.57 265.331,440.217 286.955,400.55Z" style="fill:rgb(245,174,69);fill-rule:nonzero;"/>
                        <path d="M580.732,37.134C540.026,-3.613 460.393,3.869 370.838,48.538C382.108,51.204 393.183,54.6 404.011,58.707L405.102,59.139C409.723,60.92 414.283,62.824 418.791,64.862C419.707,65.284 420.633,65.685 421.549,66.118C426.386,68.362 431.162,70.708 435.845,73.23C481.78,57.225 519.214,57.565 539.716,78.098C560.219,98.631 560.589,136.034 544.584,181.969C522.743,244.65 470.406,323.264 396.857,396.783C323.308,470.302 244.725,522.67 182.044,544.552C136.109,560.567 98.675,560.217 78.173,539.684C57.671,519.151 57.29,481.707 73.263,435.771C70.741,431.098 68.395,426.312 66.151,421.475C65.719,420.559 65.307,419.633 64.895,418.717C62.837,414.219 60.932,409.66 59.172,405.038C59.038,404.667 58.884,404.297 58.74,403.926C54.633,393.109 51.237,382.034 48.571,370.774C3.903,460.318 -3.58,539.951 37.116,580.658C77.812,621.365 157.496,613.872 247.051,569.254C315.609,533.591 378.084,487.295 432.15,432.076C487.348,378.01 533.633,315.535 569.276,246.977C613.956,157.422 621.429,77.789 580.732,37.134Z" style="fill:rgb(250,188,95);fill-rule:nonzero;"/>
                        <path d="M370.838,48.538C382.108,51.204 393.183,54.6 404.011,58.707L405.102,59.139C409.723,60.92 414.283,62.824 418.791,64.862C419.707,65.284 420.633,65.685 421.549,66.118C426.386,68.362 431.162,70.708 435.845,73.23C475.543,59.397 508.818,57.843 530.391,70.914C550.369,63.123 570.727,56.36 591.405,50.669C588.338,45.79 584.756,41.251 580.732,37.134C540.026,-3.613 460.393,3.869 370.838,48.538Z" style="fill:rgb(245,174,69);fill-rule:nonzero;"/>
                        <path d="M29.901,587.914C52.153,608.591 81.826,619.357 112.158,617.762C150.765,617.762 197.184,605.061 248.358,579.968C397.845,613.676 546.355,519.829 580.063,370.342C589.131,330.15 589.131,288.455 580.063,248.263C627.408,151.699 630.403,72.18 588.019,29.796C545.635,-12.588 466.126,-9.593 369.552,37.752C220.054,4.065 71.545,97.942 37.857,247.44C28.8,287.611 28.81,329.296 37.857,369.457C-9.498,466.02 -12.483,545.581 29.901,587.914ZM308.96,566.166C298.637,566.166 288.324,565.538 278.083,564.293C285.082,560.33 292.081,556.172 299.09,551.829C300.366,551.036 301.632,550.172 302.898,549.379C309.073,545.478 315.311,541.464 321.496,537.285C324.11,535.515 326.714,533.652 329.318,531.84C334.186,528.464 339.044,525.037 343.892,521.496C346.774,519.437 349.635,517.214 352.507,515.053C357.087,511.626 361.657,508.095 366.217,504.472C369.13,502.177 372.032,499.861 374.914,497.514C379.484,493.798 384.033,489.99 388.562,486.192C391.331,483.835 394.11,481.499 396.868,479.09C401.736,474.839 406.563,470.465 411.37,466.06C413.706,463.929 416.053,461.861 418.359,459.699C425.44,453.071 432.47,446.319 439.407,439.392C446.344,432.465 453.086,425.425 459.704,418.344C461.865,416.039 463.934,413.702 466.065,411.376C470.48,406.549 474.855,401.722 479.105,396.843C481.524,394.085 483.86,391.306 486.217,388.527C490.056,384.009 493.854,379.48 497.539,374.931C499.906,372.018 502.232,369.105 504.548,366.193C508.14,361.633 511.66,357.064 515.108,352.483C517.269,349.622 519.431,346.76 521.541,343.889C525.112,339 528.571,334.101 531.978,329.191C533.748,326.638 535.58,324.045 537.309,321.533C541.663,315.141 545.821,308.719 549.804,302.266C550.473,301.237 551.193,300.208 551.862,299.096C556.216,292.066 560.384,285.037 564.367,278.007C581.473,419.003 481.039,547.185 340.043,564.291C329.73,565.548 319.356,566.166 308.96,566.166ZM321.311,51.904C348.38,53.191 375.068,58.748 400.398,68.372L400.47,68.166C400.779,68.392 401.098,68.588 401.427,68.773C405.863,70.471 410.217,72.314 414.57,74.279L417.205,75.463C421.322,77.367 425.367,79.395 429.36,81.515L359.742,151.123C332.508,178.347 309.844,209.79 292.635,244.239C262.643,304.398 215.318,354.193 156.775,387.222L123.18,406.201C109.316,414.075 95.998,422.854 83.307,432.498C83.009,431.952 82.659,431.469 82.36,430.882C79.941,426.395 77.677,421.804 75.536,417.162L74.321,414.486C72.417,410.246 70.616,405.964 68.928,401.61C68.804,401.291 68.691,401.013 68.568,400.684L68.486,400.684C68.435,400.54 68.486,400.396 68.414,400.252C65.46,392.461 63,384.453 60.818,376.394C118.497,322.667 168.817,261.541 210.46,194.609C242.378,143.342 279.534,95.513 321.311,51.904ZM461.288,76.544C493.792,68.794 518.73,71.635 532.44,85.354C546.15,99.074 549.001,124.002 541.25,156.495C520.367,124.641 493.154,97.427 461.288,76.544ZM533.336,182.793C532.852,184.121 532.358,185.448 531.844,186.776C531.072,188.835 530.31,190.811 529.477,192.838C528.643,194.866 527.758,196.955 526.873,199.013C525.988,201.071 525.134,203.068 524.207,205.116C523.281,207.164 522.231,209.367 521.222,211.497C520.213,213.627 519.287,215.614 518.258,217.672C517.229,219.73 516.055,222.015 514.933,224.197C513.811,226.379 512.803,228.314 511.681,230.424C510.559,232.534 509.242,234.87 507.996,237.094C506.751,239.317 505.69,241.262 504.476,243.362C503.262,245.462 501.8,247.891 500.441,250.165C499.196,252.223 497.961,254.344 496.664,256.443C495.254,258.728 493.782,261.033 492.321,263.329C490.973,265.449 489.655,267.549 488.266,269.669C486.763,271.975 485.178,274.28 483.624,276.596C482.193,278.716 480.783,280.847 479.301,282.977C477.706,285.293 476.038,287.609 474.381,289.935C472.858,292.076 471.355,294.217 469.791,296.368C468.093,298.694 466.333,301.01 464.645,303.336C463.039,305.487 461.454,307.628 459.808,309.779C458.027,312.105 456.175,314.431 454.343,316.768C452.655,318.919 450.988,321.07 449.259,323.221C447.406,325.527 445.482,327.832 443.588,330.138C441.694,332.443 440.058,334.471 438.236,336.633C436.25,338.98 434.201,341.326 432.184,343.673C430.373,345.732 428.592,347.883 426.75,349.982C424.558,352.462 422.304,354.943 420.07,357.423C418.32,359.358 416.601,361.314 414.821,363.249C412.238,366.059 409.582,368.858 406.947,371.658C405.444,373.243 403.983,374.838 402.459,376.423C398.27,380.797 394.009,385.141 389.686,389.474C385.363,393.807 381.02,398.058 376.645,402.247C374.988,403.832 373.31,405.335 371.643,406.94C368.915,409.513 366.188,412.086 363.409,414.618C361.453,416.409 359.498,418.138 357.532,419.908C355.072,422.121 352.622,424.365 350.152,426.536C348.093,428.378 345.942,430.169 343.832,431.981C341.485,434.04 339.139,436.098 336.782,438.043C334.724,439.803 332.583,441.501 330.493,443.189C328.105,445.155 325.728,447.141 323.35,449.045C321.292,450.733 319.151,452.359 317.051,454.006C314.673,455.879 312.306,457.763 309.929,459.584C307.87,461.2 305.73,462.744 303.62,464.319C301.242,466.1 298.865,467.901 296.487,469.64C294.429,471.143 292.37,472.594 290.312,474.055C287.914,475.774 285.516,477.493 283.107,479.15C281.049,480.57 278.99,481.929 276.932,483.267C274.534,484.883 272.136,486.519 269.727,488.084C267.669,489.412 265.672,490.678 263.644,491.975C261.266,493.488 258.879,495.063 256.511,496.483C254.452,497.728 252.487,498.912 250.469,500.116C248.112,501.526 245.755,502.946 243.408,504.295C241.349,505.458 239.404,506.549 237.408,507.671C235.092,508.958 232.776,510.265 230.481,511.5C228.484,512.529 226.508,513.558 224.532,514.588C222.247,515.772 219.962,516.955 217.688,518.077C215.743,519.045 213.808,519.961 211.873,520.877C209.619,521.906 207.365,523.018 205.121,524.026L213.52,515.627C246.147,483 273.937,445.855 296.035,405.343C331.287,340.933 381.308,285.796 441.992,244.452L492.518,210.044C506.053,200.719 519.103,190.715 531.629,180.072C532.193,181.023 532.79,181.877 533.336,182.793ZM520.563,162.62C507.924,173.468 494.708,183.637 480.968,193.065L430.412,227.421C367.01,270.639 314.755,328.277 277.929,395.6C256.778,434.392 230.172,469.953 198.934,501.19L172.966,527.148C141.389,507.5 114.453,481.233 94.023,450.161C106.508,440.579 119.641,431.882 133.33,424.131L166.925,405.121C229.05,370.086 279.257,317.254 311.091,253.431C327.312,220.958 348.669,191.316 374.348,165.657L447.785,92.22C476.46,110.633 501.192,134.563 520.532,162.62L520.563,162.62ZM156.632,541.166C124.128,548.927 99.19,546.076 85.48,532.356C71.77,518.636 68.899,493.708 76.649,461.184C97.533,493.059 124.767,520.282 156.632,541.166ZM293.264,52.069C255.83,92.786 222.246,136.889 192.954,183.812C154.399,245.752 108.227,302.607 55.509,353.04C31.003,213.207 124.489,79.971 264.322,55.465C273.894,53.788 283.559,52.655 293.264,52.069ZM46.41,399.964C47.254,402.383 48.129,404.791 49.035,407.169L49.169,407.55L49.591,408.692C51.433,413.488 53.43,418.213 55.54,422.885L55.664,423.194L56.806,425.705L56.93,425.952C58.587,429.523 60.296,433.054 62.076,436.553C45.536,486.471 48.541,524.543 70.825,546.826C93.849,569.819 133.424,572.341 185.452,554.216C252.291,530.924 332.006,476.189 404.156,404.049C476.306,331.909 531.02,252.246 554.322,185.345C572.457,133.327 569.925,93.742 547.014,70.8C524.741,48.507 486.669,45.511 436.73,62.051C433.159,60.209 429.546,58.438 425.871,56.75L423.493,55.721L423.02,55.505C419.984,54.136 416.917,52.819 413.819,51.553C412.182,50.863 410.536,50.215 408.899,49.597L408.837,49.597L407.715,49.154L407.643,49.154C405.152,48.197 402.631,47.281 400.099,46.406C477.395,13.11 541.167,12.05 573.475,44.337C609.149,80.021 604.147,154.034 560.095,242.353C524.967,309.933 479.33,371.513 424.893,424.787C371.619,479.224 310.05,524.86 242.47,559.989C154.161,604.03 80.148,609.033 44.443,573.369C12.147,541.052 13.207,477.291 46.41,399.964Z" style="fill-rule:nonzero;"/>
                    </g>
                </g>
            </g>
        </g>
        <g transform="matrix(0.207245,0,0,0.23315,1216,360)">
            <g transform="matrix(1,0,0,1,-308.813,-308.813)">
                <clipPath id="_clip6">
                    <rect x="0" y="0" width="617.627" height="617.627"/>
                </clipPath>
                <g clip-path="url(#_clip6)">
                    <g id="filled_outline_34_">
                        <path d="M604.945,272.235C595.764,197.625 558.722,129.252 501.249,80.806L500.22,82.401C382.948,242.881 238.668,381.736 73.804,492.771C122.456,554.968 193.804,595.325 272.181,604.959C363.927,476.396 476.382,363.962 604.945,272.235Z" style="fill:rgb(38,131,201);fill-rule:nonzero;"/>
                        <path d="M500.22,82.401L501.249,80.806C471.71,55.816 437.58,36.826 400.774,24.887C296.213,167.252 167.836,290.473 21.302,389.116C31.811,426.797 49.647,462.038 73.793,492.812C238.658,381.767 382.958,242.892 500.22,82.401Z" style="fill:rgb(42,144,222);fill-rule:nonzero;"/>
                        <path d="M400.815,24.887C371.09,15.243 340.028,10.344 308.78,10.354C300.464,10.354 292.25,10.786 284.078,11.455C205.156,109.82 113.903,197.614 12.553,272.677C11.081,284.678 10.33,296.751 10.299,308.834C10.299,335.975 13.994,362.983 21.302,389.115C167.846,290.473 296.244,167.252 400.815,24.887Z" style="fill:rgb(105,204,215);fill-rule:nonzero;"/>
                        <path d="M284.078,11.456C143.113,23.189 29.732,132.258 12.553,272.678C113.903,197.615 205.156,109.821 284.078,11.456Z" style="fill:rgb(42,144,222);fill-rule:nonzero;"/>
                        <path d="M599.099,378.083L596.968,379.308C509.987,439.251 434.244,514.046 373.221,600.266C484.822,575.502 572.504,489.251 599.099,378.083Z" style="fill:rgb(35,121,186);fill-rule:nonzero;"/>
                        <path d="M596.969,379.308L599.1,378.083C607.416,343.439 609.403,307.58 604.946,272.235C476.372,363.972 363.917,476.427 272.18,605C305.877,609.251 340.059,607.645 373.221,600.266C434.255,514.046 509.998,439.251 596.969,379.308Z" style="fill:rgb(35,121,186);fill-rule:nonzero;"/>
                        <path d="M493.983,74.857C493.983,75.66 494.045,76.452 494.045,77.255C494.024,302.454 330.313,494.233 107.914,529.608C229.436,640.993 418.24,632.78 529.625,511.267C641.01,389.754 632.807,200.929 511.284,89.544C505.706,84.429 499.942,79.53 493.983,74.857Z" style="fill:rgb(35,121,186);fill-rule:nonzero;"/>
                        <path d="M604.245,13.37C575.755,-15.119 512.179,12.011 462.209,41.046C314.451,-43.825 125.873,7.153 41.002,154.912C-13.651,250.066 -13.661,367.091 40.992,462.244C12.173,511.905 -15.226,575.739 13.325,604.28C22.485,612.74 34.692,617.115 47.146,616.374C74.936,616.374 112.688,601.501 155.392,576.645C222.921,615.52 302.697,627.294 378.584,609.581L378.965,609.849L379.284,609.417C545.157,570.666 648.215,404.783 609.464,238.91C602.63,209.649 591.555,181.54 576.59,155.479C614.044,91.088 628.803,37.917 604.245,13.37ZM589.692,27.924C603.906,42.138 594.519,81.445 564.301,135.686C542.296,103.337 514.393,75.424 482.054,53.408C544.879,18.588 578.782,17.003 589.692,27.924ZM259.582,24.939C190.561,107.917 112.544,182.99 26.973,248.758C51.716,133.75 143.72,45.235 259.582,24.939ZM20.592,308.835C20.602,298.615 21.148,288.405 22.228,278.236C121.632,204.141 211.341,117.849 289.224,21.388C295.708,20.945 302.213,20.647 308.78,20.647C334.048,20.647 359.203,23.982 383.606,30.559C285.303,163.867 164.933,279.389 27.683,372.124C22.99,351.353 20.612,330.13 20.592,308.835ZM33.282,393.418C176.995,297.348 302.687,176.742 404.602,37.114C434.44,47.695 462.322,63.113 487.147,82.761C373.468,236.963 234.52,370.816 76.171,478.66C57.233,452.837 42.731,424.028 33.282,393.418ZM27.869,589.747C16.99,578.868 18.534,544.965 53.353,482.109C75.369,514.448 103.282,542.351 135.631,564.356C81.317,594.574 42.083,603.95 27.869,589.747ZM88.923,494.871C248.333,386.111 388.279,251.28 502.906,96.039C522.101,113.567 538.857,133.596 552.711,155.591C501.805,235.1 441.933,308.496 374.281,374.336C308.43,441.988 235.035,501.859 155.536,552.766C130.515,536.977 108.057,517.453 88.923,494.871ZM399.055,582.46C450.713,514.375 511.953,454.134 580.881,403.598C551.229,488.15 484.081,554.197 399.055,582.46ZM596.969,308.835C596.948,329.955 594.612,351.013 589.991,371.619C503.586,431.315 428.194,505.565 367.201,591.064C347.985,595.037 328.409,597.034 308.781,597.023C302.925,597.023 297.12,596.797 291.346,596.447C376.813,479.741 479.686,376.868 596.392,291.4C596.742,297.174 596.969,302.979 596.969,308.835ZM593.974,267.573C468.221,358.033 357.979,468.276 267.518,594.029C235.436,589.397 204.374,579.352 175.658,564.315C252.687,513.491 324.137,454.69 388.835,388.891C454.635,324.193 513.435,252.732 564.249,175.704C579.297,204.418 589.352,235.481 593.974,267.573Z" style="fill-rule:nonzero;"/>
                    </g>
                </g>
            </g>
        </g>
        <g transform="matrix(0.207256,0,0,0.233163,192,504)">
            <g transform="matrix(1,0,0,1,-308.797,-308.797)">
                <clipPath id="_clip7">
                    <rect x="0" y="0" width="617.594" height="617.594"/>
                </clipPath>
                <g clip-path="url(#_clip7)">
                    <g id="filled_outline_35_">
                        <circle cx="308.797" cy="308.797" r="298.481" style="fill:rgb(240,101,41);"/>
                        <path d="M493.999,74.819C493.999,75.622 494.061,76.414 494.061,77.217C494.04,302.416 330.339,494.195 107.93,529.57C229.453,640.965 418.257,632.752 529.653,511.229C641.049,389.706 632.824,200.902 511.312,89.517C505.722,84.401 499.948,79.502 493.999,74.819Z" style="fill:rgb(224,86,26);fill-rule:nonzero;"/>
                        <path d="M308.797,0.024C198.555,0.106 96.701,58.948 41.564,154.411L41.193,154.411L41.193,155.059C-36.69,290.189 -1.325,462.196 123.533,555.651L123.533,555.816L123.749,555.816C233.374,638.156 384.22,638.156 493.845,555.816L494.061,555.816L494.061,555.651C630.456,453.396 658.133,259.939 555.888,123.543C497.571,45.753 406.019,-0.007 308.797,0.024ZM302.951,20.753C297.218,24.674 291.712,28.925 286.483,33.495C258.549,58.351 222.464,72.081 185.072,72.071L144.715,72.071C191.226,39.691 246.291,21.834 302.951,20.753ZM308.797,596.986C256.563,597.037 205.306,582.793 160.586,555.816L457.111,555.816C412.36,582.823 361.072,597.058 308.797,596.986ZM594.001,349.967L394.41,349.967C357.048,350.039 323.114,371.756 307.398,405.649C285.331,453.2 237.718,483.666 185.288,483.769L185.288,504.354C245.746,504.241 300.646,469.102 326.089,414.264C338.43,387.648 365.077,370.603 394.41,370.552L590.255,370.552C575.856,435.775 539.266,493.969 486.744,535.231L130.851,535.231C80.84,495.955 45.197,441.261 29.45,379.65C53.184,379.496 75.323,367.67 88.642,348.011L103.515,325.965C119.582,302.272 146.373,288.12 174.996,288.212C220.128,287.944 256.965,324.266 257.336,369.399C257.099,386.371 249.689,402.448 236.947,413.657C221.601,429.61 198.7,435.775 177.426,429.682C160.763,424.052 148.463,409.838 145.283,392.547C142.514,376.254 150.47,360.002 165.044,352.211C174.348,346.355 186.102,346.015 195.736,351.316C204.073,356.153 209.24,365.036 209.312,374.67L229.897,374.67C229.825,357.698 220.768,342.033 206.101,333.5C190.168,324.401 170.551,324.7 154.906,334.272C132.685,346.324 120.663,371.242 125.058,396.14C129.556,420.79 147.063,441.077 170.798,449.125C178.116,451.626 185.794,452.902 193.524,452.892C214.912,452.285 235.311,443.721 250.729,428.88C267.784,413.781 277.664,392.177 277.922,369.4C277.541,312.905 231.493,267.381 174.998,267.628C139.541,267.546 106.368,285.094 86.483,314.448L71.59,336.484C61.967,350.698 45.9,359.179 28.732,359.127L25.099,359.127C17.822,318.472 19.407,276.736 29.731,236.75L181.174,236.75C221.489,236.801 260.59,250.521 292.106,275.666C327.255,303.713 370.874,319.018 415.842,319.09L596.732,319.09C596.368,329.423 595.462,339.736 594.001,349.967ZM483.686,198.153C493.855,183.641 510.467,174.995 528.191,174.995L563.926,174.995C584.027,213.17 595.246,255.389 596.728,298.504L415.838,298.504C375.523,298.453 336.422,284.733 304.906,259.588C269.757,231.541 226.138,216.236 181.17,216.164L35.965,216.164C40.782,202.002 46.7,188.23 53.668,174.994L199.358,174.994C239.149,175.097 276.788,156.92 301.438,125.683C323.104,98.243 356.173,82.269 391.137,82.362L391.137,61.779C349.885,61.676 310.877,80.522 285.32,112.891C264.56,139.188 232.87,154.493 199.358,154.411L65.638,154.411C80.264,131.449 98.059,110.658 118.479,92.656L185.071,92.656C227.517,92.666 268.481,77.094 300.202,48.893C312.574,37.901 326.654,29.008 341.886,22.565C428.188,32.641 505.361,81.067 551.955,154.411L528.19,154.411C503.437,154.401 480.268,166.638 466.322,187.089C466.054,187.47 465.818,187.871 465.612,188.293C447.713,224.399 410.846,247.186 370.551,247.042L370.551,267.627C418.391,267.792 462.196,240.888 483.686,198.153Z" style="fill-rule:nonzero;"/>
                        <path d="M432.306,164.703C432.306,136.286 409.261,113.241 380.844,113.241C352.427,113.241 329.382,136.286 329.382,164.703C329.382,193.12 352.427,216.165 380.844,216.165C409.251,216.134 432.275,193.11 432.306,164.703ZM349.967,164.703C349.967,147.648 363.79,133.826 380.844,133.826C397.899,133.826 411.721,147.649 411.721,164.703C411.721,181.757 397.898,195.58 380.844,195.58C363.79,195.58 349.967,181.758 349.967,164.703Z" style="fill-rule:nonzero;"/>
                        <path d="M391.137,483.769C413.873,483.769 432.307,465.335 432.307,442.599C432.307,419.863 413.873,401.429 391.137,401.429C368.401,401.429 349.967,419.863 349.967,442.599C349.967,465.335 368.401,483.769 391.137,483.769ZM391.137,422.014C402.51,422.014 411.722,431.226 411.722,442.599C411.722,453.972 402.51,463.184 391.137,463.184C379.764,463.184 370.552,453.972 370.552,442.599C370.552,431.226 379.774,422.014 391.137,422.014Z" style="fill-rule:nonzero;"/>
                    </g>
                </g>
            </g>
        </g>
    </g>
</svg>
