<?xml version="1.0" encoding="iso-8859-1"?>
<!-- Generator: Adobe Illustrator 21.0.0, SVG Export Plug-In . SVG Version: 6.00 Build 0)  -->
<svg version="1.1" id="Capa_1" xmlns="http://www.w3.org/2000/svg" xmlns:xlink="http://www.w3.org/1999/xlink" x="0px" y="0px"
	 viewBox="0 0 617.622 617.622" style="enable-background:new 0 0 617.622 617.622;" xml:space="preserve">
<g>
	<g>
		<g id="filled_outline">
			<polygon style="fill:#808B96;" points="379.828,547.634 396.296,535.283 280.506,380.896 264.038,393.247 316.529,463.236 
				167.289,463.236 232.646,375.235 216.178,362.884 81.347,543.517 97.815,555.868 151.85,483.821 331.968,483.821 			"/>
			<rect x="200.739" y="350.019" style="fill:#A8B2BF;" width="82.34" height="174.972"/>
			<rect x="77.23" y="524.99" style="fill:#A8B2BF;" width="329.358" height="82.34"/>
			<rect x="77.23" y="566.16" style="fill:#95A0AD;" width="329.358" height="41.17"/>
			<path style="fill:#95A0AD;" d="M200.739,350.019v81.424c25.896,13.39,53.654,22.829,82.34,27.995V350.019H200.739z"/>
			<path style="fill:#A8B2BF;" d="M252.119,300.934c-83.513-84.172-104.437-199.55-46.738-257.712l-24.846,24.856
				c-81.835,82.504-82.988,215.194-2.604,299.109l0,0c80.322,83.904,213.311,87.239,297.729,7.462l18.022-14.924
				C432.875,402.51,329.312,378.745,252.119,300.934z"/>
			<path style="fill:#D0D7DF;" d="M461.056,90.33C377.553,6.159,263.081-14.931,205.381,43.222s-36.775,173.541,46.738,257.712
				c77.193,77.811,180.756,101.566,241.564,58.79l14.111-11.682C565.493,289.88,544.569,174.502,461.056,90.33z"/>
			<path style="fill:#C3C9D1;" d="M461.056,90.33c-16.324-16.447-34.49-30.949-54.138-43.228
				c42.086,83.225,41.695,170.855-9.037,221.946l-17.127,14.121c-33.317,23.436-77.193,30.26-123.983,22.16
				c76.668,74.188,177.298,96.327,236.911,54.396l14.111-11.682C565.493,289.88,544.569,174.502,461.056,90.33z"/>
			<path style="fill:#C3C9D1;" d="M312.927,319.286c16.962-16.941,12.186-49.167-10.653-71.985
				c-22.839-22.818-55.126-27.584-72.047-10.642c-6.731,7.081-10.323,16.571-9.994,26.328c9.593,13.483,20.266,26.174,31.907,37.948
				c10.087,10.148,20.863,19.576,32.257,28.222C294.874,330.062,305.238,326.47,312.927,319.286z"/>
			<path style="fill:#D0D7DF;" d="M509.513,73.368c-0.535,0-1.029,0-1.606,0c-9.099-0.484-17.559-4.786-23.312-11.847
				c-10.251-13.288-8.924-32.154,3.088-43.877l8.162-8.162l0,0c12.547-12.546,32.884-12.546,45.431,0
				c6.021,6.021,9.407,14.193,9.407,22.715c0.021,8.522-3.366,16.705-9.407,22.715l-9.047,9.047
				C526.197,69.982,518.024,73.368,509.513,73.368z"/>
			<path d="M539.947,198.638h0.443V55.799l0.885-0.885c12.547-12.546,12.547-32.884,0-45.431
				c-6.021-6.021-14.193-9.407-22.715-9.407c-8.512,0.021-16.674,3.407-22.715,9.407l-0.885,0.885H353.407v0.165
				c-19.988-6.7-40.902-10.231-61.981-10.457c-34.686-1.194-68.362,11.754-93.311,35.869l0,0l0,0l0,0l-24.877,24.856
				c-85.191,86.704-86.405,225.312-2.738,313.487c6.268,6.464,12.927,12.547,19.947,18.197v5.568l-87.486,116.644H77.23
				c-5.681,0-10.292,4.611-10.292,10.292v82.34c0,5.681,4.611,10.292,10.292,10.292h329.358c5.681,0,10.292-4.611,10.292-10.292
				v-82.34c0-5.681-4.611-10.292-10.292-10.292h-25.731l-54.426-72.572c1.462,0,2.923,0.216,4.395,0.216
				c56.248,0.165,110.428-21.223,151.402-59.768l17.929-14.852c5.332-3.705,10.334-7.863,14.945-12.433l0,0
				C552.134,317.948,559.102,258.91,539.947,198.638z M501.279,340.118l-13.648,11.322
				c-45.112,31.515-115.008,22.983-178.162-17.374c3.963-1.914,7.596-4.446,10.766-7.493c8.769-8.975,13.524-21.12,13.185-33.667
				c-0.422-16.241-6.217-31.886-16.468-44.494l143.518-143.569C534.214,184.105,552.566,288.264,501.279,340.118z M312.927,292.906
				c0.237,7.071-2.357,13.946-7.205,19.103c-4.827,4.467-11.188,6.927-17.765,6.875c-7.74-6.052-15.161-12.495-22.252-19.298
				l36.528-36.528c6.515,8.625,10.21,19.051,10.601,29.848L312.927,292.906z M251.43,284.868
				c-7.339-7.966-14.234-16.314-20.667-25.021c0.329-5.949,2.748-11.579,6.834-15.912c11.136-11.106,32.73-8.738,50.34,4.426
				L251.43,284.868z M475.115,90.341l20.276-20.276c3.932,1.956,8.213,3.088,12.598,3.314c0.535,0,1.029,0,1.606,0
				c3.51-0.051,6.989-0.669,10.292-1.842v80.147c-12.341-22.252-27.409-42.878-44.865-61.394L475.115,90.341z M510.49,24.088
				c4.549-4.457,11.857-4.374,16.314,0.175c2.079,2.12,3.252,4.961,3.294,7.935c0.01,3.067-1.204,6-3.376,8.162l-9.047,9.037
				c-4.498,4.498-11.805,4.498-16.303,0c-0.298-0.298-0.576-0.618-0.844-0.947c-3.561-5.095-2.83-12.032,1.709-16.283L510.49,24.088
				z M479.582,30.953c-2.758,7.997-2.316,16.756,1.235,24.434l-20.204,20.204c-18.331-17.322-38.72-32.318-60.725-44.638H479.582z
				 M446.06,90.145L302.48,233.714c-26.215-21.058-60.355-23.487-79.53-4.354c-2.583,2.676-4.817,5.671-6.618,8.924
				c-20.575-32.452-32.092-69.803-33.368-108.204c-1.122-29.426,9.582-58.08,29.725-79.571c21.12-20.214,49.527-30.98,78.737-29.848
				C342.446,20.661,399.558,46.495,446.06,90.145z M225.678,416.086c6.073,3.294,12.351,6.175,18.66,8.882l1.976,0.782
				c8.615,3.623,17.456,6.68,26.472,9.16v28.325h-61.755v-55.836c2.47,1.595,5.023,2.985,7.544,4.477
				C221.098,413.369,223.259,414.799,225.678,416.086z M211.032,483.821h61.755v30.877h-61.755V483.821z M190.447,463.236h-23.158
				l23.158-30.877V463.236z M151.85,483.821h38.597v30.877h-61.755L151.85,483.821z M396.296,597.038H87.522v-61.755h308.773
				V597.038z M293.371,514.698v-30.877h38.597l23.158,30.877H293.371z M316.529,463.236h-23.158v-24.259
				c1.853,0.319,3.726,0.556,5.589,0.823L316.529,463.236z M277.274,414.501c-1.884-0.525-3.767-1.029-5.63-1.626
				c-3.839-1.163-7.647-2.419-11.414-3.818c-3.386-1.266-6.721-2.676-10.045-4.117c-2.285-1.029-4.59-1.884-6.844-2.964
				c-12.855-6.247-25.011-13.833-36.271-22.643l-0.154-0.082c-7.637-5.867-14.831-12.279-21.542-19.185
				c-66.561-70.194-75.083-177.339-20.441-257.167c-0.216,1.276-0.319,2.604-0.504,3.891c-0.185,1.287-0.381,2.861-0.546,4.313
				c-0.504,4.354-0.823,8.769-0.978,13.246c0,0.782-0.103,1.544-0.113,2.326c-0.093,5.146,0.093,10.437,0.463,15.747
				c0.103,1.472,0.268,2.954,0.401,4.426c0.391,4.199,0.916,8.419,1.585,12.67c0.226,1.431,0.422,2.861,0.679,4.302
				c0.967,5.414,2.131,10.859,3.551,16.334c0.288,1.112,0.638,2.213,0.947,3.324c1.245,4.539,2.645,9.088,4.179,13.627
				c0.556,1.647,1.122,3.283,1.719,4.93c1.822,5.012,3.788,10.035,5.97,15.037c0.257,0.597,0.473,1.194,0.731,1.781
				c2.45,5.517,5.146,11.003,8.049,16.468c0.823,1.564,1.688,3.088,2.542,4.673c2.388,4.323,4.899,8.625,7.544,12.896
				c0.823,1.328,1.606,2.666,2.45,3.993c3.427,5.352,7.071,10.653,10.931,15.902c0.844,1.142,1.76,2.275,2.625,3.417
				c3.211,4.251,6.567,8.44,10.056,12.588l0.329,0.412l0.298,0.371c1.009,1.184,2.038,2.367,3.088,3.541
				c4.457,5.146,9.047,10.159,13.915,15.068c3.489,3.52,7.04,6.927,10.642,10.22c1.245,1.142,2.522,2.223,3.777,3.345l0.453,0.401
				c0.7,0.618,1.389,1.235,2.059,1.842c1.523,1.338,3.088,2.686,4.59,3.973c1.503,1.287,3.088,2.542,4.704,3.808
				c2.141,1.729,4.292,3.448,6.464,5.146c1.729,1.328,3.479,2.583,5.218,3.86c2.059,1.482,4.117,2.954,6.124,4.374
				c1.884,1.297,3.767,2.563,5.671,3.808s3.839,2.48,5.805,3.726c2.059,1.266,4.096,2.501,6.114,3.726
				c1.781,1.029,3.561,2.059,5.342,3.088c2.233,1.256,4.467,2.491,6.721,3.685c1.513,0.793,3.088,1.554,4.57,2.316
				c2.511,1.266,5.033,2.532,7.555,3.705c1.029,0.494,2.12,0.937,3.18,1.41c32.843,15.675,69.248,22.396,105.528,19.463
				C391.191,420.728,332.328,429.6,277.274,414.501z"/>
		</g>
	</g>
</g>
<g>
</g>
<g>
</g>
<g>
</g>
<g>
</g>
<g>
</g>
<g>
</g>
<g>
</g>
<g>
</g>
<g>
</g>
<g>
</g>
<g>
</g>
<g>
</g>
<g>
</g>
<g>
</g>
<g>
</g>
</svg>
