<?xml version="1.0" encoding="iso-8859-1"?>
<!-- Generator: Adobe Illustrator 21.0.0, SVG Export Plug-In . SVG Version: 6.00 Build 0)  -->
<svg version="1.1" id="Capa_1" xmlns="http://www.w3.org/2000/svg" xmlns:xlink="http://www.w3.org/1999/xlink" x="0px" y="0px"
	 viewBox="0 0 617.547 617.547" style="enable-background:new 0 0 617.547 617.547;" xml:space="preserve">
<g>
	<g>
		<g id="filled_outline_1_">
			<path style="fill:#AD7F5C;" d="M289.671,46.81L109.038,212.992c-23.58,21.686-36.991,52.255-36.991,84.285l0,0
				c0,27.347-9.778,53.788-27.573,74.548l-6.608,7.699c-17.796,20.76-27.573,47.201-27.573,74.548v14.904
				c0,76.37,61.909,138.279,138.279,138.279l0,0c36.672,0,71.852-14.564,97.778-40.501L566.753,246.35
				c25.937-25.927,40.501-61.106,40.501-97.778l0,0c0-76.37-61.909-138.279-138.279-138.279h-85.685
				C348.605,10.293,315.196,23.323,289.671,46.81z"/>
			<path style="fill:#996E51;" d="M468.975,10.293h-26.194c59.336,48.025,68.507,135.047,20.482,194.383
				c-3.047,3.767-6.299,7.369-9.726,10.797L133.133,535.876c-20.163,20.111-46.038,33.502-74.106,38.339
				c24.949,21.336,56.711,33.059,89.544,33.039l0,0c36.672,0,71.852-14.564,97.778-40.501L566.753,246.35
				c54.004-54.004,54.004-141.552,0-195.556C540.816,24.867,505.647,10.293,468.975,10.293z"/>
			<path style="fill:#AD7F5C;" d="M30.877,133.215v5.98c0,5.537,3.541,10.457,8.8,12.207l19.195,6.402
				c1.894,0.628,3.613,1.688,5.033,3.088l0,0c4.642,4.632,12.011,5.043,17.137,0.947l32.03-25.628
				c6.587-5.27,10.426-13.246,10.437-21.686l0,0c0-15.346-12.444-27.79-27.79-27.79H83.564c-7.369,0-14.44,2.923-19.659,8.141
				l-29.261,29.241C32.236,126.535,30.877,129.808,30.877,133.215z"/>
			<path style="fill:#AD7F5C;" d="M438.602,483.745h-11.867c-6.381,0-12.341,3.191-15.881,8.502l-6.247,9.356
				c-5.043,7.575-4.045,17.652,2.388,24.084l0,0c5.702,5.702,14.409,7.112,21.614,3.499l18.526-9.263
				c6.464-3.232,10.55-9.84,10.55-17.065l0,0c0.021-10.539-8.512-19.092-19.051-19.113
				C438.623,483.745,438.612,483.745,438.602,483.745z"/>
			<path style="fill:#AD7F5C;" d="M545.5,378.865v14.214c0,7.05,3.983,13.504,10.292,16.653l0,0
				c6.309,3.149,13.854,2.47,19.494-1.76l24.517-18.382c4.704-3.52,7.462-9.068,7.452-14.945V345.96
				c-0.01-8.008-5.136-15.099-12.732-17.631l-3.973-1.328c-8.275-2.758-17.363,0.597-21.861,8.08l-20.533,34.233
				C546.426,372.195,545.5,375.499,545.5,378.865z"/>
			<path d="M468.975,0h-85.685c-37.269-0.031-73.179,13.977-100.588,39.235L102.07,205.417
				c-25.659,23.662-40.274,56.969-40.316,91.87c-0.01,24.877-8.903,48.941-25.093,67.837l-6.618,7.709
				C10.663,395.467,0.01,424.275,0,454.061v14.914c0,82.051,66.52,148.571,148.571,148.571c39.399,0,77.193-15.655,105.055-43.516
				L574.03,253.626c58.018-58.018,58.018-152.091,0-210.11C546.168,15.655,508.375,0,468.975,0z M559.477,239.073L239.073,559.477
				c-49.98,49.98-131.023,49.98-181.003,0c-24.002-24.002-37.485-56.557-37.485-90.501v-14.914
				c0.01-24.877,8.903-48.941,25.083-67.837l6.628-7.709c19.381-22.623,30.033-51.431,30.044-81.228
				c0.031-29.148,12.238-56.958,33.667-76.72L296.628,54.385c23.611-21.758,54.55-33.831,86.662-33.8h85.685
				c70.688,0,127.987,57.298,127.987,127.987C596.962,182.516,583.479,215.071,559.477,239.073z"/>
			<path d="M313.92,277.896c-25.577,0-46.316,20.739-46.316,46.316s20.739,46.316,46.316,46.316
				c25.577,0,46.316-20.739,46.316-46.316C360.205,298.646,339.486,277.927,313.92,277.896z M313.92,349.943
				c-14.214,0-25.731-11.517-25.731-25.731s11.517-25.731,25.731-25.731s25.731,11.517,25.731,25.731
				S328.133,349.943,313.92,349.943z"/>
			<path d="M421.99,257.311c-17.055,0-30.877,13.823-30.877,30.877s13.823,30.877,30.877,30.877s30.877-13.823,30.877-30.877
				S439.045,257.311,421.99,257.311z M421.99,298.481c-5.681,0-10.292-4.611-10.292-10.292s4.611-10.292,10.292-10.292
				c5.681,0,10.292,4.611,10.292,10.292S427.672,298.481,421.99,298.481z"/>
			<rect x="514.622" y="144.094" width="20.585" height="20.585"/>
			<rect x="391.113" y="113.217" width="20.585" height="20.585"/>
			<rect x="205.849" y="442.575" width="20.585" height="20.585"/>
			<rect x="185.264" y="267.604" width="20.585" height="20.585"/>
			<path d="M346.927,75.063c3.952,4.086,3.839,10.601-0.257,14.554c-3.993,3.849-10.313,3.849-14.296,0L317.82,104.17
				c11.847,12.269,31.392,12.608,43.661,0.762c12.269-11.847,12.608-31.392,0.762-43.661c-0.247-0.257-0.504-0.515-0.762-0.762
				L346.927,75.063z"/>
			<path d="M113.217,397.144c3.952,4.086,3.839,10.601-0.257,14.554c-3.993,3.849-10.313,3.849-14.296,0L84.11,426.251
				c12.269,11.847,31.814,11.507,43.661-0.762c11.558-11.97,11.558-30.939,0-42.899L113.217,397.144z"/>
			<path d="M174.972,520.654c3.952,4.086,3.839,10.601-0.257,14.554c-3.993,3.849-10.313,3.849-14.296,0l-14.554,14.554
				c12.269,11.847,31.814,11.507,43.661-0.762c11.558-11.97,11.558-30.939,0-42.899L174.972,520.654z"/>
			<path d="M83.564,76.421c-10.117-0.031-19.823,3.993-26.956,11.167L27.368,116.84c-4.364,4.333-6.803,10.231-6.783,16.375v5.98
				c-0.01,9.973,6.371,18.825,15.83,21.964l19.165,6.402c0.391,0.124,0.741,0.34,1.029,0.628c8.347,8.378,21.655,9.109,30.877,1.709
				l32.03-25.628c16.437-13.123,19.134-37.084,6.011-53.521c-7.236-9.068-18.207-14.337-29.807-14.327H83.564z M113.217,114.524
				c0.021,5.321-2.408,10.364-6.577,13.668L74.61,153.81c-1.019,0.834-2.501,0.762-3.427-0.175
				c-2.542-2.542-5.651-4.457-9.057-5.589l-19.195-6.402c-1.05-0.35-1.76-1.338-1.76-2.45v-5.98c0-0.679,0.268-1.338,0.751-1.822
				l29.261-29.251c3.273-3.294,7.709-5.146,12.351-5.146H95.72c9.665,0,17.497,7.833,17.497,17.497
				C113.217,114.504,113.217,114.514,113.217,114.524z"/>
			<path d="M438.602,473.452h-11.867c-9.829-0.01-19.01,4.899-24.445,13.082l-6.247,9.366c-7.719,11.661-6.175,27.141,3.685,37.053
				c8.821,8.81,22.283,10.992,33.44,5.424l18.588-9.263c14.523-7.236,20.42-24.877,13.174-39.399
				C459.959,479.741,449.759,473.432,438.602,473.452z M442.575,510.691l-18.526,9.263c-3.232,1.626-7.133,0.988-9.685-1.575
				c-2.954-2.964-3.417-7.606-1.091-11.095l6.237-9.366c1.626-2.45,4.374-3.921,7.318-3.911h11.867c4.858-0.01,8.8,3.921,8.8,8.779
				C447.505,506.141,445.591,509.208,442.575,510.691z"/>
			<path d="M597.785,318.531l-3.993-1.338c-12.866-4.333-27.018,0.895-33.965,12.567l-20.585,34.222
				c-2.697,4.498-4.117,9.644-4.117,14.893v14.204c-0.082,15.953,12.794,28.953,28.747,29.035
				c6.371,0.031,12.577-2.048,17.651-5.908l24.517-18.393c7.246-5.496,11.507-14.07,11.507-23.168V345.96
				C617.577,333.506,609.611,322.442,597.785,318.531z M596.962,374.645c-0.01,2.625-1.245,5.084-3.335,6.669l-24.455,18.423
				c-3.654,2.789-8.882,2.089-11.672-1.564c-1.122-1.461-1.719-3.252-1.709-5.095v-14.204c0-1.513,0.412-2.995,1.184-4.292
				l20.533-34.233c1.492-2.522,4.21-4.055,7.133-4.055c0.895,0,1.791,0.144,2.645,0.432l3.983,1.338
				c3.396,1.132,5.692,4.313,5.692,7.894V374.645z"/>
			<rect x="164.679" y="41.17" width="20.585" height="20.585"/>
			<rect x="329.358" y="576.377" width="20.585" height="20.585"/>
			<rect y="308.773" width="20.585" height="20.585"/>
			<rect x="566.084" y="514.622" width="20.585" height="20.585"/>
		</g>
	</g>
</g>
<g>
</g>
<g>
</g>
<g>
</g>
<g>
</g>
<g>
</g>
<g>
</g>
<g>
</g>
<g>
</g>
<g>
</g>
<g>
</g>
<g>
</g>
<g>
</g>
<g>
</g>
<g>
</g>
<g>
</g>
</svg>
