<?xml version="1.0" encoding="iso-8859-1"?>
<!-- Generator: Adobe Illustrator 21.0.0, SVG Export Plug-In . SVG Version: 6.00 Build 0)  -->
<svg version="1.1" id="Capa_1" xmlns="http://www.w3.org/2000/svg" xmlns:xlink="http://www.w3.org/1999/xlink" x="0px" y="0px"
	 viewBox="0 0 617.39 617.39" style="enable-background:new 0 0 617.39 617.39;" xml:space="preserve">
<g>
	<g>
		<g id="filled_outline_2_">
			<path style="fill:#D0D7DF;" d="M169.747,401.248v154.387l-14.523,4.837c-9.768,3.263-16.355,12.402-16.355,22.695l0,0
				c0,13.216,10.714,23.93,23.93,23.93l0,0h99.579V401.248C262.379,401.248,169.747,401.248,169.747,401.248z"/>
			<path style="fill:#D0D7DF;" d="M396.181,401.248v154.387l14.523,4.837c9.768,3.263,16.355,12.402,16.355,22.695l0,0
				c0,13.216-10.714,23.93-23.93,23.93l0,0h-99.579V401.248C303.549,401.248,396.181,401.248,396.181,401.248z"/>
			<rect x="169.747" y="205.692" style="fill:#D0D7DF;" width="226.434" height="195.556"/>
			<path style="fill:#A8B2BF;" d="M344.718,349.786H221.209c-5.681,0-10.292-4.611-10.292-10.292v-82.34
				c0-5.681,4.611-10.292,10.292-10.292h123.509c5.681,0,10.292,4.611,10.292,10.292v82.34
				C355.011,345.175,350.41,349.786,344.718,349.786z M231.502,329.201h102.924v-61.755H231.502V329.201z"/>
			<path style="fill:#A8B2BF;" d="M262.379,349.786h-41.17c-5.681,0-10.292-4.611-10.292-10.292v-82.34
				c0-5.681,4.611-10.292,10.292-10.292h41.17c5.681,0,10.292,4.611,10.292,10.292v82.34
				C272.671,345.175,268.071,349.786,262.379,349.786z M231.502,329.201h20.585v-61.755h-20.585V329.201z"/>
			<rect x="293.256" y="288.031" style="fill:#2A90DE;" width="20.585" height="20.585"/>
			<path style="fill:#A8B2BF;" d="M406.473,20.428h-76.545c40.336,18.372,66.232,58.605,66.252,102.924v82.226h51.462V61.598
				C447.643,38.862,429.219,20.428,406.473,20.428z"/>
			<path style="fill:#A8B2BF;" d="M169.747,205.579v-82.226c0.021-44.319,25.916-84.552,66.252-102.924h-76.545
				c-22.736,0-41.17,18.434-41.17,41.17v164.679"/>
			<path style="fill:#D0D7DF;" d="M329.928,20.428c-56.897-25.937-124.045-0.844-149.981,56.053
				c-6.711,14.718-10.19,30.702-10.2,46.872v82.34h226.434v-82.34C396.17,79.023,370.275,38.8,329.928,20.428z"/>
			<path style="fill:#D0D7DF;" d="M169.747,205.692L169.747,205.692L169.747,205.692v205.849c0,22.736-18.434,41.17-41.17,41.17l0,0
				c-22.736,0-41.17-18.434-41.17-41.17V288.031C87.407,242.559,124.275,205.692,169.747,205.692z"/>
			<path style="fill:#2A90DE;" d="M217.946,102.767c-17.147,35.91-1.935,78.912,33.975,96.059s78.912,1.935,96.059-33.975
				c9.376-19.628,9.376-42.446,0-62.084C347.981,102.767,217.946,102.767,217.946,102.767z"/>
			<path style="fill:#2A669E;" d="M347.981,102.767h-41.17c17.116,35.797,1.976,78.696-33.821,95.823
				c-3.427,1.637-6.968,3.005-10.612,4.076c38.041,11.435,78.151-10.128,89.585-48.169
				C357.131,137.36,355.7,118.916,347.981,102.767z"/>
			<path style="fill:#C3C9D1;" d="M282.964,61.598c-27.81,0.01-53.119,16.036-65.017,41.17h130.035
				C336.083,77.633,310.774,61.608,282.964,61.598z"/>
			<path style="fill:#D0D7DF;" d="M396.181,205.692h51.462v-82.34c0-22.736,18.434-41.17,41.17-41.17l0,0
				c22.736,0,41.17,18.434,41.17,41.17v99.065c0,36.24-29.375,65.614-65.614,65.614h-68.187V205.692z"/>
			<rect x="396.181" y="288.031" style="fill:#A8B2BF;" width="51.462" height="113.217"/>
			<rect x="396.181" y="288.031" style="fill:#808B96;" width="51.462" height="30.877"/>
			<path d="M344.718,246.862H221.209c-5.681,0-10.292,4.611-10.292,10.292v82.34c0,5.681,4.611,10.292,10.292,10.292h123.509
				c5.681,0,10.292-4.611,10.292-10.292v-82.34C355.011,251.462,350.41,246.862,344.718,246.862z M252.086,329.201h-20.585v-61.755
				h20.585V329.201z M334.426,329.201h-61.755v-61.755h61.755V329.201z"/>
			<rect x="293.256" y="288.031" width="20.585" height="20.585"/>
			<path d="M128.577,463.003c11.167-0.041,22.026-3.746,30.877-10.56v95.771l-7.483,2.491c-17.929,5.98-27.615,25.371-21.624,43.3
				c4.662,13.967,17.724,23.384,32.442,23.384h99.59c5.681,0,10.292-4.611,10.292-10.292V411.541h20.585v195.556
				c0,5.681,4.611,10.292,10.292,10.292h99.59c18.897-0.01,34.212-15.336,34.202-34.243c-0.01-14.718-9.428-27.79-23.384-32.442
				l-7.483-2.491V411.541h41.17c5.681,0,10.292-4.611,10.292-10.292V298.324h6.422c41.901-0.041,75.866-34.006,75.917-75.907
				v-99.065c-0.031-28.407-23.055-51.431-51.462-51.462c-11.167,0.041-22.026,3.746-30.877,10.56V61.598
				c-0.031-28.407-23.055-51.431-51.462-51.462h-74.62c-31.196-13.514-66.582-13.514-97.778,0h-74.62
				c-28.407,0.031-51.431,23.055-51.462,51.462v157.588c-19.628,17.507-30.857,42.549-30.877,68.846v123.509
				C77.156,439.948,100.17,462.962,128.577,463.003z M519.69,222.417c0.01,11.116-3.355,21.964-9.644,31.124l-37.557-37.557h47.201
				V222.417z M457.935,123.352c0-17.055,13.823-30.877,30.877-30.877s30.877,13.823,30.877,30.877v10.292h-61.755V123.352z
				 M457.935,154.23h61.755v41.17h-61.755V154.23z M457.935,230.538l37.557,37.557c-9.16,6.289-20.019,9.654-31.135,9.644h-6.422
				C457.935,277.739,457.935,230.538,457.935,230.538z M252.086,596.805h-89.297c-7.524,0.01-13.637-6.083-13.648-13.607
				c-0.01-5.887,3.757-11.116,9.346-12.958l12.938-4.313h80.662V596.805z M252.086,545.343h-72.047v-30.877h72.047V545.343z
				 M252.086,493.88h-72.047v-30.877h72.047V493.88z M252.086,442.418h-72.047v-30.877h72.047V442.418z M262.379,390.956h-82.34
				V215.984h205.849v174.972H262.379z M341.116,113.06c11.476,32.112-5.249,67.457-37.372,78.933
				c-32.112,11.476-67.457-5.249-78.933-37.372c-4.807-13.442-4.807-28.129,0-41.571h116.305V113.06z M237.059,92.475
				c22.582-25.35,61.446-27.594,86.796-5.012c1.77,1.575,3.438,3.242,5.012,5.012C328.868,92.475,237.059,92.475,237.059,92.475z
				 M313.841,493.88v-30.877h72.047v30.877H313.841z M385.888,514.465v30.877h-72.047v-30.877H385.888z M313.841,442.418v-30.877
				h72.047v30.877H313.841z M407.441,570.24c7.143,2.367,11.023,10.076,8.656,17.219c-1.853,5.589-7.071,9.356-12.958,9.346h-89.297
				v-30.877h80.662L407.441,570.24z M437.35,390.956h-30.877v-92.632h30.877V390.956z M437.35,277.739h-30.877v-61.755h30.877
				V277.739z M406.473,30.72c17.055,0,30.877,13.823,30.877,30.877v133.689h-30.877v-71.934c0-3.993-0.268-7.946-0.648-11.867
				c-0.093-1.029-0.206-1.986-0.329-2.975c-0.463-3.788-1.029-7.544-1.853-11.25l-0.062-0.329
				c-0.834-3.808-1.914-7.534-3.088-11.219c-0.298-0.926-0.607-1.842-0.926-2.758c-1.215-3.479-2.542-6.906-4.055-10.292
				c-0.082-0.185-0.144-0.381-0.237-0.566c-1.606-3.499-3.417-6.886-5.332-10.21c-0.484-0.834-1.029-1.657-1.472-2.48
				c-1.863-3.088-3.829-6.062-5.949-8.954c-0.175-0.237-0.329-0.494-0.504-0.731c-2.295-3.088-4.765-6.021-7.339-8.882
				c-0.638-0.71-1.297-1.41-1.945-2.058c-2.429-2.583-4.951-5.074-7.606-7.452c-0.216-0.196-0.401-0.412-0.618-0.607L406.473,30.72z
				 M240.281,29.794c51.73-23.57,112.764-0.751,136.344,50.978c6.093,13.37,9.253,27.893,9.263,42.58v72.047h-48.642
				c34.191-29.982,37.609-82,7.627-116.191c-29.982-34.191-82-37.609-116.191-7.627s-37.609,82-7.627,116.191
				c2.378,2.707,4.92,5.259,7.627,7.627h-48.642v-72.047C180.142,83.078,203.671,46.55,240.281,29.794z M128.577,61.598
				c0-17.055,13.823-30.877,30.877-30.877h41.983c-0.216,0.196-0.401,0.412-0.618,0.607c-2.655,2.378-5.146,4.868-7.606,7.452
				c-0.648,0.69-1.307,1.389-1.945,2.058c-2.573,2.861-5.043,5.805-7.339,8.882c-0.175,0.237-0.319,0.473-0.494,0.71
				c-2.12,2.902-4.117,5.908-5.959,8.975c-0.494,0.823-1.029,1.647-1.472,2.48c-1.914,3.324-3.726,6.711-5.331,10.21
				c-0.093,0.185-0.154,0.381-0.237,0.566c-1.513,3.345-2.841,6.772-4.055,10.292c-0.319,0.916-0.628,1.832-0.926,2.758
				c-1.194,3.685-2.275,7.411-3.088,11.219l-0.062,0.298c-0.803,3.716-1.389,7.483-1.853,11.322
				c-0.124,1.029-0.237,1.976-0.329,2.975c-0.401,3.88-0.669,7.833-0.669,11.826v72.654c-10.756,1.215-21.202,4.313-30.877,9.171
				C128.577,205.177,128.577,61.598,128.577,61.598z M159.454,216.715v61.024H98.513
				C103.103,246.162,127.888,221.347,159.454,216.715z M97.7,298.324h61.755v41.17H97.7V298.324z M97.7,360.079h61.755v30.877H97.7
				V360.079z M159.454,411.541c0,17.055-13.823,30.877-30.877,30.877S97.7,428.595,97.7,411.541H159.454z"/>
		</g>
	</g>
</g>
<g>
</g>
<g>
</g>
<g>
</g>
<g>
</g>
<g>
</g>
<g>
</g>
<g>
</g>
<g>
</g>
<g>
</g>
<g>
</g>
<g>
</g>
<g>
</g>
<g>
</g>
<g>
</g>
<g>
</g>
</svg>
