<?xml version="1.0" encoding="iso-8859-1"?>
<!-- Generator: Adobe Illustrator 21.0.0, SVG Export Plug-In . SVG Version: 6.00 Build 0)  -->
<svg version="1.1" id="Capa_1" xmlns="http://www.w3.org/2000/svg" xmlns:xlink="http://www.w3.org/1999/xlink" x="0px" y="0px"
	 viewBox="0 0 617.567 617.567" style="enable-background:new 0 0 617.567 617.567;" xml:space="preserve">
<g>
	<g>
		<g id="filled_outline_4_">
			<path style="fill:#F06529;" d="M56.968,377.321c-59.851,41.376-74.816,123.437-33.44,183.288s123.437,74.816,183.288,33.44
				c13.071-9.037,24.403-20.369,33.44-33.44l375.479-544.47c3.232-4.683,2.048-11.085-2.625-14.317
				c-3.52-2.429-8.172-2.429-11.692,0L56.968,377.321z"/>
			<circle style="fill:#FABC5F;" cx="128.666" cy="488.912" r="77.193"/>
			<rect x="0.01" y="329.379" style="fill:#F06529;" width="20.585" height="154.387"/>
			
				<rect x="-20.574" y="349.953" transform="matrix(0.3848 -0.923 0.923 0.3848 -304.0058 264.383)" style="fill:#F06529;" width="133.802" height="20.585"/>
			
				<rect x="-15.064" y="272.776" transform="matrix(0.6317 -0.7752 0.7752 0.6317 -168.7527 210.9349)" style="fill:#F06529;" width="305.363" height="20.585"/>
			<rect x="133.812" y="596.982" style="fill:#F06529;" width="174.972" height="20.585"/>
			
				<rect x="188.563" y="551.939" transform="matrix(0.9213 -0.3889 0.3889 0.9213 -196.7679 152.3431)" style="fill:#F06529;" width="178.742" height="20.575"/>
			
				<rect x="187.448" y="483.737" transform="matrix(0.7808 -0.6248 0.6248 0.7808 -238.6801 307.7917)" style="fill:#F06529;" width="263.696" height="20.606"/>
			<path d="M128.666,576.397c48.313,0,87.486-39.173,87.486-87.486s-39.173-87.486-87.486-87.486S41.18,440.599,41.18,488.912
				C41.231,537.204,80.373,576.336,128.666,576.397z M128.666,422.011c36.95,0,66.901,29.951,66.901,66.901
				s-29.951,66.901-66.901,66.901s-66.901-29.951-66.901-66.901C61.806,451.982,91.736,422.052,128.666,422.011z"/>
			<path d="M131.753,617.567c0.679,0,1.348-0.113,2.058-0.123v0.123h174.972v-20.585h-86.745l142.211-59.995l-8.008-18.959
				l-107.155,45.204l179.346-143.477l-12.866-16.077L265.915,523.402l349.82-507.253c3.211-4.693,2.007-11.095-2.686-14.306
				c-3.499-2.398-8.121-2.398-11.62,0L96.069,350.355l145.988-179.15l-15.964-13.01L53.315,370.229l28.242-67.765l-19-7.925
				L20.595,395.25v-65.872H0.01v154.387h0.124c0,0.679-0.124,1.348-0.124,2.059C0.103,558.54,59.037,617.475,131.753,617.567z
				 M68.65,394.273L566.98,50.598L223.356,548.927c-34.963,50.464-104.211,63.031-154.675,28.068
				C18.217,542.031,5.65,472.783,40.614,422.32C48.199,411.368,57.699,401.868,68.65,394.273z"/>
			
				<rect x="54.046" y="211.011" transform="matrix(0.3848 -0.923 0.923 0.3848 -140.1464 232.3423)" width="100.351" height="20.585"/>
			
				<rect x="241.03" y="125.871" transform="matrix(0.6317 -0.7752 0.7752 0.6317 -10.7849 249.6268)" width="32.586" height="20.585"/>
			<rect x="0.01" y="257.332" width="20.585" height="51.462"/>
			
				<rect x="389.153" y="494.071" transform="matrix(0.9285 -0.3714 0.3714 0.9285 -157.5003 190.8941)" width="55.426" height="20.585"/>
			
				<rect x="428.803" y="364.038" transform="matrix(0.7547 -0.6561 0.6561 0.7547 -131.2809 397.5639)" width="74.385" height="20.596"/>
			<rect x="329.368" y="596.982" width="30.877" height="20.585"/>
		</g>
	</g>
</g>
<g>
</g>
<g>
</g>
<g>
</g>
<g>
</g>
<g>
</g>
<g>
</g>
<g>
</g>
<g>
</g>
<g>
</g>
<g>
</g>
<g>
</g>
<g>
</g>
<g>
</g>
<g>
</g>
<g>
</g>
</svg>
