<?xml version="1.0" encoding="iso-8859-1"?>
<!-- Generator: Adobe Illustrator 21.0.0, SVG Export Plug-In . SVG Version: 6.00 Build 0)  -->
<svg version="1.1" id="Capa_1" xmlns="http://www.w3.org/2000/svg" xmlns:xlink="http://www.w3.org/1999/xlink" x="0px" y="0px"
	 viewBox="0 0 612.174 612.174" style="enable-background:new 0 0 612.174 612.174;" xml:space="preserve">
<g>
	<g>
		<g id="filled_outline_9_">
			<path style="fill:#2683C9;" d="M497.372,130.323c-87.939-80.209-245.32-67.21-350.818,28.994
				C89.328,211.541,56.495,279.954,56.495,347.03c-0.638,51.195,20.564,100.238,58.307,134.831
				c40.48,35.221,92.694,53.984,146.328,52.605c75.886-1.112,148.695-30.167,204.49-81.609
				c57.247-52.224,90.079-120.638,90.079-187.714C556.327,213.949,535.114,164.916,497.372,130.323z"/>
			
				<ellipse transform="matrix(0.8491 -0.5283 0.5283 0.8491 -115.4997 207.9077)" style="fill:#2A90DE;" cx="306.105" cy="306.088" rx="155.802" ry="126.21"/>
			
				<ellipse transform="matrix(0.8491 -0.5283 0.5283 0.8491 -115.4997 207.9077)" style="fill:#69CCD7;" cx="306.105" cy="306.088" rx="71.916" ry="58.247"/>
			<path style="fill:#2683C9;" d="M124.158,604.568c-3.829,4.199-10.344,4.498-14.543,0.669l0,0l-6.927-6.32
				C51.4,551.891,22.571,485.237,23.436,415.65c0-91.52,44.875-184.945,123.129-256.333l13.874,15.223
				C86.467,242.016,44.031,329.893,44.031,415.65c-0.834,63.782,25.546,124.899,72.521,168.055l6.937,6.32
				C127.688,593.853,127.987,600.369,124.158,604.568L124.158,604.568z"/>
			<path style="fill:#2683C9;" d="M465.62,452.857l-13.895-15.223c73.982-67.477,116.418-155.354,116.418-241.111
				c0.834-63.782-25.546-124.899-72.521-168.055l-6.937-6.32c-4.199-3.829-4.498-10.344-0.669-14.543l0,0l0,0
				c3.829-4.199,10.344-4.498,14.543-0.669l0,0l6.927,6.32c51.287,47.026,80.116,113.68,79.252,183.267
				C588.728,288.044,543.842,381.469,465.62,452.857z"/>
			<path style="fill:#2683C9;" d="M314.249,553.507c-75.464,0-146.647-23.487-199.447-71.656l13.864-15.202
				c112.342,102.482,314.856,84.522,451.406-40.038l9.963-9.078c4.189-3.829,10.694-3.541,14.533,0.648l0,0
				c3.829,4.199,3.53,10.704-0.669,14.543l0,0l-9.953,9.088C517.638,512.203,418.048,551.973,314.249,553.507z"/>
			<path style="fill:#2683C9;" d="M7.606,193.992L7.606,193.992c-3.808-4.199-3.51-10.673,0.669-14.502l9.953-9.088
				C162.425,38.864,377.372,20.914,497.372,130.364l-13.864,15.161C371.145,43.043,168.642,61.014,32.102,185.573l-9.963,9.078
				C17.94,198.479,11.435,198.181,7.606,193.992z"/>
			<path d="M365.701,250.436c-27.862-25.391-77.265-21.696-110.129,8.234c-17.219,14.893-27.419,36.322-28.14,59.079
				c-0.185,16.694,6.742,32.668,19.051,43.949c12.927,11.27,29.611,17.291,46.759,16.869c23.498-0.288,46.069-9.232,63.371-25.134
				c17.219-14.893,27.419-36.322,28.14-59.079c0.185-16.694-6.742-32.668-19.051-43.938V250.436z M342.749,338.241
				c-25.237,23.014-62.197,26.699-82.401,8.296c-8.069-7.349-12.577-17.827-12.351-28.747c0.72-16.962,8.481-32.864,21.419-43.856
				c13.473-12.516,31.083-19.638,49.476-20.009c12.052-0.35,23.806,3.829,32.936,11.713c8.069,7.349,12.577,17.827,12.351,28.747
				C363.457,311.346,355.686,327.248,342.749,338.241z"/>
			<path d="M204.706,212.333c-34.819,29.992-55.497,73.169-57.051,119.094c-0.401,32.802,13.195,64.215,37.372,86.374
				c25.803,22.448,59.079,34.408,93.27,33.533c47.942-0.659,93.949-18.979,129.211-51.462
				c34.819-29.992,55.497-73.169,57.051-119.094c0.401-32.802-13.195-64.215-37.372-86.374
				C371.259,143.405,271.463,151.464,204.706,212.333z M393.573,384.629c-59.089,53.922-146.441,61.961-194.702,17.95
				c-20.009-18.176-31.176-44.113-30.651-71.141c1.564-40.141,19.834-77.801,50.382-103.892
				c59.11-53.922,146.451-61.961,194.702-17.95c20.009,18.176,31.176,44.113,30.651,71.141
				C442.39,320.877,424.121,358.537,393.573,384.629z"/>
			<path d="M497.372,130.323c-120-109.45-334.947-91.5-479.144,40.038L0.669,186.386l13.874,15.202l17.559-16.015
				c83.091-75.794,190.616-112.033,287.365-105.765c-64.513,7.843-124.971,35.632-172.913,79.509
				C68.332,230.705,23.446,324.13,23.446,415.65c-0.865,69.587,27.965,136.241,79.252,183.267l14.533,13.257l13.885-15.212
				l-14.543-13.257C69.587,540.559,43.208,479.432,44.031,415.65c0.124-28.201,4.498-56.217,12.979-83.112
				c-0.329,4.827-0.545,9.665-0.545,14.492c-0.638,51.195,20.564,100.238,58.307,134.831c4.827,4.405,9.881,8.543,15.14,12.413
				c53.119,39.739,117.982,60.592,184.307,59.243c103.81-1.534,203.42-41.304,279.728-111.704l17.559-16.025l-13.874-15.202
				l-17.559,16.015c-82.823,75.547-189.906,111.807-286.428,105.827c64.184-8.069,124.271-35.879,171.976-79.571
				c78.223-71.388,123.129-164.813,123.129-256.282c0.865-69.587-27.965-136.241-79.252-183.267L494.953,0l-13.895,15.212
				l14.543,13.257c46.975,43.156,73.354,104.273,72.521,168.055c-0.113,28.201-4.487,56.217-12.958,83.111
				c0.329-4.827,0.545-9.665,0.545-14.492C556.337,213.949,535.125,164.916,497.372,130.323z M461.41,428.392
				c-3.191,3.088-6.371,6.175-9.685,9.263c-97.84,89.246-242.747,102.266-323.059,29.004C95.226,435.936,76.473,392.43,77.08,347.03
				c0-57.463,26.699-116.305,73.684-163.248c3.191-3.088,6.371-6.175,9.685-9.263c97.778-89.246,242.758-102.266,323.059-29.004
				c33.44,30.723,52.193,74.229,51.586,119.629C535.094,322.555,508.395,381.448,461.41,428.392z"/>
		</g>
	</g>
</g>
<g>
</g>
<g>
</g>
<g>
</g>
<g>
</g>
<g>
</g>
<g>
</g>
<g>
</g>
<g>
</g>
<g>
</g>
<g>
</g>
<g>
</g>
<g>
</g>
<g>
</g>
<g>
</g>
<g>
</g>
</svg>
