<?xml version="1.0" encoding="iso-8859-1"?>
<!-- Generator: Adobe Illustrator 21.0.0, SVG Export Plug-In . SVG Version: 6.00 Build 0)  -->
<svg version="1.1" id="Capa_1" xmlns="http://www.w3.org/2000/svg" xmlns:xlink="http://www.w3.org/1999/xlink" x="0px" y="0px"
	 viewBox="0 0 617.71 617.71" style="enable-background:new 0 0 617.71 617.71;" xml:space="preserve">
<g>
	<g>
		<g id="filled_outline_14_">
			<rect x="66.982" y="10.292" style="fill:#2A90DE;" width="102.924" height="82.34"/>
			<polygon style="fill:#2683C9;" points="77.275,92.632 169.907,92.632 169.907,10.292 159.614,10.292 			"/>
			<rect x="159.614" y="10.292" style="fill:#A8B2BF;" width="20.585" height="277.896"/>
			<rect x="159.614" y="144.094" style="fill:#808B96;" width="20.585" height="30.877"/>
			<circle style="fill:#996E51;" cx="314.001" cy="442.575" r="164.679"/>
			<path style="fill:#C3C9D1;" d="M314.001,288.188h-49.033c-7.03,0-12.721-5.692-12.721-12.721l0,0l0,0
				c0-4.817,2.727-9.222,7.03-11.383l13.555-6.772v-51.462h41.17V288.188z"/>
			<path style="fill:#C3C9D1;" d="M314.001,288.188h49.033c7.03,0,12.721-5.692,12.721-12.721l0,0l0,0
				c0-4.817-2.727-9.222-7.03-11.383l-13.555-6.772v-51.462h-41.17V288.188z"/>
			<path style="fill:#B7BDC4;" d="M396.341,205.849H231.661V51.462c0-22.736,18.434-41.17,41.17-41.17h82.34
				c22.736,0,41.17,18.434,41.17,41.17V205.849z"/>
			<path style="fill:#A8B2BF;" d="M355.171,10.292h-41.17c22.736,0,41.17,18.434,41.17,41.17v154.387h41.17V51.462
				C396.341,28.726,377.907,10.292,355.171,10.292z"/>
			<circle style="fill:#2A90DE;" cx="314.001" cy="82.34" r="41.17"/>
			<path style="fill:#2A669E;" d="M334.349,46.748c0.113,1.564,0.237,3.088,0.237,4.714c0,29.241-20.513,54.478-49.136,60.458
				c16.252,15.83,42.261,15.48,58.091-0.772c15.83-16.252,15.48-42.261-0.772-58.091C340.247,50.608,337.416,48.488,334.349,46.748z
				"/>
			<path style="fill:#C3C9D1;" d="M169.907,164.679h102.924v-41.17H169.907c-11.373,0-20.585,9.212-20.585,20.585l0,0
				C149.322,155.467,158.534,164.679,169.907,164.679z"/>
			<rect x="272.831" y="123.509" style="fill:#C3C9D1;" width="82.34" height="82.34"/>
			<rect x="499.265" y="20.585" style="fill:#FABC5F;" width="20.585" height="61.755"/>
			<rect x="478.68" y="41.17" style="fill:#FABC5F;" width="61.755" height="20.585"/>
			<rect x="591.897" y="61.755" style="fill:#FABC5F;" width="20.585" height="20.585"/>
			<rect x="561.02" y="185.264" style="fill:#FABC5F;" width="20.585" height="61.755"/>
			<rect x="540.435" y="205.849" style="fill:#FABC5F;" width="61.755" height="20.585"/>
			<rect x="25.813" y="174.972" style="fill:#FABC5F;" width="20.585" height="61.755"/>
			<rect x="5.228" y="195.556" style="fill:#FABC5F;" width="61.755" height="20.585"/>
			<rect x="66.982" y="329.358" style="fill:#FABC5F;" width="20.585" height="20.585"/>
			<rect x="530.142" y="432.283" style="fill:#FABC5F;" width="20.585" height="20.585"/>
			<path style="fill:#C3C9D1;" d="M396.341,123.509h-41.17v41.17h41.17v30.877c0,11.373,9.212,20.585,20.585,20.585
				c11.373,0,20.585-9.212,20.585-20.585v-30.877C437.51,141.943,419.077,123.509,396.341,123.509z"/>
			<path d="M384.792,282.723c3.746-10.828-1.173-22.746-11.455-27.79l0,0l-7.874-3.983v-34.809h28.613
				c11.311,12.68,30.754,13.792,43.434,2.491c6.577-5.867,10.323-14.265,10.292-23.076v-30.877
				c-0.031-24.445-17.23-45.513-41.17-50.433V51.462C406.602,23.055,383.578,0.031,355.171,0h-82.34
				c-28.407,0.031-51.431,23.055-51.462,51.462v61.755h-41.17V10.292C180.199,4.611,175.588,0,169.907,0H66.982
				C61.301,0,56.69,4.611,56.69,10.292v82.34c0,5.681,4.611,10.292,10.292,10.292h92.632v12.186
				c-16.005,5.578-24.465,23.076-18.887,39.08c3.077,8.852,10.035,15.799,18.887,18.887v115.111h20.585V174.972h41.17v30.877
				c0,5.681,4.611,10.292,10.292,10.292h30.877v34.809l-7.874,3.942c-10.282,5.043-15.202,16.962-11.455,27.79
				c-88.371,39.101-128.316,142.427-89.215,230.798s142.427,128.326,230.798,89.225c88.371-39.101,128.316-142.427,89.215-230.798
				c-17.61-39.801-49.414-71.615-89.215-89.215V282.723z M406.633,135.562c12.33,4.374,20.564,16.036,20.585,29.117h-20.585V135.562
				z M406.633,185.264h20.585v10.292c0,5.681-4.611,10.292-10.292,10.292c-5.681,0-10.292-4.611-10.292-10.292V185.264z
				 M77.275,82.34V20.585h82.34V82.34H77.275z M180.199,154.387h-10.292c-5.681,0-10.292-4.611-10.292-10.292
				s4.611-10.292,10.292-10.292h10.292V154.387z M221.369,154.387h-20.585v-20.585h20.585V154.387z M386.048,195.556h-20.585
				v-20.585h20.585V195.556z M386.048,154.387h-20.585v-20.585h20.585V154.387z M241.954,51.462
				c0-17.055,13.823-30.877,30.877-30.877h82.34c17.055,0,30.877,13.823,30.877,30.877v61.755h-31.145
				c6.814-8.851,10.519-19.71,10.56-30.877c0-28.417-23.045-51.462-51.462-51.462s-51.462,23.045-51.462,51.462
				c0.041,11.167,3.746,22.026,10.56,30.877h-31.145V51.462z M283.124,195.556v-61.755h61.755v61.755H283.124z M303.709,216.141
				v20.585h-20.585v-20.585H303.709z M283.124,82.34c0-17.055,13.823-30.877,30.877-30.877s30.877,13.823,30.877,30.877
				s-13.823,30.877-30.877,30.877S283.124,99.394,283.124,82.34z M344.878,216.141v20.585h-20.585v-20.585H344.878z
				 M324.293,257.311h20.585c0,3.901,2.203,7.472,5.692,9.212l13.555,6.772c0.823,0.412,1.338,1.256,1.338,2.172
				c0,1.173-0.793,1.935-2.429,2.429l-38.741-0.072C324.294,277.824,324.294,257.311,324.293,257.311z M241.954,133.802h20.585
				v20.585h-20.585V133.802z M241.954,195.556v-20.585h20.585v20.585H241.954z M263.877,273.295l13.555-6.772
				c3.489-1.739,5.692-5.311,5.692-9.212h20.585v20.472l-31.258-0.062h-8.44c-1.225-0.525-1.801-1.945-1.276-3.18
				c0.226-0.525,0.628-0.957,1.142-1.204V273.295z M314.001,596.962c-85.221,0.051-154.345-68.99-154.397-154.212
				c-0.041-64.554,40.11-122.305,100.64-144.763l0,0c1.544,0.319,3.108,0.484,4.683,0.484h98.066c1.575,0,3.149-0.165,4.693-0.484
				l0,0c79.9,29.642,120.638,118.435,91.006,198.335C436.244,556.821,378.524,596.972,314.001,596.962z"/>
			<path d="M252.246,370.528c-28.417,0-51.462,23.045-51.462,51.462s23.045,51.462,51.462,51.462s51.462-23.045,51.462-51.462
				C303.678,393.583,280.654,370.559,252.246,370.528z M252.246,452.867c-17.055,0-30.877-13.823-30.877-30.877
				s13.823-30.877,30.877-30.877s30.877,13.823,30.877,30.877S269.301,452.867,252.246,452.867z"/>
			<path d="M355.171,463.16c-17.055,0-30.877,13.823-30.877,30.877s13.823,30.877,30.877,30.877s30.877-13.823,30.877-30.877
				S372.225,463.16,355.171,463.16z M355.171,504.33c-5.681,0-10.292-4.611-10.292-10.292c0-5.681,4.611-10.292,10.292-10.292
				c5.681,0,10.292,4.611,10.292,10.292C365.463,499.719,360.852,504.33,355.171,504.33z"/>
			<rect x="375.756" y="380.82" width="20.585" height="20.585"/>
			<polygon points="540.435,41.17 519.85,41.17 519.85,20.585 499.265,20.585 499.265,41.17 478.68,41.17 478.68,61.755 
				499.265,61.755 499.265,82.34 519.85,82.34 519.85,61.755 540.435,61.755 			"/>
			<rect x="591.897" y="61.755" width="20.585" height="20.585"/>
			<polygon points="581.605,185.264 561.02,185.264 561.02,205.849 540.435,205.849 540.435,226.434 561.02,226.434 561.02,247.019 
				581.605,247.019 581.605,226.434 602.189,226.434 602.189,205.849 581.605,205.849 			"/>
			<polygon points="66.982,195.556 46.398,195.556 46.398,174.972 25.813,174.972 25.813,195.556 5.228,195.556 5.228,216.141 
				25.813,216.141 25.813,236.726 46.398,236.726 46.398,216.141 66.982,216.141 			"/>
			<rect x="66.982" y="329.358" width="20.585" height="20.585"/>
			<rect x="530.142" y="432.283" width="20.585" height="20.585"/>
			<rect x="303.709" y="154.387" width="20.585" height="20.585"/>
		</g>
	</g>
</g>
<g>
</g>
<g>
</g>
<g>
</g>
<g>
</g>
<g>
</g>
<g>
</g>
<g>
</g>
<g>
</g>
<g>
</g>
<g>
</g>
<g>
</g>
<g>
</g>
<g>
</g>
<g>
</g>
<g>
</g>
</svg>
