<?xml version="1.0" encoding="iso-8859-1"?>
<!-- Generator: Adobe Illustrator 21.0.0, SVG Export Plug-In . SVG Version: 6.00 Build 0)  -->
<svg version="1.1" id="Capa_1" xmlns="http://www.w3.org/2000/svg" xmlns:xlink="http://www.w3.org/1999/xlink" x="0px" y="0px"
	 viewBox="0 0 617.536 617.536" style="enable-background:new 0 0 617.536 617.536;" xml:space="preserve">
<g>
	<g>
		<g id="filled_outline_18_">
			
				<rect x="54.768" y="403.047" transform="matrix(0.7071 -0.7071 0.7071 0.7071 -313.4434 231.9088)" style="fill:#F5AE45;" width="136.898" height="182.535"/>
			<polygon style="fill:#F09E26;" points="144.089,418.372 144.089,602.525 236.165,510.449 			"/>
			
				<rect x="228.908" y="194.686" transform="matrix(0.7071 -0.7071 0.7071 0.7071 -127.899 308.7682)" style="fill:#F5AE45;" width="159.717" height="228.171"/>
			<polygon style="fill:#F09E26;" points="445.905,332.966 288.183,175.244 288.183,401.122 332.966,445.905 			"/>
			
				<rect x="297.06" y="212.074" transform="matrix(0.7071 -0.7071 0.7071 0.7071 -99.658 320.4504)" style="fill:#E38800;" width="79.858" height="136.898"/>
			
				<rect x="240.594" y="326.707" transform="matrix(0.7071 -0.7071 0.7071 0.7071 -156.1312 297.0646)" style="fill:#E38800;" width="79.858" height="20.585"/>
			
				<rect x="425.84" y="31.96" transform="matrix(0.7071 -0.7071 0.7071 0.7071 57.6389 385.6078)" style="fill:#F5AE45;" width="136.898" height="182.535"/>
			<polygon style="fill:#F09E26;" points="514.617,46.733 514.617,231.997 607.249,139.365 			"/>
			<polygon style="fill:#E38800;" points="235.373,170.839 220.819,156.286 156.286,220.819 170.839,235.373 195.829,260.363 
				260.363,195.829 			"/>
			<polygon style="fill:#E38800;" points="446.697,382.164 421.707,357.173 357.174,421.707 382.164,446.697 396.717,461.251 
				461.251,396.717 			"/>
			<circle style="fill:#FABC5F;" cx="195.829" cy="228.096" r="15.439"/>
			<circle style="fill:#FABC5F;" cx="228.096" cy="195.829" r="15.439"/>
			<circle style="fill:#FABC5F;" cx="389.44" cy="421.707" r="15.439"/>
			<circle style="fill:#FABC5F;" cx="421.707" cy="389.44" r="15.439"/>
			<path d="M485.448,3.011c-4.014-4.014-10.539-4.014-14.554,0l-96.8,96.821c-4.014,4.024-4.014,10.539,0,14.554l57.257,57.267
				l-33.842,33.842l-81.465-81.475c-17.394-17.374-45.565-17.374-62.959,0l-32.267,32.267l-64.534,64.534l-32.267,32.267
				c-17.363,17.394-17.363,45.565,0,62.959l81.454,81.465l-33.842,33.842l-57.267-57.257c-4.024-4.014-10.539-4.014-14.554,0
				l-96.8,96.8c-4.014,4.014-4.014,10.539,0,14.554l129.078,129.078c4.024,4.014,10.529,4.014,14.554,0l96.749-96.8
				c4.014-4.014,4.014-10.539,0-14.554l-57.205-57.267l33.842-33.842l81.465,81.454c17.394,17.363,45.565,17.363,62.959,0
				l32.267-32.267l64.534-64.534l32.267-32.267c17.363-17.394,17.363-45.565,0-62.959l-81.454-81.465l33.842-33.842l57.267,57.257
				c4.014,4.014,10.539,4.014,14.554,0l96.8-96.749c4.014-4.024,4.014-10.529,0-14.553L485.448,3.011z M157.119,445.905
				l-17.713,17.713l-17.713-17.703l17.672-17.754L157.119,445.905z M139.406,492.735l17.703,17.703l-17.754,17.724L121.641,510.5
				L139.406,492.735z M107.129,495.895l-17.754-17.713l17.724-17.713l17.703,17.703L107.129,495.895z M107.129,395.925
				l17.724,17.713l-17.713,17.724l-17.724-17.724L107.129,395.925z M74.821,428.16l17.724,17.724l-17.724,17.744l-17.713-17.724
				L74.821,428.16z M24.841,478.171l17.713-17.713l17.713,17.724l-17.713,17.703L24.841,478.171z M57.108,510.438l17.713-17.703
				L92.534,510.5l-17.703,17.703L57.108,510.438z M89.385,542.705l17.703-17.703l17.713,17.713l-17.703,17.713L89.385,542.705z
				 M139.365,592.695l-17.713-17.713l17.703-17.713l17.724,17.713L139.365,592.695z M171.632,560.429l-17.724-17.713l17.713-17.724
				l17.754,17.724L171.632,560.429z M221.612,510.5l-17.713,17.713l-17.724-17.724l17.724-17.713L221.612,510.5z M189.376,478.171
				l-17.754,17.713l-17.703-17.713l17.713-17.713L189.376,478.171z M267.67,138.521c9.356-9.325,24.496-9.325,33.852,0
				l81.465,81.454l-17.744,17.775l-41.17-41.17l0,0l-32.246-32.246c-4.014-4.014-10.539-4.014-14.553,0l-16.88,16.941l-8.831-8.831
				l0,0l0,0l-8.831-8.831L267.67,138.521z M253.086,267.598l41.17,41.17l-41.911,41.911l-66.16-66.119l16.921-16.962l64.492-64.492
				l16.921-16.921l17.724,17.713l-49.157,49.188c-4.014,4.014-4.014,10.539,0,14.554V267.598z M308.768,323.322l41.17,41.17
				c4.014,4.014,10.539,4.014,14.554,0l49.188-49.198l17.713,17.724l-16.962,16.921l-64.492,64.492l-16.962,16.921l-66.119-66.119
				L308.768,323.322z M357.143,342.62l-82.226-82.226l41.921-41.911l82.247,82.247L357.143,342.62z M219.224,186.967
				c4.889-4.868,12.804-4.868,17.693,0l0,0c4.889,4.889,4.889,12.824,0,17.713s-12.824,4.889-17.713,0
				c-4.889-4.889-4.889-12.824,0-17.713l0,0H219.224z M186.967,219.224c4.889-4.889,12.824-4.889,17.713,0
				c4.889,4.889,4.889,12.824,0,17.713c-4.889,4.889-12.824,4.889-17.713,0l0,0l0,0
				C182.079,232.038,182.079,224.113,186.967,219.224z M138.593,301.471c-9.325-9.356-9.325-24.496,0-33.852l24.99-24.99
				l8.831,8.831l0,0l0,0l8.831,8.831l-16.921,16.921c-4.014,4.014-4.014,10.539,0,14.553l73.426,73.467l-17.724,17.724
				L138.593,301.471z M349.938,478.964c-9.356,9.325-24.496,9.325-33.852,0l-81.465-81.454l17.682-17.724l73.395,73.395
				c4.024,4.014,10.539,4.014,14.553,0l16.89-16.921l8.831,8.831l0,0l0,0l8.831,8.831L349.938,478.964z M398.312,430.589
				c-4.889,4.868-12.804,4.868-17.693,0l0,0c-4.889-4.889-4.889-12.824,0-17.713c4.889-4.889,12.824-4.889,17.713,0
				c4.889,4.889,4.889,12.824,0,17.713l0,0H398.312z M430.569,398.312c-4.889,4.889-12.814,4.879-17.703-0.01
				c-4.889-4.889-4.879-12.814,0.01-17.703c4.889-4.879,12.804-4.879,17.682,0l0,0C435.448,385.488,435.448,393.413,430.569,398.312
				z M478.943,316.065c9.325,9.356,9.325,24.496,0,33.852l-24.99,24.99l-8.831-8.831l0,0l0,0l-8.831-8.831l16.921-16.921
				c4.014-4.014,4.014-10.539,0-14.554l-32.257-32.318l0,0l-41.118-41.17l17.713-17.713L478.943,316.065z M560.408,107.129
				l-17.713,17.703l-17.713-17.713l17.703-17.703L560.408,107.129z M510.5,121.641l17.713,17.713l-17.724,17.713l-17.703-17.703
				L510.5,121.641z M478.223,124.801l-17.703-17.703l17.713-17.724l17.713,17.713L478.223,124.801z M528.203,74.831L510.5,92.534
				l-17.765-17.713l17.703-17.713L528.203,74.831z M478.172,24.841l17.713,17.713l-17.703,17.713l-17.724-17.713L478.172,24.841z
				 M445.905,57.108l17.724,17.713l-17.713,17.724l-17.754-17.724L445.905,57.108z M395.925,107.088l17.713-17.713l17.724,17.724
				l-17.724,17.713L395.925,107.088z M428.161,139.365l17.724-17.713l17.703,17.713l-17.713,17.713L428.161,139.365z
				 M460.427,171.632l17.713-17.713l17.713,17.703l-17.682,17.754L460.427,171.632z M510.5,221.612l-17.724-17.713l17.713-17.724
				l17.724,17.724L510.5,221.612z M542.715,189.376l-17.724-17.724l17.724-17.713l17.713,17.724L542.715,189.376z M574.982,157.109
				l-17.713-17.754l17.713-17.703l17.713,17.713L574.982,157.109z"/>
		</g>
	</g>
</g>
<g>
</g>
<g>
</g>
<g>
</g>
<g>
</g>
<g>
</g>
<g>
</g>
<g>
</g>
<g>
</g>
<g>
</g>
<g>
</g>
<g>
</g>
<g>
</g>
<g>
</g>
<g>
</g>
<g>
</g>
</svg>
