<?xml version="1.0" encoding="iso-8859-1"?>
<!-- Generator: Adobe Illustrator 21.0.0, SVG Export Plug-In . SVG Version: 6.00 Build 0)  -->
<svg version="1.1" id="Capa_1" xmlns="http://www.w3.org/2000/svg" xmlns:xlink="http://www.w3.org/1999/xlink" x="0px" y="0px"
	 viewBox="0 0 617.547 617.547" style="enable-background:new 0 0 617.547 617.547;" xml:space="preserve">
<g>
	<g>
		<g id="filled_outline_19_">
			<path style="fill:#2A90DE;" d="M347.761,292.799c-1.287-5.62-4.086-10.776-8.11-14.903c-9.243-8.625-22.407-11.61-34.459-7.812
				c-8.388,2.295-16.036,6.772-22.149,12.958c-10.663,10.138-15.789,24.795-13.751,39.369c1.009,6.505,4.014,12.526,8.604,17.24
				c9.243,8.625,22.407,11.61,34.459,7.812c8.388-2.295,16.036-6.772,22.149-12.958
				C345.836,323.831,350.859,308.063,347.761,292.799z"/>
			<path style="fill:#E36295;" d="M465.115,77.759c68.527,70.277,50.845,202.329-39.471,294.951l0,0
				c-50.176,51.462-121.718,61.528-159.78,22.489l0,0c-16.89-17.322-14.739-48.076,3.438-72.788
				c-2.038-14.574,3.077-29.231,13.74-39.369c6.114-6.186,13.761-10.663,22.149-12.958c-19.947-11.785-49.96-5.362-71.924,17.168
				c-50.186,51.462-60.005,124.816-21.933,163.856l0,0c68.517,70.267,197.275,52.193,287.622-40.439
				c74.034-75.969,111.385-171.74,108.019-256.045c-9.963-34.202-28.325-65.357-53.418-90.635
				c-72.901-72.86-189.906-82.103-299.963-34.583C333.969,9.15,412.727,24.053,465.115,77.759z"/>
			<path style="fill:#2A90DE;" d="M118.59,206.878L118.59,206.878c90.326-92.632,219.106-110.747,287.622-40.48
				c38.082,39.039,28.253,112.404-21.933,163.856c-21.964,22.53-51.977,28.953-71.924,17.168
				c-12.052,3.808-25.216,0.834-34.459-7.771c-4.59-4.714-7.596-10.735-8.604-17.24c-18.176,24.702-20.328,55.466-3.438,72.788l0,0
				c38.082,39.039,109.604,28.973,159.78-22.489l0,0c90.316-92.632,107.999-224.674,39.471-294.951
				C412.727,24.053,333.969,9.15,253.596,29.406c-49.682,21.748-94.804,52.687-132.999,91.191
				C18.598,222.595-20.832,357.961,10.57,462.923C7.205,378.618,44.556,282.847,118.59,206.878z"/>
			<path style="fill:#E36295;" d="M152.431,539.787L152.431,539.787c-68.527-70.277-50.845-202.329,39.472-294.951l0,0
				c50.176-51.462,121.718-61.528,159.78-22.489c9.541,10.539,13.617,24.918,11.034,38.895
				c-1.811,11.754-7.009,22.715-14.965,31.557c3.098,15.253-1.914,31.032-13.246,41.705c-6.114,6.186-13.761,10.663-22.149,12.958
				c19.947,11.785,49.96,5.362,71.924-17.168c50.186-51.462,60.005-124.816,21.933-163.856
				c-68.517-70.267-197.275-52.142-287.622,40.439l0,0C44.556,282.847,7.205,378.618,10.57,462.923
				c9.963,34.202,28.325,65.357,53.418,90.635c72.86,72.86,189.906,82.103,299.963,34.583
				C283.577,608.397,204.82,593.493,152.431,539.787z"/>
			<path style="fill:#2A90DE;" d="M606.976,154.623c3.376,84.305-33.965,180.118-108.019,256.004
				c-90.326,92.632-219.106,110.747-287.622,40.48l0,0c-38.082-39.039-28.253-112.404,21.933-163.856
				c21.964-22.53,51.977-28.953,71.924-17.168c12.052-3.798,25.216-0.813,34.459,7.812c4.024,4.127,6.824,9.284,8.11,14.903
				c7.956-8.841,13.154-19.803,14.965-31.557c2.594-13.987-1.482-28.387-11.034-38.926c-38.082-39.039-109.604-28.973-159.78,22.489
				l0,0c-90.316,92.632-107.999,224.674-39.472,294.951l0,0c52.368,53.706,131.146,68.609,211.52,48.374
				c49.682-21.748,94.804-52.687,132.999-91.191C598.948,394.952,638.378,259.586,606.976,154.623z"/>
			<rect x="20.585" style="fill:#FABC5F;" width="20.585" height="61.755"/>
			<rect y="20.585" style="fill:#FABC5F;" width="61.755" height="20.585"/>
			<rect x="20.585" y="174.972" style="fill:#FABC5F;" width="20.585" height="20.585"/>
			<rect x="545.5" y="555.792" style="fill:#FABC5F;" width="20.585" height="61.755"/>
			<rect x="524.915" y="576.377" style="fill:#FABC5F;" width="61.755" height="20.585"/>
			<rect x="473.452" y="20.585" style="fill:#FABC5F;" width="20.585" height="20.585"/>
			<rect x="596.962" y="421.99" style="fill:#FABC5F;" width="20.585" height="20.585"/>
			<rect x="133.802" y="596.962" style="fill:#FABC5F;" width="20.585" height="20.585"/>
			<rect y="247.019" style="fill:#FABC5F;" width="20.585" height="20.585"/>
			<rect x="154.387" style="fill:#FABC5F;" width="20.585" height="20.585"/>
			<path d="M88.988,138.948C155.889,70.328,240.452,30.98,320.99,30.98c51.071-1.595,100.547,17.929,136.766,53.974
				c64.544,66.191,46.831,192.057-39.482,280.572c-23.951,25.937-57.113,41.437-92.375,43.167
				c-19.659,0.648-38.71-6.834-52.687-20.667c-9.747-12.423-11.507-29.344-4.518-43.506c0.679,0.782,1.184,1.678,1.925,2.419
				c8.234,8.059,19.36,12.474,30.877,12.269c2.975-0.051,5.928-0.36,8.852-0.916c24.023,11.775,57.36,3.767,81.31-20.791
				c53.974-55.342,63.813-135.294,21.933-178.234c-30.527-30.548-72.284-47.15-115.45-45.915c-65.244,0-133.359,31.485-186.9,86.395
				C-12.886,327.001-36.497,509.867,58.585,607.367l6.896,7.071l14.739-14.409l-6.896-7.071
				c-87.352-89.534-63.741-259.483,52.636-378.875c49.692-50.968,112.445-80.188,172.172-80.188
				c37.598-1.184,74.034,13.185,100.712,39.708c34.14,34.994,24.311,102.07-21.933,149.477
				c-9.572,10.107-22.149,16.869-35.869,19.278c0.237-0.226,0.504-0.371,0.741-0.607c9.747-9.521,15.861-22.16,17.271-35.715
				c0.196-2.686,0.165-5.393-0.072-8.08c19.453-28.932,19.556-62.784,0.093-82.823c-17.816-17.868-42.209-27.594-67.426-26.894
				c-40.861,1.534-79.416,19.319-107.103,49.404c-94.052,96.43-111.766,235.193-39.482,309.319
				c40.058,40.058,94.855,61.837,151.484,60.19c86.065,0,176.001-41.612,246.741-114.164l9.088-9.315l-14.739-14.409l-9.078,9.315
				c-66.901,68.599-151.464,107.947-232.012,107.947c-51.071,1.585-100.537-17.929-136.756-53.974
				c-64.544-66.191-46.831-192.057,39.482-280.572c23.951-25.937,57.113-41.437,92.375-43.167
				c19.659-0.638,38.72,6.855,52.687,20.708c9.84,12.413,11.62,29.395,4.57,43.578c-0.69-0.813-1.215-1.729-1.976-2.491
				c-10.539-10.035-25.34-14.265-39.595-11.322c-24.023-11.877-57.442-3.87-81.434,20.729
				c-53.974,55.342-63.813,135.294-21.933,178.234c30.527,30.548,72.284,47.15,115.45,45.915c65.244,0,133.359-31.485,186.9-86.395
				c124.117-127.225,147.727-310.091,52.646-407.591l-6.896-7.071l-14.739,14.389l6.896,7.071
				c87.352,89.544,63.741,259.545-52.636,378.885c-49.692,50.968-112.445,80.188-172.172,80.188
				c-37.598,1.184-74.034-13.185-100.712-39.708c-34.14-34.994-24.311-102.07,21.933-149.477
				c9.572-10.097,22.139-16.859,35.838-19.267c-0.226,0.216-0.484,0.371-0.71,0.597c-9.747,9.521-15.861,22.16-17.271,35.715
				c-0.206,2.8-0.185,5.609,0.072,8.399c-18.938,28.376-19.556,62.588-0.093,82.504c17.816,17.868,42.209,27.594,67.426,26.894
				c40.861-1.534,79.417-19.319,107.103-49.404c94.052-96.43,111.766-235.193,39.482-309.319
				c-40.068-40.048-94.865-61.816-151.494-60.18c-86.055,0-176.001,41.612-246.73,114.164l-9.088,9.263l14.739,14.409
				L88.988,138.948z M290.319,290.319c6.742-7.05,15.984-11.167,25.731-11.486c6.083-0.165,11.97,2.12,16.344,6.34
				c4.817,5.095,7.081,12.083,6.175,19.031c-0.978,8.759-4.982,16.9-11.322,23.024c-13.01,12.999-31.907,15.325-42.055,5.146
				c-4.817-5.095-7.081-12.083-6.175-19.031C279.985,304.584,283.989,296.443,290.319,290.319z"/>
			<polygon points="20.585,61.755 41.17,61.755 41.17,41.17 61.755,41.17 61.755,20.585 41.17,20.585 41.17,0 20.585,0 
				20.585,20.585 0,20.585 0,41.17 20.585,41.17 			"/>
			<rect x="20.585" y="174.972" width="20.585" height="20.585"/>
			<polygon points="566.084,617.547 566.084,596.962 586.669,596.962 586.669,576.377 566.084,576.377 566.084,555.792 
				545.5,555.792 545.5,576.377 524.915,576.377 524.915,596.962 545.5,596.962 545.5,617.547 			"/>
			<rect x="473.452" y="20.585" width="20.585" height="20.585"/>
			<rect x="596.962" y="421.99" width="20.585" height="20.585"/>
			<rect x="133.802" y="596.962" width="20.585" height="20.585"/>
			<rect y="247.019" width="20.585" height="20.585"/>
			<rect x="154.387" width="20.585" height="20.585"/>
		</g>
	</g>
</g>
<g>
</g>
<g>
</g>
<g>
</g>
<g>
</g>
<g>
</g>
<g>
</g>
<g>
</g>
<g>
</g>
<g>
</g>
<g>
</g>
<g>
</g>
<g>
</g>
<g>
</g>
<g>
</g>
<g>
</g>
</svg>
