<?xml version="1.0" encoding="iso-8859-1"?>
<!-- Generator: Adobe Illustrator 21.0.0, SVG Export Plug-In . SVG Version: 6.00 Build 0)  -->
<svg version="1.1" id="Capa_1" xmlns="http://www.w3.org/2000/svg" xmlns:xlink="http://www.w3.org/1999/xlink" x="0px" y="0px"
	 viewBox="0 0 617.547 617.547" style="enable-background:new 0 0 617.547 617.547;" xml:space="preserve">
<g>
	<g>
		<g id="filled_outline_22_">
			<path style="fill:#C3C9D1;" d="M308.773,10.292L308.773,10.292c142.108,0,257.311,115.203,257.311,257.311v30.877l0,0H51.462l0,0
				v-30.877C51.462,125.496,166.666,10.292,308.773,10.292z"/>
			<path style="fill:#B7BDC4;" d="M482.036,77.379C378.227,202.061,190.503,249.571,51.462,267.459v31.021h514.622v-30.877
				C566.167,195.176,535.639,126.082,482.036,77.379z"/>
			<path style="fill:#FABC5F;" d="M524.915,51.462L524.915,51.462c14.42-4.807,25.391-16.653,29.076-31.402l1.801-7.194l1.801,7.205
				c3.685,14.749,14.656,26.585,29.076,31.392l0,0c-14.42,4.807-25.391,16.653-29.076,31.402l-1.801,7.205l-1.801-7.205
				C550.306,68.115,539.334,56.269,524.915,51.462z"/>
			<path style="fill:#FABC5F;" d="M20.585,51.462L20.585,51.462c14.42-4.807,25.391-16.653,29.076-31.402l1.801-7.194l1.801,7.205
				C56.948,34.819,67.92,46.656,82.34,51.462l0,0c-14.42,4.807-25.391,16.653-29.076,31.402l-1.801,7.194l-1.801-7.205
				C45.976,68.105,35.005,56.269,20.585,51.462z"/>
			<rect x="20.585" y="144.094" style="fill:#FABC5F;" width="20.585" height="20.585"/>
			<rect x="463.16" y="10.292" style="fill:#FABC5F;" width="20.585" height="20.585"/>
			<rect x="596.962" y="133.802" style="fill:#FABC5F;" width="20.585" height="20.585"/>
			<rect x="51.462" y="339.651" style="fill:#C3C9D1;" width="514.622" height="185.264"/>
			<rect x="51.462" y="339.651" style="fill:#B7BDC4;" width="514.622" height="30.877"/>
			<rect x="10.292" y="298.481" style="fill:#C3C9D1;" width="596.962" height="41.17"/>
			<rect x="10.292" y="524.915" style="fill:#C3C9D1;" width="596.962" height="82.34"/>
			<rect x="185.264" y="555.792" style="fill:#808B96;" width="20.585" height="20.585"/>
			<rect x="411.698" y="555.792" style="fill:#808B96;" width="20.585" height="20.585"/>
			<rect x="195.556" y="10.292" style="fill:#D0D7DF;" width="61.755" height="288.188"/>
			<rect x="123.509" y="257.311" style="fill:#D0D7DF;" width="72.047" height="41.17"/>
			<rect x="360.236" y="10.292" style="fill:#D0D7DF;" width="61.755" height="288.188"/>
			<rect x="421.99" y="257.311" style="fill:#D0D7DF;" width="72.047" height="41.17"/>
			<rect x="257.311" y="51.462" style="fill:#2683C9;" width="102.924" height="185.264"/>
			<circle style="fill:#D0D7DF;" cx="308.773" cy="144.094" r="51.462"/>
			<circle style="fill:#A8B2BF;" cx="308.773" cy="144.094" r="20.585"/>
			<rect x="51.462" y="483.745" style="fill:#B7BDC4;" width="514.622" height="41.17"/>
			<rect x="236.726" y="442.575" style="fill:#D0D7DF;" width="144.094" height="164.679"/>
			<rect x="277.896" y="483.745" style="fill:#634129;" width="61.755" height="30.877"/>
			<rect x="20.585" y="144.094" width="20.585" height="20.585"/>
			<rect x="463.16" y="10.292" width="20.585" height="20.585"/>
			<rect x="596.962" y="133.802" width="20.585" height="20.585"/>
			<path d="M607.254,288.188h-30.877v-20.585c0.34-99.868-55.312-191.501-144.094-237.241v-20.07C432.283,4.611,427.672,0,421.99,0
				h-61.755c-2.975,0.021-5.795,1.348-7.699,3.633c-28.973-4.735-58.513-4.735-87.486,0c-1.914-2.295-4.755-3.623-7.74-3.633
				h-61.755c-5.681,0-10.292,4.611-10.292,10.292v20.07C96.481,76.102,40.83,167.736,41.17,267.604v20.585H10.292
				C4.611,288.188,0,292.799,0,298.481v41.17c0,5.681,4.611,10.292,10.292,10.292H41.17v164.679H10.292
				C4.611,514.622,0,519.233,0,524.915v82.34c0,5.681,4.611,10.292,10.292,10.292h596.962c5.681,0,10.292-4.611,10.292-10.292
				v-82.34c0-5.681-4.611-10.292-10.292-10.292h-30.877V349.943h30.877c5.681,0,10.292-4.611,10.292-10.292v-41.17
				C617.547,292.799,612.936,288.188,607.254,288.188z M432.283,53.655c76.689,43.877,123.859,125.599,123.509,213.949v20.585
				H504.33v-30.877c0-5.681-4.611-10.292-10.292-10.292h-61.755V53.655z M432.283,267.604h51.462v20.585h-51.462V267.604z
				 M370.528,236.726V20.585h41.17v267.604h-41.17V236.726z M267.604,24.002c27.254-4.539,55.085-4.539,82.34,0V41.17h-82.34V24.002
				z M267.604,61.755h82.34v36.374c-10.766-9.716-24.62-15.305-39.111-15.789c-15.922-0.69-31.474,4.982-43.228,15.747V61.755z
				 M349.943,145.494c-0.772,22.726-19.823,40.521-42.549,39.749c-22.726-0.772-40.521-19.823-39.749-42.549
				c0.762-22.17,18.948-39.76,41.129-39.77h1.441C332.93,103.738,350.694,122.779,349.943,145.494z M267.604,190.06
				c10.766,9.716,24.62,15.305,39.111,15.789c0.7,0,1.4,0,2.059,0c15.212-0.01,29.879-5.661,41.17-15.85v36.435h-82.34V190.06z
				 M267.604,247.019h82.34v41.17h-82.34V247.019z M205.849,257.311V20.585h41.17v267.604h-41.17V257.311z M61.755,267.604
				c-0.35-88.35,46.82-170.072,123.509-213.949v193.364h-61.755c-5.681,0-10.292,4.611-10.292,10.292v30.877H61.755V267.604z
				 M185.264,267.604v20.585h-51.462v-20.585H185.264z M226.434,596.962H20.585v-61.755h205.849V596.962z M329.358,596.962h-41.17
				V494.037h41.17V596.962z M370.528,524.915v72.047h-20.585V483.745c0-5.681-4.611-10.292-10.292-10.292h-61.755
				c-5.681,0-10.292,4.611-10.292,10.292v113.217h-20.585V452.867h123.509V524.915z M380.82,432.283H236.726
				c-5.681,0-10.292,4.611-10.292,10.292v72.047H61.755V391.113h494.037v123.509H391.113v-72.047
				C391.113,436.894,386.502,432.283,380.82,432.283z M61.755,370.528v-20.585h494.037v20.585H61.755z M596.962,535.207v61.755
				H391.113v-61.755H596.962z M596.962,329.358H20.585v-20.585h576.377V329.358z"/>
			<rect x="185.264" y="555.792" width="20.585" height="20.585"/>
			<rect x="411.698" y="555.792" width="20.585" height="20.585"/>
			<circle cx="308.773" cy="144.094" r="20.585"/>
			<path d="M0,41.17v20.585h18.434c10.55,3.87,18.506,12.701,21.244,23.601l1.492,5.98v11.589h20.585V91.335l1.492-5.98
				c2.738-10.9,10.694-19.731,21.244-23.601h18.434V41.17H84.491c-10.55-3.87-18.506-12.701-21.244-23.601l-1.492-5.98V0H41.17
				v11.589l-1.492,5.98C36.94,28.469,28.984,37.3,18.434,41.17H0z M51.462,40.624c2.82,4.045,6.175,7.688,9.973,10.838
				c-3.798,3.149-7.153,6.793-9.973,10.838c-2.82-4.045-6.175-7.688-9.973-10.838C45.287,48.313,48.642,44.669,51.462,40.624z"/>
			<path d="M504.33,41.17v20.585h18.434c10.55,3.87,18.506,12.701,21.244,23.601l1.492,5.98v11.589h20.585V91.335l1.492-5.98
				c2.738-10.9,10.694-19.731,21.244-23.601h18.434V41.17H588.82c-10.55-3.87-18.506-12.701-21.244-23.601l-1.492-5.98V0H545.5
				v11.589l-1.492,5.98c-2.738,10.9-10.694,19.731-21.244,23.601H504.33z M555.792,40.624c2.82,4.045,6.175,7.688,9.973,10.838
				c-3.798,3.149-7.153,6.793-9.973,10.838c-2.82-4.045-6.175-7.688-9.973-10.838C549.616,48.313,552.972,44.669,555.792,40.624z"/>
		</g>
	</g>
</g>
<g>
</g>
<g>
</g>
<g>
</g>
<g>
</g>
<g>
</g>
<g>
</g>
<g>
</g>
<g>
</g>
<g>
</g>
<g>
</g>
<g>
</g>
<g>
</g>
<g>
</g>
<g>
</g>
<g>
</g>
</svg>
