<?xml version="1.0" encoding="iso-8859-1"?>
<!-- Generator: Adobe Illustrator 21.0.0, SVG Export Plug-In . SVG Version: 6.00 Build 0)  -->
<svg version="1.1" id="Capa_1" xmlns="http://www.w3.org/2000/svg" xmlns:xlink="http://www.w3.org/1999/xlink" x="0px" y="0px"
	 viewBox="0 0 617.548 617.548" style="enable-background:new 0 0 617.548 617.548;" xml:space="preserve">
<g>
	<g>
		<g id="filled_outline_23_">
			<path style="fill:#D0D7DF;" d="M308.773,452.868c-79.581,0-144.094-64.513-144.094-144.094S229.192,164.68,308.773,164.68
				s144.094,64.513,144.094,144.094C452.785,388.324,388.324,452.786,308.773,452.868z M308.773,185.265
				c-68.208,0-123.509,55.301-123.509,123.509s55.301,123.509,123.509,123.509s123.509-55.301,123.509-123.509
				C432.211,240.597,376.95,185.337,308.773,185.265z"/>
			<path style="fill:#D0D7DF;" d="M308.773,535.208c-125.053,0-226.434-101.381-226.434-226.434S183.72,82.34,308.773,82.34
				s226.434,101.381,226.434,226.434C535.063,433.776,433.775,535.064,308.773,535.208z M308.773,102.925
				c-113.69,0-205.849,92.159-205.849,205.849s92.159,205.849,205.849,205.849s205.849-92.159,205.849-205.849
				C514.488,195.145,422.402,103.059,308.773,102.925z"/>
			<path style="fill:#D0D7DF;" d="M308.773,617.547C138.238,617.547,0,479.309,0,308.774S138.238,0.001,308.773,0.001
				s308.773,138.238,308.773,308.773C617.351,479.227,479.226,617.352,308.773,617.547z M308.773,20.586
				c-159.162,0-288.188,129.026-288.188,288.188s129.026,288.188,288.188,288.188s288.188-129.026,288.188-288.188
				C596.776,149.694,467.864,20.771,308.773,20.586z"/>
			<circle style="fill:#2A90DE;" cx="308.773" cy="308.774" r="61.755"/>
			<circle style="fill:#69CCD7;" cx="113.217" cy="82.34" r="30.877"/>
			<circle style="fill:#69CCD7;" cx="133.802" cy="432.283" r="30.877"/>
			<circle style="fill:#69CCD7;" cx="432.283" cy="360.236" r="30.877"/>
			<path d="M308.773,236.727c-39.791,0-72.047,32.257-72.047,72.047s32.257,72.047,72.047,72.047s72.047-32.257,72.047-72.047
				C380.779,269.004,348.543,236.778,308.773,236.727z M308.773,360.236c-28.417,0-51.462-23.045-51.462-51.462
				s23.045-51.462,51.462-51.462c28.417,0,51.462,23.045,51.462,51.462C360.205,337.181,337.18,360.205,308.773,360.236z"/>
			<path d="M308.773,0.001c-60.231-0.072-119.145,17.6-169.372,50.834c-17.281-14.574-43.115-12.382-57.699,4.899
				c-11.394,13.504-12.835,32.792-3.571,47.85c-113.289,127.41-101.833,322.545,25.577,435.834s322.545,101.833,435.833-25.577
				s101.833-322.545-25.577-435.834C457.437,27.749,384.412-0.01,308.773,0.001z M113.217,61.755
				c11.373,0,20.585,9.212,20.585,20.585s-9.212,20.585-20.585,20.585S92.632,93.713,92.632,82.34S101.844,61.755,113.217,61.755z
				 M308.773,596.962C149.642,597.004,20.616,468.029,20.575,308.908C20.554,238.559,46.285,170.629,92.9,117.931
				c6.165,3.613,13.174,5.537,20.317,5.579c22.736,0,41.17-18.434,41.17-41.17c-0.021-5.084-0.998-10.128-2.882-14.852
				c133.297-86.899,311.799-49.291,398.698,84.017s49.291,311.799-84.017,398.698C419.366,580.731,364.672,596.983,308.773,596.962z
				"/>
			<path d="M308.773,82.34C183.679,82.381,82.309,183.813,82.34,308.897c0.01,33.049,7.256,65.697,21.223,95.658
				c-15.367,16.684-14.307,42.662,2.378,58.029c11.939,11.003,29.241,13.936,44.144,7.483
				c89.122,87.671,232.434,86.498,320.116-2.614s86.498-232.434-2.614-320.116C425.222,105.673,368.192,82.33,308.773,82.34z
				 M133.802,452.868c-11.373,0-20.585-9.212-20.585-20.585s9.212-20.585,20.585-20.585c11.373,0,20.585,9.212,20.585,20.585
				S145.175,452.868,133.802,452.868z M308.773,514.623c-53.13,0.113-104.211-20.513-142.375-57.483
				c5.527-7.112,8.543-15.85,8.574-24.856c0-22.736-18.434-41.17-41.17-41.17c-4.323,0.062-8.615,0.803-12.701,2.213
				c-46.697-103.655-0.525-225.538,103.13-272.235s225.538-0.525,272.235,103.13s0.525,225.538-103.13,272.235
				C366.751,508.437,337.932,514.623,308.773,514.623z"/>
			<path d="M452.867,308.774c0.165-79.746-64.348-144.526-144.094-144.691c-79.746-0.165-144.526,64.348-144.691,144.094
				c-0.165,79.746,64.348,144.526,144.094,144.691c43.599,0.093,84.902-19.525,112.383-53.366c3.798,1.204,7.74,1.853,11.723,1.904
				c22.664,0.062,41.087-18.249,41.159-40.912c0.041-15.109-8.213-29.014-21.501-36.209
				C452.528,319.138,452.837,313.961,452.867,308.774z M391.113,360.236c0.01,10.632,4.158,20.842,11.558,28.479
				c-44.268,51.74-122.099,57.792-173.839,13.524S171.04,280.14,215.308,228.4s122.099-57.792,173.839-13.524
				c27.429,23.477,43.197,57.792,43.136,93.898c0,3.448-0.175,6.896-0.453,10.292C409.269,319.313,391.113,337.675,391.113,360.236z
				 M452.867,360.236c0,11.373-9.212,20.585-20.585,20.585c-11.373,0-20.585-9.212-20.585-20.585
				c0-11.373,9.212-20.585,20.585-20.585C443.656,339.651,452.867,348.873,452.867,360.236z"/>
		</g>
	</g>
</g>
<g>
</g>
<g>
</g>
<g>
</g>
<g>
</g>
<g>
</g>
<g>
</g>
<g>
</g>
<g>
</g>
<g>
</g>
<g>
</g>
<g>
</g>
<g>
</g>
<g>
</g>
<g>
</g>
<g>
</g>
</svg>
