<?xml version="1.0" encoding="iso-8859-1"?>
<!-- Generator: Adobe Illustrator 21.0.0, SVG Export Plug-In . SVG Version: 6.00 Build 0)  -->
<svg version="1.1" id="Capa_1" xmlns="http://www.w3.org/2000/svg" xmlns:xlink="http://www.w3.org/1999/xlink" x="0px" y="0px"
	 viewBox="0 0 618.229 618.229" style="enable-background:new 0 0 618.229 618.229;" xml:space="preserve">
<g>
	<g>
		<g id="filled_outline_33_">
			<rect x="113.923" y="442.916" style="fill:#B7BDC4;" width="391.113" height="102.924"/>
			<path style="fill:#B7BDC4;" d="M83.045,278.237v41.17h452.867v-41.17C389.647,225.046,229.311,225.046,83.045,278.237z"/>
			<polygon style="fill:#D0D7DF;" points="474.158,442.916 144.8,442.916 103.63,319.407 515.328,319.407 			"/>
			<polygon style="fill:#D0D7DF;" points="566.79,319.407 62.46,319.407 62.46,278.237 566.79,276.961 			"/>
			<path style="fill:#D0D7DF;" d="M566.79,319.407L566.79,319.407c11.764-0.226,21.861-8.419,24.496-19.885l0,0
				c22.232-88.289,22.232-180.715,0-269.003l0,0c-2.635-11.466-12.732-19.659-24.496-19.885l0,0V319.407z"/>
			<rect x="21.291" y="247.36" style="fill:#C3C9D1;" width="41.17" height="72.047"/>
			<polygon style="fill:#C3C9D1;" points="72.537,178.329 28.876,134.658 21.589,185.605 			"/>
			<rect x="0.706" y="309.115" style="fill:#C3C9D1;" width="61.755" height="20.585"/>
			<circle style="fill:#808B96;" cx="165.385" cy="360.577" r="20.585"/>
			<path style="fill:#B7BDC4;" d="M566.79,144.436v20.585h41.17c0-6.865-0.381-13.72-0.638-20.585
				C607.322,144.436,566.79,144.436,566.79,144.436z"/>
			<path style="fill:#B7BDC4;" d="M599.922,72.388H566.79v20.585h36.322C602.206,86.088,601.085,79.233,599.922,72.388z"/>
			<path style="fill:#B7BDC4;" d="M566.79,247.36h34.727c1.029-6.855,2.058-13.699,2.82-20.585H566.79V247.36z"/>
			
				<rect x="21.28" y="381.171" transform="matrix(0.9487 -0.3162 0.3162 0.9487 -124.3583 37.1047)" style="fill:#B7BDC4;" width="61.755" height="41.17"/>
			
				<rect x="12.48" y="370.495" transform="matrix(0.9488 -0.3159 0.3159 0.9488 -128.8797 28.2741)" style="fill:#B7BDC4;" width="20.585" height="82.35"/>
			<polygon style="fill:#C3C9D1;" points="508.463,339.992 515.328,319.407 103.63,319.407 110.495,339.992 			"/>
			<path style="fill:#808B96;" d="M345.503,381.162c-19.895,0-36.024-16.128-36.024-36.024c0-19.895,16.128-36.024,36.024-36.024
				s36.024,16.128,36.024,36.024C381.526,365.033,365.398,381.162,345.503,381.162z M345.503,329.699
				c-8.522,0-15.439,6.917-15.439,15.439c0,8.522,6.917,15.439,15.439,15.439c8.522,0,15.439-6.917,15.439-15.439
				C360.941,336.616,354.025,329.699,345.503,329.699z"/>
			<path d="M93.338,494.379c-34.109,0-61.755,27.646-61.755,61.755s27.646,61.755,61.755,61.755s61.755-27.646,61.755-61.755
				C155.062,522.034,127.426,494.409,93.338,494.379z M83.045,595.841c-14.399-3.767-25.649-15.017-29.416-29.416h29.416V595.841z
				 M83.045,545.841H53.629c3.767-14.399,15.017-25.649,29.416-29.416V545.841z M103.63,595.841v-29.416h29.416
				C129.279,580.825,118.029,592.074,103.63,595.841z M103.63,545.841v-29.416c14.399,3.767,25.649,15.017,29.416,29.416H103.63z"/>
			<path d="M175.677,556.133c0,34.109,27.646,61.755,61.755,61.755s61.755-27.646,61.755-61.755s-27.646-61.755-61.755-61.755
				C203.343,494.409,175.708,522.034,175.677,556.133z M227.14,595.841c-14.399-3.767-25.649-15.017-29.416-29.416h29.416V595.841z
				 M227.14,545.841h-29.416c3.767-14.399,15.017-25.649,29.416-29.416C227.139,516.425,227.139,545.841,227.14,545.841z
				 M247.724,516.425c14.399,3.767,25.649,15.017,29.416,29.416h-29.416V516.425z M247.724,566.426h29.416
				c-3.767,14.399-15.017,25.649-29.416,29.416V566.426z"/>
			<path d="M319.771,556.133c0,34.109,27.646,61.755,61.755,61.755s61.755-27.646,61.755-61.755s-27.646-61.755-61.755-61.755
				C347.438,494.409,319.802,522.034,319.771,556.133z M371.234,595.841c-14.399-3.767-25.649-15.017-29.416-29.416h29.416V595.841z
				 M371.234,545.841h-29.416c3.767-14.399,15.017-25.649,29.416-29.416V545.841z M391.819,516.425
				c14.399,3.767,25.649,15.017,29.416,29.416h-29.416V516.425z M391.819,566.426h29.416c-3.767,14.399-15.017,25.649-29.416,29.416
				V566.426z"/>
			<path d="M525.62,494.379c-34.109,0-61.755,27.646-61.755,61.755s27.646,61.755,61.755,61.755s61.755-27.646,61.755-61.755
				C587.344,522.034,559.709,494.409,525.62,494.379z M515.328,595.841c-14.399-3.767-25.649-15.017-29.416-29.416h29.416V595.841z
				 M515.328,545.841h-29.416c3.767-14.399,15.017-25.649,29.416-29.416V545.841z M535.913,595.841v-29.416h29.416
				C561.562,580.825,550.312,592.074,535.913,595.841z M535.913,545.841v-29.416c14.399,3.767,25.649,15.017,29.416,29.416H535.913z
				"/>
			<path d="M84.713,369.202c-1.801-5.373-7.606-8.285-12.989-6.505l-48.848,16.272l-3.252-9.768l-19.556,6.515l6.515,19.556l0,0
				l6.505,19.556l13.02,39.111l19.556-6.515l-3.263-9.768l48.879-16.355c5.383-1.801,8.296-7.616,6.505-13.01l-3.345-10.056
				l21.913-8.234l14.162,42.621H103.63v51.462h20.585v-30.877h370.528v30.877h20.585v-51.462h-26.884l15.161-45.513l67.415-57.782
				c14.759-1.976,26.771-12.824,30.249-27.296c22.612-89.946,22.612-184.08,0-274.026c-3.788-16.036-18.001-27.44-34.48-27.666
				c-5.681,0-10.292,4.611-10.292,10.292v256.055h-18.691c-148.129-53.366-310.276-53.171-458.281,0.556
				c-0.36,0.185-0.7,0.381-1.029,0.607h-5.743V247.36c0-5.681-4.611-10.292-10.292-10.292H52.168v-45.431l21.83-3.088
				c5.63-0.793,9.551-6,8.759-11.63c-0.309-2.223-1.348-4.292-2.944-5.867L65.26,156.498l14.554-14.564l14.554,14.564l14.554-14.554
				l-14.554-14.564l14.564-14.554l14.554,14.554l14.554-14.554l-14.554-14.554l14.554-14.564l14.554,14.554l14.554-14.554
				l-14.554-14.554l14.564-14.554l14.553,14.564l14.554-14.564L181.709,40.05l21.83-21.841L188.985,3.655l-21.83,21.841
				l-14.564-14.564l-14.554,14.554l14.564,14.564l-14.564,14.554L123.484,40.05l-14.554,14.554l14.554,14.564L108.931,83.71
				L94.367,69.167L79.824,83.71l14.543,14.564l-14.554,14.554L65.26,98.274l-14.554,14.554l14.554,14.554l-14.554,14.564
				l-14.564-14.564c-4.004-4.035-10.519-4.055-14.554-0.051c-1.595,1.585-2.625,3.644-2.944,5.867l-7.277,50.948
				c-0.803,5.63,3.098,10.838,8.728,11.651c0.494,0.072,0.998,0.103,1.492,0.103c0.494,0,0.978-0.031,1.462-0.103l8.532-1.215
				v42.487H21.291c-5.681,0-10.292,4.611-10.292,10.292v61.755H0.706v20.585h95.504l13.596,40.727l-21.923,8.234L84.713,369.202z
				 M35.896,418.019l-6.505-19.556l39.05-13.03l6.505,19.556L35.896,418.019z M577.083,25.403c2.058,2.131,3.51,4.765,4.22,7.647
				c3.283,12.999,5.908,26.143,8.234,39.338h-12.454V25.403z M577.083,92.973h15.603c2.295,17.085,3.674,34.253,4.323,51.462
				h-19.926C577.083,144.436,577.083,92.973,577.083,92.973z M577.083,165.02h20.585c-0.041,20.636-1.266,41.252-3.654,61.755
				h-16.931V165.02z M577.083,276.961V247.36h14.008c-2.563,16.663-5.651,33.255-9.788,49.63c-0.71,2.882-2.161,5.517-4.22,7.647
				V276.961z M36.143,156.488l14.564,14.564l-16.983,2.419L36.143,156.488z M52.168,278.237v30.877H31.583v-51.462h20.585V278.237z
				 M466.737,432.624H152.221l-16.633-49.877l16.828-6.309c8.8,7.205,21.769,5.908,28.963-2.892
				c7.194-8.8,5.908-21.769-2.892-28.963c-8.8-7.194-21.769-5.908-28.963,2.892c-2.285,2.789-3.798,6.134-4.385,9.695l-16.066,6.031
				l-11.167-33.502h195.186c-2.347,4.807-3.582,10.087-3.613,15.439c0,19.895,16.128,36.024,36.024,36.024
				s36.024-16.128,36.024-36.024c-0.031-5.352-1.266-10.632-3.613-15.439h123.139L466.737,432.624z M330.064,345.138
				c0-8.522,6.917-15.439,15.439-15.439c8.522,0,15.439,6.917,15.439,15.439c0,8.522-6.917,15.439-15.439,15.439
				C336.98,360.577,330.064,353.66,330.064,345.138z M516.254,349.173l6.495-19.473h16.252L516.254,349.173z M466.953,266.669
				H152.005C255.423,241.01,363.535,241.01,466.953,266.669z M103.63,309.115H72.753V288.53l483.745-1.215v21.799H103.63z"/>
			<rect x="422.696" y="350.284" width="20.585" height="61.755"/>
		</g>
	</g>
</g>
<g>
</g>
<g>
</g>
<g>
</g>
<g>
</g>
<g>
</g>
<g>
</g>
<g>
</g>
<g>
</g>
<g>
</g>
<g>
</g>
<g>
</g>
<g>
</g>
<g>
</g>
<g>
</g>
<g>
</g>
</svg>
